<svg width="85" height="35" viewBox="0 0 85 35" fill="none" xmlns="http://www.w3.org/2000/svg">
<path d="M0 5C0 2.23858 2.23858 0 5 0H80C82.7614 0 85 2.23858 85 5V30C85 32.7614 82.7614 35 80 35H5C2.23858 35 0 32.7614 0 30V5Z" fill="#18D671"/>
<path d="M43.7161 0V35H39.3704V0H43.7161Z" fill="white"/>
<path d="M54.4549 23.1529C53.6392 23.1529 52.8795 23.0204 52.176 22.7553C51.4826 22.48 50.8759 22.0976 50.3559 21.6082C49.8461 21.1086 49.4484 20.5223 49.1629 19.8493C48.8774 19.1763 48.7347 18.4422 48.7347 17.6469C48.7347 16.8516 48.8774 16.1174 49.1629 15.4445C49.4484 14.7715 49.8512 14.1903 50.3712 13.7009C50.8912 13.2013 51.4979 12.8189 52.1913 12.5538C52.8846 12.2785 53.6443 12.1408 54.4702 12.1408C55.3471 12.1408 56.1475 12.2938 56.8714 12.5997C57.5954 12.8954 58.2072 13.3389 58.7068 13.9303L57.422 15.1386C57.0346 14.7205 56.6012 14.4095 56.122 14.2056C55.6428 13.9915 55.1227 13.8844 54.5619 13.8844C54.0011 13.8844 53.4862 13.9762 53.0172 14.1597C52.5584 14.3433 52.1556 14.6033 51.8089 14.9397C51.4724 15.2762 51.2073 15.6739 51.0136 16.1327C50.8301 16.5916 50.7383 17.0963 50.7383 17.6469C50.7383 18.1975 50.8301 18.7022 51.0136 19.1611C51.2073 19.6199 51.4724 20.0176 51.8089 20.354C52.1556 20.6905 52.5584 20.9505 53.0172 21.1341C53.4862 21.3176 54.0011 21.4094 54.5619 21.4094C55.1227 21.4094 55.6428 21.3074 56.122 21.1035C56.6012 20.8893 57.0346 20.5682 57.422 20.1399L58.7068 21.3635C58.2072 21.9447 57.5954 22.3882 56.8714 22.6941C56.1475 23 55.342 23.1529 54.4549 23.1529ZM65.6915 23V21.3482L65.5845 20.9964V18.1057C65.5845 17.5449 65.4162 17.1116 65.0797 16.8057C64.7433 16.4896 64.2334 16.3316 63.5503 16.3316C63.0914 16.3316 62.6377 16.4029 62.1891 16.5457C61.7506 16.6884 61.3784 16.8873 61.0725 17.1422L60.3231 15.7504C60.7616 15.4139 61.2816 15.1641 61.8832 15.0009C62.4949 14.8276 63.1271 14.7409 63.7797 14.7409C64.9625 14.7409 65.8751 15.0264 66.5174 15.5974C67.17 16.1582 67.4963 17.03 67.4963 18.2128V23H65.6915ZM63.122 23.1071C62.5102 23.1071 61.9749 23.0051 61.5161 22.8012C61.0573 22.587 60.7004 22.2964 60.4455 21.9294C60.2008 21.5521 60.0784 21.129 60.0784 20.6599C60.0784 20.2011 60.1855 19.7881 60.3996 19.4211C60.6239 19.054 60.9859 18.7634 61.4855 18.5493C61.9851 18.3351 62.6479 18.2281 63.4738 18.2281H65.8445V19.4975H63.6115C62.9589 19.4975 62.5204 19.6046 62.2961 19.8187C62.0718 20.0227 61.9596 20.2776 61.9596 20.5835C61.9596 20.9301 62.0973 21.2054 62.3726 21.4094C62.6479 21.6133 63.0303 21.7153 63.5197 21.7153C63.9887 21.7153 64.4068 21.6082 64.7738 21.3941C65.1511 21.1799 65.4213 20.8639 65.5845 20.4458L65.9056 21.5929C65.7221 22.0721 65.3907 22.4443 64.9115 22.7094C64.4425 22.9745 63.846 23.1071 63.122 23.1071ZM70.2558 23V11.6514H72.1676V23H70.2558ZM74.9828 23V11.6514H76.8946V23H74.9828Z" fill="white"/>
<path d="M24.2604 27.9167C24.5371 27.9183 24.8113 27.8647 25.067 27.7592C25.3228 27.6537 25.555 27.4983 25.75 27.3021L28.5729 24.4792C28.7669 24.284 28.8758 24.02 28.8758 23.7448C28.8758 23.4696 28.7669 23.2056 28.5729 23.0104L24.4063 18.8437C24.2111 18.6497 23.9471 18.5408 23.6719 18.5408C23.3967 18.5408 23.1327 18.6497 22.9375 18.8437L21.2708 20.5C20.1169 20.1923 19.0482 19.6259 18.1458 18.8437C17.3658 17.9399 16.7996 16.8717 16.4896 15.7187L18.1458 14.0521C18.3399 13.8569 18.4487 13.5929 18.4487 13.3177C18.4487 13.0425 18.3399 12.7785 18.1458 12.5833L13.9792 8.41666C13.784 8.22265 13.52 8.11375 13.2448 8.11375C12.9696 8.11375 12.7056 8.22265 12.5104 8.41666L9.69792 11.25C9.50171 11.445 9.3463 11.6772 9.24078 11.933C9.13526 12.1887 9.08174 12.4629 9.08334 12.7396C9.17784 16.742 10.7772 20.5617 13.5625 23.4375C16.4383 26.2228 20.258 27.8222 24.2604 27.9167ZM13.25 10.6354L15.9479 13.3333L14.6042 14.6771C14.4769 14.7963 14.3816 14.9456 14.327 15.1112C14.2724 15.2768 14.2603 15.4535 14.2917 15.625C14.681 17.365 15.5053 18.9778 16.6875 20.3125C18.0212 21.4962 19.6344 22.3207 21.375 22.7083C21.5439 22.7436 21.719 22.7364 21.8845 22.6873C22.0499 22.6382 22.2006 22.5488 22.3229 22.4271L23.6667 21.0521L26.3646 23.75L24.2813 25.8333C20.8268 25.7444 17.5307 24.3658 15.0417 21.9687C12.6385 19.4787 11.2558 16.1782 11.1667 12.7187L13.25 10.6354ZM27.8333 16.4583H29.9167C29.9437 15.2198 29.7197 13.9886 29.2581 12.839C28.7965 11.6893 28.1069 10.645 27.2309 9.76905C26.355 8.89306 25.3107 8.2035 24.161 7.74192C23.0114 7.28035 21.7802 7.05632 20.5417 7.08333V9.16666C21.5082 9.13323 22.4714 9.29896 23.3711 9.65357C24.2709 10.0082 25.0882 10.5441 25.772 11.228C26.4559 11.9118 26.9918 12.7291 27.3464 13.6289C27.701 14.5286 27.8668 15.4918 27.8333 16.4583Z" fill="white"/>
<path d="M20.5417 13.3333C22.7292 13.3333 23.6667 14.2708 23.6667 16.4583H25.75C25.75 13.1042 23.8958 11.25 20.5417 11.25V13.3333Z" fill="white"/>
</svg>
