<svg width="141" height="39" viewBox="0 0 141 39" fill="none" xmlns="http://www.w3.org/2000/svg">
<rect width="141" height="39" rx="5" fill="#0000FF"/>
<path d="M15.112 18.928H23.488V21.568H15.112V18.928ZM15.376 28H12.256V11.2H24.52V13.816H15.376V28ZM34.7234 28V25.408L34.5554 24.856V20.32C34.5554 19.44 34.2914 18.76 33.7634 18.28C33.2354 17.784 32.4354 17.536 31.3634 17.536C30.6434 17.536 29.9314 17.648 29.2274 17.872C28.5394 18.096 27.9554 18.408 27.4754 18.808L26.2994 16.624C26.9874 16.096 27.8034 15.704 28.7474 15.448C29.7074 15.176 30.6994 15.04 31.7234 15.04C33.5794 15.04 35.0114 15.488 36.0194 16.384C37.0434 17.264 37.5554 18.632 37.5554 20.488V28H34.7234ZM30.6914 28.168C29.7314 28.168 28.8914 28.008 28.1714 27.688C27.4514 27.352 26.8914 26.896 26.4914 26.32C26.1074 25.728 25.9154 25.064 25.9154 24.328C25.9154 23.608 26.0834 22.96 26.4194 22.384C26.7714 21.808 27.3394 21.352 28.1234 21.016C28.9074 20.68 29.9474 20.512 31.2434 20.512H34.9634V22.504H31.4594C30.4354 22.504 29.7474 22.672 29.3954 23.008C29.0434 23.328 28.8674 23.728 28.8674 24.208C28.8674 24.752 29.0834 25.184 29.5154 25.504C29.9474 25.824 30.5474 25.984 31.3154 25.984C32.0514 25.984 32.7074 25.816 33.2834 25.48C33.8754 25.144 34.2994 24.648 34.5554 23.992L35.0594 25.792C34.7714 26.544 34.2514 27.128 33.4994 27.544C32.7634 27.96 31.8274 28.168 30.6914 28.168ZM47.3089 28.168C45.9649 28.168 44.7649 27.888 43.7089 27.328C42.6689 26.752 41.8529 25.968 41.2609 24.976C40.6689 23.984 40.3729 22.856 40.3729 21.592C40.3729 20.312 40.6689 19.184 41.2609 18.208C41.8529 17.216 42.6689 16.44 43.7089 15.88C44.7649 15.32 45.9649 15.04 47.3089 15.04C48.5569 15.04 49.6529 15.296 50.5969 15.808C51.5569 16.304 52.2849 17.04 52.7809 18.016L50.4769 19.36C50.0929 18.752 49.6209 18.304 49.0609 18.016C48.5169 17.728 47.9249 17.584 47.2849 17.584C46.5489 17.584 45.8849 17.744 45.2929 18.064C44.7009 18.384 44.2369 18.848 43.9009 19.456C43.5649 20.048 43.3969 20.76 43.3969 21.592C43.3969 22.424 43.5649 23.144 43.9009 23.752C44.2369 24.344 44.7009 24.8 45.2929 25.12C45.8849 25.44 46.5489 25.6 47.2849 25.6C47.9249 25.6 48.5169 25.456 49.0609 25.168C49.6209 24.88 50.0929 24.432 50.4769 23.824L52.7809 25.168C52.2849 26.128 51.5569 26.872 50.5969 27.4C49.6529 27.912 48.5569 28.168 47.3089 28.168ZM61.2108 28.168C59.7868 28.168 58.5388 27.888 57.4668 27.328C56.4108 26.752 55.5868 25.968 54.9948 24.976C54.4188 23.984 54.1308 22.856 54.1308 21.592C54.1308 20.312 54.4108 19.184 54.9708 18.208C55.5468 17.216 56.3308 16.44 57.3228 15.88C58.3308 15.32 59.4748 15.04 60.7548 15.04C62.0028 15.04 63.1148 15.312 64.0908 15.856C65.0668 16.4 65.8348 17.168 66.3948 18.16C66.9548 19.152 67.2348 20.32 67.2348 21.664C67.2348 21.792 67.2268 21.936 67.2108 22.096C67.2108 22.256 67.2028 22.408 67.1868 22.552H56.5068V20.56H65.6028L64.4268 21.184C64.4428 20.448 64.2908 19.8 63.9708 19.24C63.6508 18.68 63.2108 18.24 62.6508 17.92C62.1068 17.6 61.4748 17.44 60.7548 17.44C60.0188 17.44 59.3708 17.6 58.8108 17.92C58.2668 18.24 57.8348 18.688 57.5148 19.264C57.2108 19.824 57.0588 20.488 57.0588 21.256V21.736C57.0588 22.504 57.2348 23.184 57.5868 23.776C57.9388 24.368 58.4348 24.824 59.0748 25.144C59.7148 25.464 60.4508 25.624 61.2828 25.624C62.0028 25.624 62.6508 25.512 63.2268 25.288C63.8028 25.064 64.3148 24.712 64.7628 24.232L66.3708 26.08C65.7948 26.752 65.0668 27.272 64.1868 27.64C63.3228 27.992 62.3308 28.168 61.2108 28.168ZM77.2204 28.168C76.1324 28.168 75.1644 27.928 74.3164 27.448C73.4684 26.968 72.7964 26.248 72.3004 25.288C71.8204 24.312 71.5804 23.08 71.5804 21.592C71.5804 20.088 71.8284 18.856 72.3244 17.896C72.8364 16.936 73.5164 16.224 74.3644 15.76C75.2284 15.28 76.1804 15.04 77.2204 15.04C78.4844 15.04 79.5964 15.312 80.5564 15.856C81.5324 16.4 82.3004 17.16 82.8604 18.136C83.4364 19.112 83.7244 20.264 83.7244 21.592C83.7244 22.92 83.4364 24.072 82.8604 25.048C82.3004 26.024 81.5324 26.792 80.5564 27.352C79.5964 27.896 78.4844 28.168 77.2204 28.168ZM70.1164 28V10.192H73.1164V18.16L72.8764 21.568L72.9724 24.976V28H70.1164ZM76.8844 25.6C77.6044 25.6 78.2444 25.44 78.8044 25.12C79.3804 24.8 79.8364 24.336 80.1724 23.728C80.5084 23.12 80.6764 22.408 80.6764 21.592C80.6764 20.76 80.5084 20.048 80.1724 19.456C79.8364 18.848 79.3804 18.384 78.8044 18.064C78.2444 17.744 77.6044 17.584 76.8844 17.584C76.1644 17.584 75.5164 17.744 74.9404 18.064C74.3644 18.384 73.9084 18.848 73.5724 19.456C73.2364 20.048 73.0684 20.76 73.0684 21.592C73.0684 22.408 73.2364 23.12 73.5724 23.728C73.9084 24.336 74.3644 24.8 74.9404 25.12C75.5164 25.44 76.1644 25.6 76.8844 25.6ZM92.3296 28.168C91.0176 28.168 89.8496 27.888 88.8256 27.328C87.8016 26.752 86.9936 25.968 86.4016 24.976C85.8096 23.984 85.5136 22.856 85.5136 21.592C85.5136 20.312 85.8096 19.184 86.4016 18.208C86.9936 17.216 87.8016 16.44 88.8256 15.88C89.8496 15.32 91.0176 15.04 92.3296 15.04C93.6576 15.04 94.8336 15.32 95.8576 15.88C96.8976 16.44 97.7056 17.208 98.2816 18.184C98.8736 19.16 99.1696 20.296 99.1696 21.592C99.1696 22.856 98.8736 23.984 98.2816 24.976C97.7056 25.968 96.8976 26.752 95.8576 27.328C94.8336 27.888 93.6576 28.168 92.3296 28.168ZM92.3296 25.6C93.0656 25.6 93.7216 25.44 94.2976 25.12C94.8736 24.8 95.3216 24.336 95.6416 23.728C95.9776 23.12 96.1456 22.408 96.1456 21.592C96.1456 20.76 95.9776 20.048 95.6416 19.456C95.3216 18.848 94.8736 18.384 94.2976 18.064C93.7216 17.744 93.0736 17.584 92.3536 17.584C91.6176 17.584 90.9616 17.744 90.3856 18.064C89.8256 18.384 89.3776 18.848 89.0416 19.456C88.7056 20.048 88.5376 20.76 88.5376 21.592C88.5376 22.408 88.7056 23.12 89.0416 23.728C89.3776 24.336 89.8256 24.8 90.3856 25.12C90.9616 25.44 91.6096 25.6 92.3296 25.6ZM107.798 28.168C106.486 28.168 105.318 27.888 104.294 27.328C103.27 26.752 102.462 25.968 101.87 24.976C101.278 23.984 100.982 22.856 100.982 21.592C100.982 20.312 101.278 19.184 101.87 18.208C102.462 17.216 103.27 16.44 104.294 15.88C105.318 15.32 106.486 15.04 107.798 15.04C109.126 15.04 110.302 15.32 111.326 15.88C112.366 16.44 113.174 17.208 113.75 18.184C114.342 19.16 114.638 20.296 114.638 21.592C114.638 22.856 114.342 23.984 113.75 24.976C113.174 25.968 112.366 26.752 111.326 27.328C110.302 27.888 109.126 28.168 107.798 28.168ZM107.798 25.6C108.534 25.6 109.19 25.44 109.766 25.12C110.342 24.8 110.79 24.336 111.11 23.728C111.446 23.12 111.614 22.408 111.614 21.592C111.614 20.76 111.446 20.048 111.11 19.456C110.79 18.848 110.342 18.384 109.766 18.064C109.19 17.744 108.542 17.584 107.822 17.584C107.086 17.584 106.43 17.744 105.854 18.064C105.294 18.384 104.846 18.848 104.51 19.456C104.174 20.048 104.006 20.76 104.006 21.592C104.006 22.408 104.174 23.12 104.51 23.728C104.846 24.336 105.294 24.8 105.854 25.12C106.43 25.44 107.078 25.6 107.798 25.6ZM119.955 25.144L120.027 21.376L126.723 15.184H130.323L124.635 20.896L123.051 22.216L119.955 25.144ZM117.507 28V10.192H120.507V28H117.507ZM127.179 28L122.499 22.216L124.395 19.816L130.827 28H127.179Z" fill="white"/>
</svg>
