<svg width="50" height="50" viewBox="0 0 50 50" fill="none" xmlns="http://www.w3.org/2000/svg">
<g clip-path="url(#clip0_181_509)">
<path d="M12.6789 49.823C10.745 49.8015 8.82918 49.4468 7.01569 48.7745C5.69139 48.285 4.49324 47.5057 3.50882 46.4936C2.494 45.5112 1.71357 44.3127 1.22549 42.9873C0.5538 41.1738 0.199599 39.2582 0.178431 37.3245C0.029902 34.1098 0 33.1456 0 25C0 16.8544 0.0328431 15.8936 0.176961 12.6765C0.200697 10.7435 0.555334 8.82891 1.22549 7.01569C1.71595 5.69118 2.49527 4.49254 3.50686 3.50686C4.49006 2.49296 5.68878 1.71325 7.01422 1.22549C8.82771 0.553243 10.7435 0.198543 12.6775 0.176961C15.8931 0.029902 16.8588 0 25 0C33.1412 0 34.1064 0.0328431 37.3235 0.176961C39.257 0.20053 41.1721 0.555169 42.9858 1.22549C44.3106 1.71389 45.509 2.49333 46.4926 3.50637C47.506 4.49031 48.2858 5.68902 48.7745 7.01422C49.4469 8.82768 49.8018 10.7435 49.8235 12.6775C49.9706 15.8946 50.0005 16.8578 50.0005 25.001C50.0005 33.1441 49.9706 34.1073 49.8235 37.3245C49.8002 39.2582 49.4454 41.1735 48.7745 42.9873C48.2671 44.3025 47.4898 45.497 46.4928 46.4937C45.4958 47.4905 44.3012 48.2674 42.9858 48.7745C41.1723 49.4469 39.2565 49.8018 37.3225 49.8235C34.1083 49.9706 33.1422 50.0005 24.999 50.0005C16.8559 50.0005 15.8926 49.9721 12.6784 49.8235" fill="url(#paint0_radial_181_509)"/>
<path d="M12.6789 49.823C10.745 49.8015 8.82918 49.4468 7.01569 48.7745C5.69139 48.285 4.49324 47.5057 3.50882 46.4936C2.494 45.5112 1.71357 44.3127 1.22549 42.9873C0.5538 41.1738 0.199599 39.2582 0.178431 37.3245C0.029902 34.1098 0 33.1456 0 25C0 16.8544 0.0328431 15.8936 0.176961 12.6765C0.200697 10.7435 0.555334 8.82891 1.22549 7.01569C1.71595 5.69118 2.49527 4.49254 3.50686 3.50686C4.49006 2.49296 5.68878 1.71325 7.01422 1.22549C8.82771 0.553243 10.7435 0.198543 12.6775 0.176961C15.8931 0.029902 16.8588 0 25 0C33.1412 0 34.1064 0.0328431 37.3235 0.176961C39.257 0.20053 41.1721 0.555169 42.9858 1.22549C44.3106 1.71389 45.509 2.49333 46.4926 3.50637C47.506 4.49031 48.2858 5.68902 48.7745 7.01422C49.4469 8.82768 49.8018 10.7435 49.8235 12.6775C49.9706 15.8946 50.0005 16.8578 50.0005 25.001C50.0005 33.1441 49.9706 34.1073 49.8235 37.3245C49.8002 39.2582 49.4454 41.1735 48.7745 42.9873C48.2671 44.3025 47.4898 45.497 46.4928 46.4937C45.4958 47.4905 44.3012 48.2674 42.9858 48.7745C41.1723 49.4469 39.2565 49.8018 37.3225 49.8235C34.1083 49.9706 33.1422 50.0005 24.999 50.0005C16.8559 50.0005 15.8926 49.9721 12.6784 49.8235" fill="url(#paint1_radial_181_509)"/>
<path d="M18.8613 25.1065C18.8614 23.8819 19.2246 22.6848 19.9051 21.6666C20.5855 20.6484 21.5526 19.8549 22.6841 19.3864C23.8155 18.9179 25.0605 18.7954 26.2615 19.0344C27.4626 19.2735 28.5658 19.8633 29.4316 20.7293C30.2975 21.5954 30.887 22.6987 31.1258 23.8998C31.3645 25.1009 31.2418 26.3459 30.773 27.4772C30.3042 28.6086 29.5104 29.5755 28.4921 30.2557C27.4737 30.9359 26.2766 31.2988 25.052 31.2987C23.4099 31.2984 21.8352 30.6459 20.6742 29.4846C19.5133 28.3234 18.8611 26.7485 18.8613 25.1065ZM15.5137 25.1065C15.5137 26.993 16.0731 28.8371 17.1212 30.4057C18.1693 31.9742 19.659 33.1967 21.4018 33.9187C23.1447 34.6406 25.0625 34.8295 26.9128 34.4615C28.763 34.0934 30.4626 33.185 31.7965 31.851C33.1305 30.5171 34.0389 28.8175 34.4069 26.9673C34.775 25.1171 34.5861 23.1992 33.8641 21.4564C33.1422 19.7135 31.9197 18.2238 30.3511 17.1757C28.7826 16.1277 26.9384 15.5682 25.052 15.5682C23.7994 15.5682 22.559 15.8149 21.4018 16.2942C20.2445 16.7735 19.193 17.4761 18.3073 18.3618C17.4215 19.2475 16.719 20.299 16.2397 21.4563C15.7603 22.6135 15.5137 23.8539 15.5137 25.1065ZM32.7387 15.1903C32.7385 15.6311 32.8691 16.0621 33.1138 16.4288C33.3586 16.7954 33.7066 17.0813 34.1138 17.2502C34.521 17.4191 34.9691 17.4634 35.4015 17.3776C35.8339 17.2918 36.2312 17.0796 36.543 16.7681C36.8549 16.4565 37.0674 16.0594 37.1535 15.6271C37.2397 15.1948 37.1958 14.7466 37.0273 14.3392C36.8587 13.9319 36.5732 13.5836 36.2068 13.3386C35.8403 13.0935 35.4095 12.9626 34.9686 12.9624C34.3777 12.9626 33.8111 13.1974 33.3932 13.6152C32.9752 14.0329 32.7402 14.5994 32.7397 15.1903H32.7387ZM17.5485 40.2266C16.3706 40.2136 15.2038 39.9981 14.099 39.5893C13.2978 39.2805 12.5702 38.8074 11.9629 38.2004C11.3556 37.5933 10.8822 36.8659 10.573 36.0648C10.1641 34.9601 9.94854 33.7932 9.93579 32.6153C9.84559 30.6575 9.82794 30.0692 9.82794 25.1089C9.82794 20.1486 9.84755 19.5619 9.93579 17.6021C9.95008 16.4243 10.1656 15.2577 10.573 14.1526C10.8818 13.3511 11.3551 12.6233 11.9624 12.016C12.5697 11.4087 13.2976 10.9354 14.099 10.6266C15.2037 10.2177 16.3706 10.0021 17.5485 9.98933C19.5064 9.89914 20.0946 9.88149 25.0529 9.88149C30.0113 9.88149 30.6 9.90061 32.5598 9.98983C33.7375 10.0041 34.9042 10.2196 36.0093 10.6271C36.8107 10.9359 37.5386 11.4092 38.1459 12.0165C38.7532 12.6238 39.2265 13.3516 39.5353 14.1531C39.9442 15.2578 40.1598 16.4247 40.1725 17.6026C40.2627 19.5634 40.2804 20.1486 40.2804 25.1094C40.2804 30.0702 40.2622 30.6565 40.1725 32.6163C40.1588 33.7941 39.9433 34.9608 39.5353 36.0658C39.2261 36.8669 38.7527 37.5943 38.1454 38.2013C37.5381 38.8084 36.8105 39.2815 36.0093 39.5903C34.9046 39.9992 33.7377 40.2148 32.5598 40.2276C30.602 40.3178 30.0137 40.3354 25.0529 40.3354C20.0922 40.3354 19.5059 40.3173 17.5485 40.2276V40.2266ZM17.3946 6.64473C15.8534 6.67503 14.3284 6.96675 12.8848 7.50746C11.6507 7.9846 10.53 8.71436 9.59442 9.64993C8.65885 10.5855 7.9291 11.7062 7.45195 12.9403C6.91131 14.3839 6.6196 15.9089 6.58922 17.4501C6.49755 19.4305 6.47696 20.0638 6.47696 25.1084C6.47696 30.1531 6.49804 30.7859 6.58922 32.7668C6.61959 34.308 6.9113 35.8329 7.45195 37.2766C7.92912 38.5106 8.65889 39.6314 9.59445 40.5669C10.53 41.5025 11.6508 42.2323 12.8848 42.7094C14.3285 43.2499 15.8534 43.5416 17.3946 43.5722C19.376 43.6624 20.0083 43.6844 25.0529 43.6844C30.0975 43.6844 30.7304 43.6634 32.7113 43.5722C34.2525 43.5417 35.7774 43.25 37.2211 42.7094C38.4551 42.2323 39.5759 41.5025 40.5114 40.5669C41.447 39.6314 42.1768 38.5106 42.6539 37.2766C43.1953 35.8331 43.487 34.3081 43.5167 32.7668C43.6069 30.7849 43.6274 30.1531 43.6274 25.1084C43.6274 20.0638 43.6064 19.431 43.5167 17.4501C43.4864 15.9089 43.1946 14.3839 42.6539 12.9403C42.1768 11.7065 41.4472 10.5859 40.5119 9.65036C39.5766 8.71482 38.4563 7.98494 37.2226 7.50746C35.779 6.9664 34.254 6.67467 32.7127 6.64473C30.7319 6.55404 30.099 6.53247 25.0554 6.53247C20.0118 6.53247 19.3774 6.55355 17.3956 6.64473" fill="white"/>
</g>
<defs>
<radialGradient id="paint0_radial_181_509" cx="0" cy="0" r="1" gradientUnits="userSpaceOnUse" gradientTransform="translate(3.23578 48.9049) scale(63.4814)">
<stop offset="0.09" stop-color="#FA8F21"/>
<stop offset="0.78" stop-color="#D82D7E"/>
</radialGradient>
<radialGradient id="paint1_radial_181_509" cx="0" cy="0" r="1" gradientUnits="userSpaceOnUse" gradientTransform="translate(34.6333 47.299) scale(55.8642)">
<stop offset="0.64" stop-color="#8C3AAA" stop-opacity="0"/>
<stop offset="1" stop-color="#8C3AAA"/>
</radialGradient>
<clipPath id="clip0_181_509">
<rect width="50" height="50" fill="white"/>
</clipPath>
</defs>
</svg>
