<svg width="154" height="39" viewBox="0 0 154 39" fill="none" xmlns="http://www.w3.org/2000/svg">
<rect width="154" height="39" rx="4" fill="url(#paint0_linear_47_733)"/>
<path d="M15.8693 28V11.2H18.9893V28H15.8693ZM30.5173 15.04C31.5413 15.04 32.4533 15.24 33.2533 15.64C34.0693 16.04 34.7093 16.656 35.1733 17.488C35.6373 18.304 35.8693 19.36 35.8693 20.656V28H32.8693V21.04C32.8693 19.904 32.5973 19.056 32.0533 18.496C31.5253 17.936 30.7813 17.656 29.8213 17.656C29.1173 17.656 28.4933 17.8 27.9493 18.088C27.4053 18.376 26.9813 18.808 26.6773 19.384C26.3893 19.944 26.2453 20.656 26.2453 21.52V28H23.2453V15.184H26.1013V18.64L25.5973 17.584C26.0453 16.768 26.6933 16.144 27.5413 15.712C28.4053 15.264 29.3973 15.04 30.5173 15.04ZM43.635 28.168C42.563 28.168 41.531 28.032 40.539 27.76C39.563 27.472 38.787 27.128 38.211 26.728L39.363 24.448C39.939 24.816 40.627 25.12 41.427 25.36C42.227 25.6 43.027 25.72 43.827 25.72C44.771 25.72 45.451 25.592 45.867 25.336C46.299 25.08 46.515 24.736 46.515 24.304C46.515 23.952 46.371 23.688 46.083 23.512C45.795 23.32 45.419 23.176 44.955 23.08C44.491 22.984 43.971 22.896 43.395 22.816C42.835 22.736 42.267 22.632 41.691 22.504C41.131 22.36 40.619 22.16 40.155 21.904C39.691 21.632 39.315 21.272 39.027 20.824C38.739 20.376 38.595 19.784 38.595 19.048C38.595 18.232 38.827 17.528 39.291 16.936C39.755 16.328 40.403 15.864 41.235 15.544C42.083 15.208 43.083 15.04 44.235 15.04C45.099 15.04 45.971 15.136 46.851 15.328C47.731 15.52 48.459 15.792 49.035 16.144L47.883 18.424C47.275 18.056 46.659 17.808 46.035 17.68C45.427 17.536 44.819 17.464 44.211 17.464C43.299 17.464 42.619 17.6 42.171 17.872C41.739 18.144 41.523 18.488 41.523 18.904C41.523 19.288 41.667 19.576 41.955 19.768C42.243 19.96 42.619 20.112 43.083 20.224C43.547 20.336 44.059 20.432 44.619 20.512C45.195 20.576 45.763 20.68 46.323 20.824C46.883 20.968 47.395 21.168 47.859 21.424C48.339 21.664 48.723 22.008 49.011 22.456C49.299 22.904 49.443 23.488 49.443 24.208C49.443 25.008 49.203 25.704 48.723 26.296C48.259 26.888 47.595 27.352 46.731 27.688C45.867 28.008 44.835 28.168 43.635 28.168ZM56.8506 28.168C55.4426 28.168 54.3546 27.808 53.5866 27.088C52.8186 26.352 52.4346 25.272 52.4346 23.848V12.352H55.4346V23.776C55.4346 24.384 55.5866 24.856 55.8906 25.192C56.2106 25.528 56.6506 25.696 57.2106 25.696C57.8826 25.696 58.4426 25.52 58.8906 25.168L59.7306 27.304C59.3786 27.592 58.9466 27.808 58.4346 27.952C57.9226 28.096 57.3946 28.168 56.8506 28.168ZM50.3226 17.68V15.28H58.8666V17.68H50.3226ZM70.0945 28V25.408L69.9265 24.856V20.32C69.9265 19.44 69.6625 18.76 69.1345 18.28C68.6065 17.784 67.8065 17.536 66.7345 17.536C66.0145 17.536 65.3025 17.648 64.5985 17.872C63.9105 18.096 63.3265 18.408 62.8465 18.808L61.6705 16.624C62.3585 16.096 63.1745 15.704 64.1185 15.448C65.0785 15.176 66.0705 15.04 67.0945 15.04C68.9505 15.04 70.3825 15.488 71.3905 16.384C72.4145 17.264 72.9265 18.632 72.9265 20.488V28H70.0945ZM66.0625 28.168C65.1025 28.168 64.2625 28.008 63.5425 27.688C62.8225 27.352 62.2625 26.896 61.8625 26.32C61.4785 25.728 61.2865 25.064 61.2865 24.328C61.2865 23.608 61.4545 22.96 61.7905 22.384C62.1425 21.808 62.7105 21.352 63.4945 21.016C64.2785 20.68 65.3185 20.512 66.6145 20.512H70.3345V22.504H66.8305C65.8065 22.504 65.1185 22.672 64.7665 23.008C64.4145 23.328 64.2385 23.728 64.2385 24.208C64.2385 24.752 64.4545 25.184 64.8865 25.504C65.3185 25.824 65.9185 25.984 66.6865 25.984C67.4225 25.984 68.0785 25.816 68.6545 25.48C69.2465 25.144 69.6705 24.648 69.9265 23.992L70.4305 25.792C70.1425 26.544 69.6225 27.128 68.8705 27.544C68.1345 27.96 67.1985 28.168 66.0625 28.168ZM82.608 32.824C81.424 32.824 80.264 32.664 79.128 32.344C78.008 32.04 77.088 31.592 76.368 31L77.712 28.744C78.272 29.208 78.976 29.576 79.824 29.848C80.688 30.136 81.56 30.28 82.44 30.28C83.848 30.28 84.88 29.952 85.536 29.296C86.192 28.656 86.52 27.688 86.52 26.392V24.112L86.76 21.208L86.664 18.304V15.184H89.52V26.056C89.52 28.376 88.928 30.08 87.744 31.168C86.56 32.272 84.848 32.824 82.608 32.824ZM82.224 27.424C81.008 27.424 79.904 27.168 78.912 26.656C77.936 26.128 77.16 25.4 76.584 24.472C76.024 23.544 75.744 22.456 75.744 21.208C75.744 19.976 76.024 18.896 76.584 17.968C77.16 17.04 77.936 16.32 78.912 15.808C79.904 15.296 81.008 15.04 82.224 15.04C83.312 15.04 84.288 15.256 85.152 15.688C86.016 16.12 86.704 16.792 87.216 17.704C87.744 18.616 88.008 19.784 88.008 21.208C88.008 22.632 87.744 23.808 87.216 24.736C86.704 25.648 86.016 26.328 85.152 26.776C84.288 27.208 83.312 27.424 82.224 27.424ZM82.68 24.88C83.432 24.88 84.104 24.728 84.696 24.424C85.288 24.104 85.744 23.672 86.064 23.128C86.4 22.568 86.568 21.928 86.568 21.208C86.568 20.488 86.4 19.856 86.064 19.312C85.744 18.752 85.288 18.328 84.696 18.04C84.104 17.736 83.432 17.584 82.68 17.584C81.928 17.584 81.248 17.736 80.64 18.04C80.048 18.328 79.584 18.752 79.248 19.312C78.928 19.856 78.768 20.488 78.768 21.208C78.768 21.928 78.928 22.568 79.248 23.128C79.584 23.672 80.048 24.104 80.64 24.424C81.248 24.728 81.928 24.88 82.68 24.88ZM93.4641 28V15.184H96.3201V18.712L95.9841 17.68C96.3681 16.816 96.9681 16.16 97.7841 15.712C98.6161 15.264 99.6481 15.04 100.88 15.04V17.896C100.752 17.864 100.632 17.848 100.52 17.848C100.408 17.832 100.296 17.824 100.184 17.824C99.0481 17.824 98.1441 18.16 97.4721 18.832C96.8001 19.488 96.4641 20.472 96.4641 21.784V28H93.4641ZM110.407 28V25.408L110.239 24.856V20.32C110.239 19.44 109.975 18.76 109.447 18.28C108.919 17.784 108.119 17.536 107.047 17.536C106.327 17.536 105.615 17.648 104.911 17.872C104.223 18.096 103.639 18.408 103.159 18.808L101.983 16.624C102.671 16.096 103.487 15.704 104.431 15.448C105.391 15.176 106.383 15.04 107.407 15.04C109.263 15.04 110.695 15.488 111.703 16.384C112.727 17.264 113.239 18.632 113.239 20.488V28H110.407ZM106.375 28.168C105.415 28.168 104.575 28.008 103.855 27.688C103.135 27.352 102.575 26.896 102.175 26.32C101.791 25.728 101.599 25.064 101.599 24.328C101.599 23.608 101.767 22.96 102.103 22.384C102.455 21.808 103.023 21.352 103.807 21.016C104.591 20.68 105.631 20.512 106.927 20.512H110.647V22.504H107.143C106.119 22.504 105.431 22.672 105.079 23.008C104.727 23.328 104.551 23.728 104.551 24.208C104.551 24.752 104.767 25.184 105.199 25.504C105.631 25.824 106.231 25.984 106.999 25.984C107.735 25.984 108.391 25.816 108.967 25.48C109.559 25.144 109.983 24.648 110.239 23.992L110.743 25.792C110.455 26.544 109.935 27.128 109.183 27.544C108.447 27.96 107.511 28.168 106.375 28.168ZM133.265 15.04C134.289 15.04 135.193 15.24 135.977 15.64C136.777 16.04 137.401 16.656 137.849 17.488C138.297 18.304 138.521 19.36 138.521 20.656V28H135.521V21.04C135.521 19.904 135.273 19.056 134.777 18.496C134.281 17.936 133.569 17.656 132.641 17.656C131.985 17.656 131.401 17.8 130.889 18.088C130.393 18.376 130.001 18.8 129.713 19.36C129.441 19.92 129.305 20.632 129.305 21.496V28H126.305V21.04C126.305 19.904 126.057 19.056 125.561 18.496C125.065 17.936 124.353 17.656 123.425 17.656C122.769 17.656 122.185 17.8 121.673 18.088C121.177 18.376 120.785 18.8 120.497 19.36C120.225 19.92 120.089 20.632 120.089 21.496V28H117.089V15.184H119.945V18.592L119.441 17.584C119.873 16.752 120.497 16.12 121.313 15.688C122.145 15.256 123.089 15.04 124.145 15.04C125.345 15.04 126.385 15.336 127.265 15.928C128.161 16.52 128.753 17.416 129.041 18.616L127.865 18.208C128.281 17.248 128.969 16.48 129.929 15.904C130.889 15.328 132.001 15.04 133.265 15.04Z" fill="white"/>
<defs>
<linearGradient id="paint0_linear_47_733" x1="77" y1="0" x2="77" y2="39" gradientUnits="userSpaceOnUse">
<stop stop-color="#FF1C1C"/>
<stop offset="1" stop-color="#5555FE"/>
</linearGradient>
</defs>
</svg>
