<svg width="141" height="39" viewBox="0 0 141 39" fill="none" xmlns="http://www.w3.org/2000/svg">
<rect width="141" height="39" rx="5" fill="#00E676"/>
<path d="M12.256 28V11.2H15.376V25.36H24.16V28H12.256ZM31.978 28.168C30.666 28.168 29.498 27.888 28.474 27.328C27.45 26.752 26.642 25.968 26.05 24.976C25.458 23.984 25.162 22.856 25.162 21.592C25.162 20.312 25.458 19.184 26.05 18.208C26.642 17.216 27.45 16.44 28.474 15.88C29.498 15.32 30.666 15.04 31.978 15.04C33.306 15.04 34.482 15.32 35.506 15.88C36.546 16.44 37.354 17.208 37.93 18.184C38.522 19.16 38.818 20.296 38.818 21.592C38.818 22.856 38.522 23.984 37.93 24.976C37.354 25.968 36.546 26.752 35.506 27.328C34.482 27.888 33.306 28.168 31.978 28.168ZM31.978 25.6C32.714 25.6 33.37 25.44 33.946 25.12C34.522 24.8 34.97 24.336 35.29 23.728C35.626 23.12 35.794 22.408 35.794 21.592C35.794 20.76 35.626 20.048 35.29 19.456C34.97 18.848 34.522 18.384 33.946 18.064C33.37 17.744 32.722 17.584 32.002 17.584C31.266 17.584 30.61 17.744 30.034 18.064C29.474 18.384 29.026 18.848 28.69 19.456C28.354 20.048 28.186 20.76 28.186 21.592C28.186 22.408 28.354 23.12 28.69 23.728C29.026 24.336 29.474 24.8 30.034 25.12C30.61 25.44 31.258 25.6 31.978 25.6ZM47.5668 28.168C46.2228 28.168 45.0228 27.888 43.9668 27.328C42.9268 26.752 42.1108 25.968 41.5188 24.976C40.9268 23.984 40.6308 22.856 40.6308 21.592C40.6308 20.312 40.9268 19.184 41.5188 18.208C42.1108 17.216 42.9268 16.44 43.9668 15.88C45.0228 15.32 46.2228 15.04 47.5668 15.04C48.8148 15.04 49.9108 15.296 50.8548 15.808C51.8148 16.304 52.5428 17.04 53.0388 18.016L50.7348 19.36C50.3508 18.752 49.8788 18.304 49.3188 18.016C48.7748 17.728 48.1828 17.584 47.5428 17.584C46.8068 17.584 46.1428 17.744 45.5508 18.064C44.9588 18.384 44.4948 18.848 44.1588 19.456C43.8228 20.048 43.6548 20.76 43.6548 21.592C43.6548 22.424 43.8228 23.144 44.1588 23.752C44.4948 24.344 44.9588 24.8 45.5508 25.12C46.1428 25.44 46.8068 25.6 47.5428 25.6C48.1828 25.6 48.7748 25.456 49.3188 25.168C49.8788 24.88 50.3508 24.432 50.7348 23.824L53.0388 25.168C52.5428 26.128 51.8148 26.872 50.8548 27.4C49.9108 27.912 48.8148 28.168 47.5668 28.168ZM63.5281 28V25.408L63.3601 24.856V20.32C63.3601 19.44 63.0961 18.76 62.5681 18.28C62.0401 17.784 61.2401 17.536 60.1681 17.536C59.4481 17.536 58.7361 17.648 58.0321 17.872C57.3441 18.096 56.7601 18.408 56.2801 18.808L55.1041 16.624C55.7921 16.096 56.6081 15.704 57.5521 15.448C58.5121 15.176 59.5041 15.04 60.5281 15.04C62.3841 15.04 63.8161 15.488 64.8241 16.384C65.8481 17.264 66.3601 18.632 66.3601 20.488V28H63.5281ZM59.4961 28.168C58.5361 28.168 57.6961 28.008 56.9761 27.688C56.2561 27.352 55.6961 26.896 55.2961 26.32C54.9121 25.728 54.7201 25.064 54.7201 24.328C54.7201 23.608 54.8881 22.96 55.2241 22.384C55.5761 21.808 56.1441 21.352 56.9281 21.016C57.7121 20.68 58.7521 20.512 60.0481 20.512H63.7681V22.504H60.2641C59.2401 22.504 58.5521 22.672 58.2001 23.008C57.8481 23.328 57.6721 23.728 57.6721 24.208C57.6721 24.752 57.8881 25.184 58.3201 25.504C58.7521 25.824 59.3521 25.984 60.1201 25.984C60.8561 25.984 61.5121 25.816 62.0881 25.48C62.6801 25.144 63.1041 24.648 63.3601 23.992L63.8641 25.792C63.5761 26.544 63.0561 27.128 62.3041 27.544C61.5681 27.96 60.6321 28.168 59.4961 28.168ZM75.0342 28.168C73.6262 28.168 72.5382 27.808 71.7702 27.088C71.0022 26.352 70.6182 25.272 70.6182 23.848V12.352H73.6182V23.776C73.6182 24.384 73.7702 24.856 74.0742 25.192C74.3942 25.528 74.8342 25.696 75.3942 25.696C76.0662 25.696 76.6262 25.52 77.0742 25.168L77.9142 27.304C77.5622 27.592 77.1302 27.808 76.6182 27.952C76.1062 28.096 75.5782 28.168 75.0342 28.168ZM68.5062 17.68V15.28H77.0502V17.68H68.5062ZM85.9842 28.168C84.5602 28.168 83.3122 27.888 82.2402 27.328C81.1842 26.752 80.3602 25.968 79.7682 24.976C79.1922 23.984 78.9042 22.856 78.9042 21.592C78.9042 20.312 79.1842 19.184 79.7442 18.208C80.3202 17.216 81.1042 16.44 82.0962 15.88C83.1042 15.32 84.2482 15.04 85.5282 15.04C86.7762 15.04 87.8882 15.312 88.8642 15.856C89.8402 16.4 90.6082 17.168 91.1682 18.16C91.7282 19.152 92.0082 20.32 92.0082 21.664C92.0082 21.792 92.0002 21.936 91.9842 22.096C91.9842 22.256 91.9762 22.408 91.9602 22.552H81.2802V20.56H90.3762L89.2002 21.184C89.2162 20.448 89.0642 19.8 88.7442 19.24C88.4242 18.68 87.9842 18.24 87.4242 17.92C86.8802 17.6 86.2482 17.44 85.5282 17.44C84.7922 17.44 84.1442 17.6 83.5842 17.92C83.0402 18.24 82.6082 18.688 82.2882 19.264C81.9842 19.824 81.8322 20.488 81.8322 21.256V21.736C81.8322 22.504 82.0082 23.184 82.3602 23.776C82.7122 24.368 83.2082 24.824 83.8482 25.144C84.4882 25.464 85.2242 25.624 86.0562 25.624C86.7762 25.624 87.4242 25.512 88.0002 25.288C88.5762 25.064 89.0882 24.712 89.5362 24.232L91.1442 26.08C90.5682 26.752 89.8402 27.272 88.9602 27.64C88.0962 27.992 87.1042 28.168 85.9842 28.168ZM109.035 28.24C106.731 28.24 104.923 27.592 103.611 26.296C102.315 25 101.667 23.128 101.667 20.68V11.2H104.787V20.56C104.787 22.288 105.155 23.544 105.891 24.328C106.643 25.112 107.699 25.504 109.059 25.504C110.419 25.504 111.467 25.112 112.203 24.328C112.939 23.544 113.307 22.288 113.307 20.56V11.2H116.379V20.68C116.379 23.128 115.723 25 114.411 26.296C113.115 27.592 111.323 28.24 109.035 28.24ZM124.42 28.168C123.348 28.168 122.316 28.032 121.324 27.76C120.348 27.472 119.572 27.128 118.996 26.728L120.148 24.448C120.724 24.816 121.412 25.12 122.212 25.36C123.012 25.6 123.812 25.72 124.612 25.72C125.556 25.72 126.236 25.592 126.652 25.336C127.084 25.08 127.3 24.736 127.3 24.304C127.3 23.952 127.156 23.688 126.868 23.512C126.58 23.32 126.204 23.176 125.74 23.08C125.276 22.984 124.756 22.896 124.18 22.816C123.62 22.736 123.052 22.632 122.476 22.504C121.916 22.36 121.404 22.16 120.94 21.904C120.476 21.632 120.1 21.272 119.812 20.824C119.524 20.376 119.38 19.784 119.38 19.048C119.38 18.232 119.612 17.528 120.076 16.936C120.54 16.328 121.188 15.864 122.02 15.544C122.868 15.208 123.868 15.04 125.02 15.04C125.884 15.04 126.756 15.136 127.636 15.328C128.516 15.52 129.244 15.792 129.82 16.144L128.668 18.424C128.06 18.056 127.444 17.808 126.82 17.68C126.212 17.536 125.604 17.464 124.996 17.464C124.084 17.464 123.404 17.6 122.956 17.872C122.524 18.144 122.308 18.488 122.308 18.904C122.308 19.288 122.452 19.576 122.74 19.768C123.028 19.96 123.404 20.112 123.868 20.224C124.332 20.336 124.844 20.432 125.404 20.512C125.98 20.576 126.548 20.68 127.108 20.824C127.668 20.968 128.18 21.168 128.644 21.424C129.124 21.664 129.508 22.008 129.796 22.456C130.084 22.904 130.228 23.488 130.228 24.208C130.228 25.008 129.988 25.704 129.508 26.296C129.044 26.888 128.38 27.352 127.516 27.688C126.652 28.008 125.62 28.168 124.42 28.168Z" fill="black"/>
</svg>
