<svg width="141" height="41" viewBox="0 0 141 41" fill="none" xmlns="http://www.w3.org/2000/svg">
<rect y="0.666504" width="141" height="40" rx="8" fill="#00E676"/>
<path d="M22.0284 27.6665V13.6665H24.6284V25.4665H31.9484V27.6665H22.0284ZM38.4634 27.8065C37.3701 27.8065 36.3968 27.5732 35.5434 27.1065C34.6901 26.6265 34.0168 25.9732 33.5234 25.1465C33.0301 24.3198 32.7834 23.3798 32.7834 22.3265C32.7834 21.2598 33.0301 20.3198 33.5234 19.5065C34.0168 18.6798 34.6901 18.0332 35.5434 17.5665C36.3968 17.0998 37.3701 16.8665 38.4634 16.8665C39.5701 16.8665 40.5501 17.0998 41.4034 17.5665C42.2701 18.0332 42.9434 18.6732 43.4234 19.4865C43.9168 20.2998 44.1634 21.2465 44.1634 22.3265C44.1634 23.3798 43.9168 24.3198 43.4234 25.1465C42.9434 25.9732 42.2701 26.6265 41.4034 27.1065C40.5501 27.5732 39.5701 27.8065 38.4634 27.8065ZM38.4634 25.6665C39.0768 25.6665 39.6234 25.5332 40.1034 25.2665C40.5834 24.9998 40.9568 24.6132 41.2234 24.1065C41.5034 23.5998 41.6434 23.0065 41.6434 22.3265C41.6434 21.6332 41.5034 21.0398 41.2234 20.5465C40.9568 20.0398 40.5834 19.6532 40.1034 19.3865C39.6234 19.1198 39.0834 18.9865 38.4834 18.9865C37.8701 18.9865 37.3234 19.1198 36.8434 19.3865C36.3768 19.6532 36.0034 20.0398 35.7234 20.5465C35.4434 21.0398 35.3034 21.6332 35.3034 22.3265C35.3034 23.0065 35.4434 23.5998 35.7234 24.1065C36.0034 24.6132 36.3768 24.9998 36.8434 25.2665C37.3234 25.5332 37.8634 25.6665 38.4634 25.6665ZM51.4541 27.8065C50.3341 27.8065 49.3341 27.5732 48.4541 27.1065C47.5874 26.6265 46.9074 25.9732 46.4141 25.1465C45.9207 24.3198 45.6741 23.3798 45.6741 22.3265C45.6741 21.2598 45.9207 20.3198 46.4141 19.5065C46.9074 18.6798 47.5874 18.0332 48.4541 17.5665C49.3341 17.0998 50.3341 16.8665 51.4541 16.8665C52.4941 16.8665 53.4074 17.0798 54.1941 17.5065C54.9941 17.9198 55.6007 18.5332 56.0141 19.3465L54.0941 20.4665C53.7741 19.9598 53.3807 19.5865 52.9141 19.3465C52.4607 19.1065 51.9674 18.9865 51.4341 18.9865C50.8207 18.9865 50.2674 19.1198 49.7741 19.3865C49.2807 19.6532 48.8941 20.0398 48.6141 20.5465C48.3341 21.0398 48.1941 21.6332 48.1941 22.3265C48.1941 23.0198 48.3341 23.6198 48.6141 24.1265C48.8941 24.6198 49.2807 24.9998 49.7741 25.2665C50.2674 25.5332 50.8207 25.6665 51.4341 25.6665C51.9674 25.6665 52.4607 25.5465 52.9141 25.3065C53.3807 25.0665 53.7741 24.6932 54.0941 24.1865L56.0141 25.3065C55.6007 26.1065 54.9941 26.7265 54.1941 27.1665C53.4074 27.5932 52.4941 27.8065 51.4541 27.8065ZM64.7552 27.6665V25.5065L64.6152 25.0465V21.2665C64.6152 20.5332 64.3952 19.9665 63.9552 19.5665C63.5152 19.1532 62.8485 18.9465 61.9552 18.9465C61.3552 18.9465 60.7618 19.0398 60.1752 19.2265C59.6018 19.4132 59.1152 19.6732 58.7152 20.0065L57.7352 18.1865C58.3085 17.7465 58.9885 17.4198 59.7752 17.2065C60.5752 16.9798 61.4018 16.8665 62.2552 16.8665C63.8018 16.8665 64.9952 17.2398 65.8352 17.9865C66.6885 18.7198 67.1152 19.8598 67.1152 21.4065V27.6665H64.7552ZM61.3952 27.8065C60.5952 27.8065 59.8952 27.6732 59.2952 27.4065C58.6952 27.1265 58.2285 26.7465 57.8952 26.2665C57.5752 25.7732 57.4152 25.2198 57.4152 24.6065C57.4152 24.0065 57.5552 23.4665 57.8352 22.9865C58.1285 22.5065 58.6018 22.1265 59.2552 21.8465C59.9085 21.5665 60.7752 21.4265 61.8552 21.4265H64.9552V23.0865H62.0352C61.1818 23.0865 60.6085 23.2265 60.3152 23.5065C60.0218 23.7732 59.8752 24.1065 59.8752 24.5065C59.8752 24.9598 60.0552 25.3198 60.4152 25.5865C60.7752 25.8532 61.2752 25.9865 61.9152 25.9865C62.5285 25.9865 63.0752 25.8465 63.5552 25.5665C64.0485 25.2865 64.4018 24.8732 64.6152 24.3265L65.0352 25.8265C64.7952 26.4532 64.3618 26.9398 63.7352 27.2865C63.1218 27.6332 62.3418 27.8065 61.3952 27.8065ZM74.3436 27.8065C73.1703 27.8065 72.2636 27.5065 71.6236 26.9065C70.9836 26.2932 70.6636 25.3932 70.6636 24.2065V14.6265H73.1636V24.1465C73.1636 24.6532 73.2903 25.0465 73.5436 25.3265C73.8103 25.6065 74.1769 25.7465 74.6436 25.7465C75.2036 25.7465 75.6703 25.5998 76.0436 25.3065L76.7436 27.0865C76.4503 27.3265 76.0903 27.5065 75.6636 27.6265C75.2369 27.7465 74.7969 27.8065 74.3436 27.8065ZM68.9036 19.0665V17.0665H76.0236V19.0665H68.9036ZM83.4686 27.8065C82.2819 27.8065 81.2419 27.5732 80.3486 27.1065C79.4686 26.6265 78.7819 25.9732 78.2886 25.1465C77.8086 24.3198 77.5686 23.3798 77.5686 22.3265C77.5686 21.2598 77.8019 20.3198 78.2686 19.5065C78.7486 18.6798 79.4019 18.0332 80.2286 17.5665C81.0686 17.0998 82.0219 16.8665 83.0886 16.8665C84.1286 16.8665 85.0553 17.0932 85.8686 17.5465C86.6819 17.9998 87.3219 18.6398 87.7886 19.4665C88.2553 20.2932 88.4886 21.2665 88.4886 22.3865C88.4886 22.4932 88.4819 22.6132 88.4686 22.7465C88.4686 22.8798 88.4619 23.0065 88.4486 23.1265H79.5486V21.4665H87.1286L86.1486 21.9865C86.1619 21.3732 86.0353 20.8332 85.7686 20.3665C85.5019 19.8998 85.1353 19.5332 84.6686 19.2665C84.2153 18.9998 83.6886 18.8665 83.0886 18.8665C82.4753 18.8665 81.9353 18.9998 81.4686 19.2665C81.0153 19.5332 80.6553 19.9065 80.3886 20.3865C80.1353 20.8532 80.0086 21.4065 80.0086 22.0465V22.4465C80.0086 23.0865 80.1553 23.6532 80.4486 24.1465C80.7419 24.6398 81.1553 25.0198 81.6886 25.2865C82.2219 25.5532 82.8353 25.6865 83.5286 25.6865C84.1286 25.6865 84.6686 25.5932 85.1486 25.4065C85.6286 25.2198 86.0553 24.9265 86.4286 24.5265L87.7686 26.0665C87.2886 26.6265 86.6819 27.0598 85.9486 27.3665C85.2286 27.6598 84.4019 27.8065 83.4686 27.8065ZM102.677 27.8665C100.757 27.8665 99.2507 27.3265 98.1573 26.2465C97.0773 25.1665 96.5373 23.6065 96.5373 21.5665V13.6665H99.1373V21.4665C99.1373 22.9065 99.444 23.9532 100.057 24.6065C100.684 25.2598 101.564 25.5865 102.697 25.5865C103.831 25.5865 104.704 25.2598 105.317 24.6065C105.931 23.9532 106.237 22.9065 106.237 21.4665V13.6665H108.797V21.5665C108.797 23.6065 108.251 25.1665 107.157 26.2465C106.077 27.3265 104.584 27.8665 102.677 27.8665ZM115.499 27.8065C114.605 27.8065 113.745 27.6932 112.919 27.4665C112.105 27.2265 111.459 26.9398 110.979 26.6065L111.939 24.7065C112.419 25.0132 112.992 25.2665 113.659 25.4665C114.325 25.6665 114.992 25.7665 115.659 25.7665C116.445 25.7665 117.012 25.6598 117.359 25.4465C117.719 25.2332 117.899 24.9465 117.899 24.5865C117.899 24.2932 117.779 24.0732 117.539 23.9265C117.299 23.7665 116.985 23.6465 116.599 23.5665C116.212 23.4865 115.779 23.4132 115.299 23.3465C114.832 23.2798 114.359 23.1932 113.879 23.0865C113.412 22.9665 112.985 22.7998 112.599 22.5865C112.212 22.3598 111.899 22.0598 111.659 21.6865C111.419 21.3132 111.299 20.8198 111.299 20.2065C111.299 19.5265 111.492 18.9398 111.879 18.4465C112.265 17.9398 112.805 17.5532 113.499 17.2865C114.205 17.0065 115.039 16.8665 115.999 16.8665C116.719 16.8665 117.445 16.9465 118.179 17.1065C118.912 17.2665 119.519 17.4932 119.999 17.7865L119.039 19.6865C118.532 19.3798 118.019 19.1732 117.499 19.0665C116.992 18.9465 116.485 18.8865 115.979 18.8865C115.219 18.8865 114.652 18.9998 114.279 19.2265C113.919 19.4532 113.739 19.7398 113.739 20.0865C113.739 20.4065 113.859 20.6465 114.099 20.8065C114.339 20.9665 114.652 21.0932 115.039 21.1865C115.425 21.2798 115.852 21.3598 116.319 21.4265C116.799 21.4798 117.272 21.5665 117.739 21.6865C118.205 21.8065 118.632 21.9732 119.019 22.1865C119.419 22.3865 119.739 22.6732 119.979 23.0465C120.219 23.4198 120.339 23.9065 120.339 24.5065C120.339 25.1732 120.139 25.7532 119.739 26.2465C119.352 26.7398 118.799 27.1265 118.079 27.4065C117.359 27.6732 116.499 27.8065 115.499 27.8065Z" fill="white"/>
</svg>
