<svg width="45" height="45" viewBox="0 0 45 45" fill="none" xmlns="http://www.w3.org/2000/svg">
<path d="M35.1562 18.2812C35.1562 14.9246 33.8228 11.7054 31.4493 9.33193C29.0758 6.95842 25.8566 5.625 22.5 5.625C19.1434 5.625 15.9242 6.95842 13.5507 9.33193C11.1772 11.7054 9.84375 14.9246 9.84375 18.2812C9.84375 23.4731 13.9978 30.24 22.5 38.3456C31.0022 30.24 35.1562 23.4731 35.1562 18.2812ZM22.5 42.1875C12.1866 32.8134 7.03125 24.8428 7.03125 18.2812C7.03125 14.1787 8.66099 10.2441 11.5619 7.34319C14.4629 4.44224 18.3974 2.8125 22.5 2.8125C26.6026 2.8125 30.5371 4.44224 33.4381 7.34319C36.339 10.2441 37.9688 14.1787 37.9688 18.2812C37.9688 24.8428 32.8134 32.8134 22.5 42.1875Z" fill="white"/>
<path d="M22.5 22.5C23.6189 22.5 24.6919 22.0555 25.4831 21.2644C26.2743 20.4732 26.7188 19.4001 26.7188 18.2812C26.7188 17.1624 26.2743 16.0893 25.4831 15.2981C24.6919 14.507 23.6189 14.0625 22.5 14.0625C21.3811 14.0625 20.3081 14.507 19.5169 15.2981C18.7257 16.0893 18.2812 17.1624 18.2812 18.2812C18.2812 19.4001 18.7257 20.4732 19.5169 21.2644C20.3081 22.0555 21.3811 22.5 22.5 22.5ZM22.5 25.3125C20.6352 25.3125 18.8468 24.5717 17.5282 23.2531C16.2095 21.9345 15.4688 20.1461 15.4688 18.2812C15.4688 16.4164 16.2095 14.628 17.5282 13.3094C18.8468 11.9908 20.6352 11.25 22.5 11.25C24.3648 11.25 26.1532 11.9908 27.4718 13.3094C28.7905 14.628 29.5312 16.4164 29.5312 18.2812C29.5312 20.1461 28.7905 21.9345 27.4718 23.2531C26.1532 24.5717 24.3648 25.3125 22.5 25.3125Z" fill="white"/>
</svg>
