<svg width="194" height="49" viewBox="0 0 194 49" fill="none" xmlns="http://www.w3.org/2000/svg">
<g clip-path="url(#clip0_273_463)">
<path fill-rule="evenodd" clip-rule="evenodd" d="M187.385 0H6.61507C2.98389 0 0 2.38959 0 5.29755V43.3666C0 46.2745 2.98389 48.6641 6.61507 48.6641H187.385C191.016 48.6641 194 46.2745 194 43.3666V5.29755C194 2.38959 191.016 0 187.385 0Z" fill="#00E676"/>
<path d="M64.1933 0V48.6515H60.42V0H64.1933Z" fill="white"/>
<path d="M81.1307 29.2666V18.5604H82.7672L87.4474 26.3759H86.5909L91.1945 18.5604H92.8311L92.8464 29.2666H90.9651L90.9498 21.5122H91.3475L87.4321 28.043H86.545L82.5684 21.5122H83.0272V29.2666H81.1307ZM99.6995 29.3737C98.7921 29.3737 97.9967 29.1952 97.3136 28.8384C96.6406 28.4713 96.1155 27.9717 95.7382 27.3395C95.3712 26.7073 95.1876 25.9885 95.1876 25.1829C95.1876 24.3672 95.3661 23.6484 95.7229 23.0264C96.09 22.3942 96.5896 21.8997 97.2218 21.5428C97.8642 21.186 98.5932 21.0075 99.4089 21.0075C100.204 21.0075 100.913 21.1809 101.535 21.5275C102.157 21.8742 102.646 22.3636 103.003 22.9958C103.36 23.628 103.538 24.3723 103.538 25.2288C103.538 25.3104 103.533 25.4022 103.523 25.5041C103.523 25.6061 103.518 25.703 103.508 25.7947H96.7018V24.5253H102.498L101.749 24.9229C101.759 24.4539 101.662 24.0409 101.458 23.6841C101.254 23.3272 100.974 23.0468 100.617 22.8429C100.271 22.6389 99.8678 22.537 99.4089 22.537C98.9399 22.537 98.5269 22.6389 98.1701 22.8429C97.8234 23.0468 97.5481 23.3323 97.3442 23.6994C97.1504 24.0562 97.0536 24.4794 97.0536 24.9688V25.2747C97.0536 25.7641 97.1657 26.1975 97.39 26.5748C97.6144 26.952 97.9305 27.2426 98.3383 27.4465C98.7462 27.6505 99.2152 27.7524 99.7454 27.7524C100.204 27.7524 100.617 27.6811 100.984 27.5383C101.351 27.3956 101.678 27.1712 101.963 26.8653L102.988 28.043C102.621 28.4713 102.157 28.8027 101.596 29.0372C101.045 29.2615 100.413 29.3737 99.6995 29.3737ZM108.204 29.3737C107.521 29.3737 106.864 29.287 106.231 29.1137C105.609 28.9301 105.115 28.7109 104.748 28.456L105.482 27.003C105.849 27.2375 106.287 27.4312 106.797 27.5842C107.307 27.7371 107.817 27.8136 108.327 27.8136C108.928 27.8136 109.362 27.732 109.627 27.5689C109.902 27.4058 110.04 27.1865 110.04 26.9112C110.04 26.6869 109.948 26.5187 109.764 26.4065C109.581 26.2842 109.341 26.1924 109.046 26.1312C108.75 26.07 108.419 26.0139 108.051 25.963C107.695 25.912 107.333 25.8457 106.966 25.7641C106.609 25.6724 106.282 25.5449 105.987 25.3818C105.691 25.2084 105.451 24.979 105.268 24.6935C105.084 24.408 104.993 24.0307 104.993 23.5617C104.993 23.0417 105.14 22.5931 105.436 22.2158C105.732 21.8283 106.145 21.5326 106.675 21.3287C107.215 21.1146 107.853 21.0075 108.587 21.0075C109.137 21.0075 109.693 21.0687 110.254 21.191C110.815 21.3134 111.279 21.4867 111.646 21.7111L110.912 23.1641C110.524 22.9295 110.132 22.7715 109.734 22.6899C109.346 22.5982 108.959 22.5523 108.571 22.5523C107.99 22.5523 107.557 22.6389 107.271 22.8123C106.996 22.9856 106.858 23.2048 106.858 23.4699C106.858 23.7147 106.95 23.8982 107.134 24.0206C107.317 24.1429 107.557 24.2398 107.853 24.3111C108.148 24.3825 108.475 24.4437 108.831 24.4947C109.199 24.5355 109.561 24.6017 109.917 24.6935C110.274 24.7853 110.601 24.9127 110.896 25.0759C111.202 25.2288 111.447 25.448 111.63 25.7335C111.814 26.019 111.906 26.3912 111.906 26.8501C111.906 27.3599 111.753 27.8034 111.447 28.1807C111.151 28.558 110.728 28.8536 110.177 29.0678C109.627 29.2717 108.969 29.3737 108.204 29.3737ZM116.382 29.3737C115.698 29.3737 115.041 29.287 114.409 29.1137C113.787 28.9301 113.292 28.7109 112.925 28.456L113.659 27.003C114.026 27.2375 114.465 27.4312 114.975 27.5842C115.484 27.7371 115.994 27.8136 116.504 27.8136C117.106 27.8136 117.539 27.732 117.804 27.5689C118.079 27.4058 118.217 27.1865 118.217 26.9112C118.217 26.6869 118.125 26.5187 117.942 26.4065C117.758 26.2842 117.519 26.1924 117.223 26.1312C116.927 26.07 116.596 26.0139 116.229 25.963C115.872 25.912 115.51 25.8457 115.143 25.7641C114.786 25.6724 114.46 25.5449 114.164 25.3818C113.868 25.2084 113.629 24.979 113.445 24.6935C113.262 24.408 113.17 24.0307 113.17 23.5617C113.17 23.0417 113.318 22.5931 113.613 22.2158C113.909 21.8283 114.322 21.5326 114.852 21.3287C115.393 21.1146 116.03 21.0075 116.764 21.0075C117.315 21.0075 117.87 21.0687 118.431 21.191C118.992 21.3134 119.456 21.4867 119.823 21.7111L119.089 23.1641C118.701 22.9295 118.309 22.7715 117.911 22.6899C117.524 22.5982 117.136 22.5523 116.749 22.5523C116.168 22.5523 115.734 22.6389 115.449 22.8123C115.173 22.9856 115.036 23.2048 115.036 23.4699C115.036 23.7147 115.127 23.8982 115.311 24.0206C115.495 24.1429 115.734 24.2398 116.03 24.3111C116.326 24.3825 116.652 24.4437 117.009 24.4947C117.376 24.5355 117.738 24.6017 118.095 24.6935C118.452 24.7853 118.778 24.9127 119.073 25.0759C119.379 25.2288 119.624 25.448 119.808 25.7335C119.991 26.019 120.083 26.3912 120.083 26.8501C120.083 27.3599 119.93 27.8034 119.624 28.1807C119.328 28.558 118.905 28.8536 118.355 29.0678C117.804 29.2717 117.146 29.3737 116.382 29.3737ZM127.067 29.2666V27.6148L126.96 27.263V24.3723C126.96 23.8115 126.792 23.3782 126.455 23.0723C126.119 22.7562 125.609 22.5982 124.926 22.5982C124.467 22.5982 124.013 22.6695 123.565 22.8123C123.126 22.955 122.754 23.1539 122.448 23.4088L121.699 22.017C122.137 21.6805 122.657 21.4307 123.259 21.2675C123.871 21.0942 124.503 21.0075 125.155 21.0075C126.338 21.0075 127.251 21.293 127.893 21.864C128.546 22.4248 128.872 23.2966 128.872 24.4794V29.2666H127.067ZM124.498 29.3737C123.886 29.3737 123.351 29.2717 122.892 29.0678C122.433 28.8536 122.076 28.563 121.821 28.196C121.576 27.8187 121.454 27.3956 121.454 26.9265C121.454 26.4677 121.561 26.0547 121.775 25.6877C122 25.3206 122.362 25.03 122.861 24.8159C123.361 24.6017 124.024 24.4947 124.849 24.4947H127.22V25.7641H124.987C124.335 25.7641 123.896 25.8712 123.672 26.0853C123.447 26.2893 123.335 26.5442 123.335 26.8501C123.335 27.1967 123.473 27.472 123.748 27.676C124.024 27.8799 124.406 27.9819 124.895 27.9819C125.364 27.9819 125.782 27.8748 126.15 27.6607C126.527 27.4465 126.797 27.1305 126.96 26.7124L127.281 27.8595C127.098 28.3387 126.766 28.7109 126.287 28.976C125.818 29.2411 125.222 29.3737 124.498 29.3737ZM135.348 32.3408C134.593 32.3408 133.854 32.2389 133.13 32.0349C132.416 31.8412 131.83 31.5557 131.371 31.1784L132.228 29.7407C132.584 30.0364 133.033 30.2709 133.574 30.4443C134.124 30.6278 134.68 30.7196 135.241 30.7196C136.138 30.7196 136.796 30.5106 137.214 30.0925C137.632 29.6847 137.841 29.0678 137.841 28.2419V26.7889L137.994 24.9382L137.932 23.0876V21.0993H139.753V28.0277C139.753 29.5062 139.375 30.5921 138.621 31.2855C137.866 31.989 136.775 32.3408 135.348 32.3408ZM135.103 28.8995C134.328 28.8995 133.624 28.7364 132.992 28.4101C132.37 28.0736 131.876 27.6097 131.509 27.0183C131.152 26.4269 130.973 25.7335 130.973 24.9382C130.973 24.1531 131.152 23.4648 131.509 22.8735C131.876 22.2821 132.37 21.8232 132.992 21.4969C133.624 21.1707 134.328 21.0075 135.103 21.0075C135.796 21.0075 136.418 21.1452 136.969 21.4205C137.52 21.6958 137.958 22.124 138.284 22.7052C138.621 23.2864 138.789 24.0307 138.789 24.9382C138.789 25.8457 138.621 26.5951 138.284 27.1865C137.958 27.7677 137.52 28.2011 136.969 28.4866C136.418 28.7619 135.796 28.8995 135.103 28.8995ZM135.394 27.2783C135.873 27.2783 136.301 27.1814 136.678 26.9877C137.056 26.7838 137.346 26.5085 137.55 26.1618C137.764 25.8049 137.871 25.3971 137.871 24.9382C137.871 24.4794 137.764 24.0766 137.55 23.73C137.346 23.3731 137.056 23.1029 136.678 22.9193C136.301 22.7256 135.873 22.6287 135.394 22.6287C134.914 22.6287 134.481 22.7256 134.094 22.9193C133.716 23.1029 133.421 23.3731 133.206 23.73C133.003 24.0766 132.901 24.4794 132.901 24.9382C132.901 25.3971 133.003 25.8049 133.206 26.1618C133.421 26.5085 133.716 26.7838 134.094 26.9877C134.481 27.1814 134.914 27.2783 135.394 27.2783ZM146.411 29.3737C145.503 29.3737 144.708 29.1952 144.025 28.8384C143.352 28.4713 142.827 27.9717 142.45 27.3395C142.082 26.7073 141.899 25.9885 141.899 25.1829C141.899 24.3672 142.077 23.6484 142.434 23.0264C142.801 22.3942 143.301 21.8997 143.933 21.5428C144.575 21.186 145.305 21.0075 146.12 21.0075C146.916 21.0075 147.624 21.1809 148.246 21.5275C148.868 21.8742 149.358 22.3636 149.714 22.9958C150.071 23.628 150.25 24.3723 150.25 25.2288C150.25 25.3104 150.245 25.4022 150.234 25.5041C150.234 25.6061 150.229 25.703 150.219 25.7947H143.413V24.5253H149.21L148.46 24.9229C148.47 24.4539 148.374 24.0409 148.17 23.6841C147.966 23.3272 147.685 23.0468 147.328 22.8429C146.982 22.6389 146.579 22.537 146.12 22.537C145.651 22.537 145.238 22.6389 144.881 22.8429C144.535 23.0468 144.259 23.3323 144.055 23.6994C143.862 24.0562 143.765 24.4794 143.765 24.9688V25.2747C143.765 25.7641 143.877 26.1975 144.101 26.5748C144.326 26.952 144.642 27.2426 145.05 27.4465C145.457 27.6505 145.926 27.7524 146.457 27.7524C146.916 27.7524 147.328 27.6811 147.696 27.5383C148.063 27.3956 148.389 27.1712 148.674 26.8653L149.699 28.043C149.332 28.4713 148.868 28.8027 148.307 29.0372C147.757 29.2615 147.125 29.3737 146.411 29.3737ZM161.712 29.4195C160.244 29.4195 159.092 29.0066 158.256 28.1807C157.43 27.3548 157.017 26.1618 157.017 24.6017V18.5604H159.005V24.5253C159.005 25.6265 159.239 26.4269 159.709 26.9265C160.188 27.4262 160.861 27.676 161.727 27.676C162.594 27.676 163.262 27.4262 163.731 26.9265C164.2 26.4269 164.435 25.6265 164.435 24.5253V18.5604H166.392V24.6017C166.392 26.1618 165.974 27.3548 165.138 28.1807C164.312 29.0066 163.17 29.4195 161.712 29.4195ZM171.823 29.3737C171.14 29.3737 170.482 29.287 169.85 29.1137C169.228 28.9301 168.733 28.7109 168.366 28.456L169.1 27.003C169.467 27.2375 169.906 27.4312 170.416 27.5842C170.926 27.7371 171.435 27.8136 171.945 27.8136C172.547 27.8136 172.98 27.732 173.245 27.5689C173.521 27.4058 173.658 27.1865 173.658 26.9112C173.658 26.6869 173.566 26.5187 173.383 26.4065C173.199 26.2842 172.96 26.1924 172.664 26.1312C172.368 26.07 172.037 26.0139 171.67 25.963C171.313 25.912 170.951 25.8457 170.584 25.7641C170.227 25.6724 169.901 25.5449 169.605 25.3818C169.309 25.2084 169.07 24.979 168.886 24.6935C168.703 24.408 168.611 24.0307 168.611 23.5617C168.611 23.0417 168.759 22.5931 169.054 22.2158C169.35 21.8283 169.763 21.5326 170.293 21.3287C170.834 21.1146 171.471 21.0075 172.205 21.0075C172.756 21.0075 173.311 21.0687 173.872 21.191C174.433 21.3134 174.897 21.4867 175.264 21.7111L174.53 23.1641C174.142 22.9295 173.75 22.7715 173.352 22.6899C172.965 22.5982 172.577 22.5523 172.19 22.5523C171.609 22.5523 171.175 22.6389 170.89 22.8123C170.615 22.9856 170.477 23.2048 170.477 23.4699C170.477 23.7147 170.569 23.8982 170.752 24.0206C170.936 24.1429 171.175 24.2398 171.471 24.3111C171.767 24.3825 172.093 24.4437 172.45 24.4947C172.817 24.5355 173.179 24.6017 173.536 24.6935C173.893 24.7853 174.219 24.9127 174.515 25.0759C174.821 25.2288 175.065 25.448 175.249 25.7335C175.432 26.019 175.524 26.3912 175.524 26.8501C175.524 27.3599 175.371 27.8034 175.065 28.1807C174.77 28.558 174.346 28.8536 173.796 29.0678C173.245 29.2717 172.588 29.3737 171.823 29.3737Z" fill="white"/>
</g>
<g clip-path="url(#clip1_273_463)">
<g clip-path="url(#clip2_273_463)">
<path fill-rule="evenodd" clip-rule="evenodd" d="M43.6952 11.6149C40.5702 8.65437 36.4141 7.02315 31.9863 7.02148C22.8629 7.02148 15.4376 14.0473 15.434 22.6831C15.4328 25.4436 16.195 28.1382 17.6434 30.5134L15.2952 38.6298L24.0698 36.4518C26.4874 37.6995 29.2094 38.3571 31.9797 38.3582H31.9865C41.109 38.3582 48.535 31.3315 48.5387 22.6956C48.5404 18.5106 46.8203 14.5754 43.6952 11.6149ZM31.9865 35.7128H31.9809C29.5123 35.7119 27.091 35.0844 24.9787 33.8983L24.4763 33.6161L19.2694 34.9086L20.6592 30.1047L20.3321 29.6122C18.9549 27.5395 18.2276 25.1438 18.2286 22.6841C18.2317 15.5063 24.4033 9.6668 31.992 9.6668C35.6666 9.66812 39.1208 11.024 41.7183 13.4847C44.3158 15.9453 45.7454 19.2161 45.744 22.6946C45.7409 29.8729 39.5693 35.7128 31.9865 35.7128ZM39.5328 25.963C39.1192 25.7671 37.0858 24.8203 36.7067 24.6897C36.3276 24.5591 36.052 24.4938 35.7762 24.8856C35.5005 25.2774 34.7079 26.1589 34.4666 26.4201C34.2254 26.6813 33.9841 26.7139 33.5705 26.518C33.1569 26.3221 31.8243 25.9089 30.2446 24.5756C29.0151 23.5379 28.185 22.2562 27.9438 21.8645C27.7025 21.4727 27.9181 21.2608 28.1252 21.0658C28.3112 20.8904 28.5387 20.6087 28.7455 20.3801C28.9523 20.1516 29.0212 19.9883 29.1591 19.7272C29.297 19.466 29.228 19.2374 29.1246 19.0415C29.0212 18.8457 28.1941 16.9194 27.8494 16.1358C27.5138 15.3727 27.1728 15.4759 26.9189 15.464C26.6779 15.4526 26.4019 15.4502 26.1263 15.4502C25.8505 15.4502 25.4025 15.5481 25.0234 15.9399C24.6443 16.3317 23.5759 17.2785 23.5759 19.2048C23.5759 21.131 25.0578 22.992 25.2646 23.2532C25.4714 23.5144 28.181 27.4674 32.3298 29.1626C33.3166 29.5658 34.0869 29.8065 34.6876 29.987C35.6784 30.2848 36.58 30.2427 37.2926 30.142C38.0872 30.0297 39.7395 29.1952 40.0842 28.2811C40.4289 27.3669 40.4289 26.5833 40.3255 26.4201C40.2221 26.2569 39.9464 26.1589 39.5328 25.963Z" fill="white"/>
</g>
</g>
<defs>
<clipPath id="clip0_273_463">
<rect width="194" height="48.6515" fill="white"/>
</clipPath>
<clipPath id="clip1_273_463">
<rect width="39.4694" height="31.6083" fill="white" transform="translate(12.6307 7.58643)"/>
</clipPath>
<clipPath id="clip2_273_463">
<rect width="33.246" height="31.6083" fill="white" transform="translate(15.2943 7.02173)"/>
</clipPath>
</defs>
</svg>
