<svg width="194" height="161" viewBox="0 0 194 161" fill="none" xmlns="http://www.w3.org/2000/svg">
<path d="M132.211 63.4292H135.258V66.4765H132.211V63.4292Z" fill="#E0E0E0"/>
<path d="M124.845 63.5669H127.892V66.6142H124.845V63.5669Z" fill="#E0E0E0"/>
<path d="M169.975 118.923C167.791 117.798 165.223 117.652 162.801 118.052C161.5 118.269 160.145 118.657 159.257 119.636C158.369 120.616 158.207 122.333 159.224 123.171C159.828 123.672 160.67 123.747 161.454 123.738C163.351 123.717 165.456 123.384 166.969 124.522C167.836 125.176 168.412 126.256 169.441 126.577C170.471 126.898 171.597 126.294 172.13 125.381C172.623 124.431 172.732 123.328 172.435 122.3C172.312 121.586 172.027 120.909 171.6 120.324C171.174 119.738 170.617 119.259 169.975 118.923Z" fill="#FF725E"/>
<path d="M174.973 109.277C173.639 111.182 171.046 110.548 169.842 109.389C168.637 108.23 168.133 106.538 167.67 104.933C166.615 101.26 165.548 97.4293 166.336 93.6775C166.524 92.5444 167.021 91.4854 167.774 90.6177C168.154 90.1889 168.641 89.8677 169.184 89.6862C169.728 89.5047 170.31 89.4694 170.871 89.5838C172.18 89.9298 172.989 91.2096 173.577 92.431C175.308 96.0264 176.215 99.9629 176.232 103.953C176.232 105.808 176.02 107.755 174.982 109.289" fill="#FF725E"/>
<path d="M178.638 112.012C177.187 110.29 176.912 107.785 177.558 105.629C178.204 103.474 179.642 101.644 181.335 100.147C183.31 98.3908 185.608 97.0358 188.101 96.158C189.065 95.7668 190.104 95.5904 191.144 95.6411C191.663 95.6706 192.167 95.8265 192.613 96.0953C193.058 96.3641 193.431 96.7377 193.699 97.1835C194.412 98.5425 193.728 100.189 192.991 101.536C191.689 103.904 190.203 106.166 188.547 108.301C187.213 110.019 185.687 111.711 183.657 112.47C181.627 113.229 179.517 113.158 178.421 111.766" fill="#FF725E"/>
<path d="M175.061 138.016C174.992 137.733 174.951 137.444 174.94 137.153C174.882 136.519 174.802 135.732 174.711 134.789C174.594 133.625 174.418 132.467 174.181 131.321C173.873 129.927 173.455 128.56 172.931 127.232C172.413 125.906 171.712 124.66 170.846 123.53C170.14 122.611 169.237 121.862 168.203 121.337C167.499 120.995 166.745 120.767 165.969 120.662C165.678 120.65 165.389 120.608 165.106 120.537C165.397 120.504 165.691 120.504 165.981 120.537C166.785 120.598 167.571 120.801 168.303 121.137C169.39 121.651 170.342 122.408 171.088 123.35C171.991 124.496 172.72 125.769 173.252 127.127C173.789 128.478 174.207 129.873 174.502 131.296C174.727 132.456 174.881 133.628 174.965 134.806C175.04 135.811 175.065 136.624 175.082 137.186C175.105 137.463 175.098 137.741 175.061 138.016Z" fill="#263238"/>
<path d="M174.898 136.198C174.883 136.06 174.883 135.92 174.898 135.782V134.631C174.898 133.635 174.898 132.192 174.848 130.412C174.761 126.848 174.431 123.013 173.86 117.606C173.302 112.524 172.547 106.605 171.751 102.761C171.584 101.886 171.409 101.094 171.251 100.41C171.092 99.7264 170.963 99.1219 170.834 98.6383C170.705 98.1548 170.634 97.8046 170.563 97.5253C170.522 97.3899 170.498 97.2498 170.492 97.1084C170.556 97.2265 170.604 97.3527 170.634 97.4836C170.721 97.7712 170.83 98.1381 170.967 98.5841C171.105 99.0302 171.267 99.6513 171.438 100.343C171.609 101.035 171.809 101.815 171.997 102.686C172.979 107.229 173.719 111.821 174.215 116.443C174.807 121.862 175.073 126.794 175.098 130.362C175.098 132.151 175.098 133.597 175.036 134.593C175.007 135.06 174.982 135.427 174.965 135.74C174.964 135.895 174.941 136.049 174.898 136.198Z" fill="#263238"/>
<path d="M174.878 126.685C174.846 126.286 174.846 125.884 174.878 125.485C174.945 124.395 175.068 123.31 175.244 122.233C175.506 120.636 175.858 119.055 176.299 117.498C176.819 115.586 177.485 113.717 178.292 111.907C179.672 108.559 181.649 105.489 184.128 102.849C184.557 102.397 185.014 101.973 185.495 101.577C185.708 101.402 185.891 101.223 186.083 101.085L186.612 100.718C186.921 100.472 187.249 100.25 187.592 100.056C187.65 100.131 186.162 101.01 184.282 103.007C181.895 105.672 179.979 108.724 178.617 112.032C177.831 113.837 177.165 115.692 176.624 117.585C176.107 119.328 175.761 120.92 175.503 122.275C175.244 123.63 175.111 124.73 175.023 125.497C175.003 125.896 174.954 126.293 174.878 126.685Z" fill="#263238"/>
<path d="M184.07 143.469L183.119 156.529H166.34L165.385 143.469H184.07Z" fill="#263238"/>
<path d="M163.384 138.32H185.691V143.468H163.384V138.32Z" fill="#263238"/>
<path d="M185.691 156.029V157.455H184.645H163.751V156.029H185.691Z" fill="#455A64"/>
<path d="M183.615 159.969L184.645 157.455H164.552L165.752 159.969H183.615Z" fill="#455A64"/>
<path d="M165.698 147.758C165.719 147.801 165.746 147.84 165.777 147.875C165.844 147.967 165.923 148.075 166.027 148.208L167.003 149.459L167.049 149.517L167.09 149.459L169.492 146.124H169.354L171.718 149.459L171.793 149.563L171.876 149.467L174.677 146.132H174.515C174.565 146.191 174.619 146.258 174.669 146.324L177.17 149.467L177.254 149.572L177.329 149.463L179.697 146.128H179.559C180.722 147.458 181.714 148.584 182.477 149.463L182.527 149.522L182.565 149.455C182.952 148.813 183.257 148.296 183.478 147.925C183.573 147.758 183.653 147.625 183.711 147.508C183.743 147.463 183.768 147.414 183.786 147.362C183.786 147.362 183.749 147.404 183.686 147.491L183.428 147.883L182.469 149.388H182.56L179.697 146.028L179.622 145.945L179.559 146.037L177.17 149.372H177.337L174.836 146.224L174.682 146.032L174.598 145.932L174.519 146.028C173.535 147.2 172.593 148.329 171.722 149.363H171.88L169.492 146.028L169.421 145.932L169.354 146.028L167.003 149.388H167.086L166.069 148.175L165.798 147.858C165.734 147.772 165.701 147.739 165.698 147.758Z" fill="#E0E0E0"/>
<path d="M165.152 143.381C165.152 143.439 169.358 143.485 174.54 143.485C179.722 143.485 183.932 143.439 183.932 143.381C183.932 143.323 179.73 143.277 174.54 143.277C169.35 143.277 165.152 143.323 165.152 143.381Z" fill="#455A64"/>
<path d="M164.306 157.596C164.306 157.655 168.891 157.701 174.511 157.701C180.13 157.701 184.716 157.655 184.716 157.596C184.716 157.538 180.13 157.492 174.511 157.492C168.891 157.492 164.306 157.538 164.306 157.596Z" fill="#263238"/>
<path d="M49.5659 104.866H10.5759C8.90314 104.866 7.29887 105.531 6.11602 106.714C4.93318 107.896 4.26866 109.501 4.26866 111.173V160.206H55.8607V111.173C55.8607 109.503 55.1979 107.9 54.0177 106.718C52.8376 105.536 51.2365 104.87 49.5659 104.866Z" fill="#455A64"/>
<path d="M8.61256 105.149C8.55003 105.149 8.50417 117.468 8.50417 132.663C8.50417 147.858 8.55003 160.176 8.61256 160.176C8.67509 160.176 8.72095 147.858 8.72095 132.663C8.72095 117.468 8.67092 105.149 8.61256 105.149Z" fill="#263238"/>
<path d="M34.0333 44.7908C29.2885 51.5837 26.568 59.5832 26.1878 67.8604C25.946 73.4048 26.6922 79.3119 24.0617 84.1976C20.2849 91.2094 12.1184 90.9718 9.61715 98.5296C8.52911 101.819 10.5343 109.051 11.0762 112.474C11.689 116.359 9.31283 119.623 9.92563 123.513C10.4884 127.077 13.1564 129.62 16.3579 131.279C19.2093 132.755 21.844 132.796 24.8079 131.567C30.4607 129.228 35.163 126.76 39.1858 122.158C44.8386 115.696 46.5478 106.734 47.5233 98.217C49.6519 79.3822 49.2214 60.346 46.2435 41.6267" fill="#263238"/>
<path d="M21.9482 132.363C21.8895 132.344 21.8296 132.329 21.769 132.317C21.6481 132.288 21.4646 132.259 21.2312 132.188C19.4728 131.71 17.8967 130.718 16.704 129.341C16.2552 128.815 15.9126 128.208 15.6951 127.552C15.4871 126.806 15.3682 126.038 15.3408 125.264C15.3105 123.478 15.4924 121.695 15.8827 119.953C16.2454 118.06 16.7165 116.042 16.8582 113.854C16.9271 112.737 16.8472 111.615 16.6206 110.519C16.3593 109.38 16.0052 108.265 15.5617 107.184C15.1078 106.075 14.7098 104.944 14.3695 103.795C14.0161 102.62 13.9166 101.384 14.0777 100.168C14.2719 98.958 14.7349 97.807 15.4325 96.7996C16.1144 95.8192 16.9075 94.9211 17.7962 94.1233C19.5178 92.5142 21.3813 91.2052 22.9737 89.6961C25.8146 87.0673 28.1069 83.9022 29.7187 80.3832C30.3433 79.0361 30.8618 77.6423 31.2695 76.2145C31.4696 75.5934 31.5863 74.9931 31.728 74.4511C31.8697 73.9092 31.9323 73.4006 32.024 72.9504C32.1532 72.0374 32.2533 71.3329 32.2783 70.866C32.2783 70.6326 32.3116 70.4492 32.32 70.3158C32.3283 70.1824 32.32 70.1282 32.32 70.1282C32.32 70.1282 32.32 70.1907 32.2908 70.3158C32.2616 70.4408 32.2533 70.6284 32.2241 70.8619C32.1866 71.3413 32.074 72.0458 31.9323 72.9462C31.8364 73.3964 31.7322 73.8967 31.6196 74.4428C31.5071 74.9889 31.3528 75.5725 31.1444 76.1937C30.7259 77.6072 30.2005 78.9868 29.5728 80.3207C27.9498 83.8077 25.6598 86.9431 22.832 89.5502C21.2479 91.0259 19.3803 92.3474 17.6419 93.9649C16.7414 94.7745 15.9371 95.6851 15.2449 96.6787C14.529 97.7136 14.0546 98.896 13.8567 100.139C13.6903 101.384 13.7912 102.65 14.1527 103.853C14.4779 105.037 14.9323 106.158 15.3533 107.259C15.7932 108.327 16.1473 109.428 16.4122 110.552C16.6373 111.633 16.7172 112.739 16.6498 113.841C16.5372 116.001 16.0536 118.01 15.6951 119.915C15.3115 121.673 15.1379 123.469 15.1782 125.268C15.2133 126.055 15.3392 126.836 15.5534 127.594C15.785 128.261 16.14 128.879 16.5998 129.416C17.335 130.269 18.23 130.97 19.2344 131.479C19.8603 131.811 20.5256 132.064 21.2145 132.229C21.4553 132.293 21.7006 132.337 21.9482 132.363Z" fill="#455A64"/>
<path d="M99.5654 147.258L79.5556 137.757C79.5556 137.757 71.7643 99.9261 70.2885 97.0872C68.8128 94.2483 62.6598 91.793 62.6598 91.793L63.6895 143.018L65.5237 154.845L93.7376 157.517L99.5654 147.258Z" fill="#FF725E"/>
<path d="M116.636 156.22C116.749 156.22 117.303 156.562 116.841 157.442C116.378 158.321 112.985 161.227 111.988 160.214C110.992 159.201 112.513 157.967 112.513 157.967L116.636 156.22Z" fill="#FFBE9D"/>
<path d="M112.372 158.005C112.372 158.005 108.278 158.521 106.706 159.122C104.993 159.772 102.909 159.326 101.508 158.38C100.712 157.85 99.9693 157.244 99.2903 156.57L94.0711 156.487C93.3208 155.609 92.8285 154.539 92.649 153.398C92.4694 152.257 92.6096 151.088 93.0539 150.021C93.3333 149.279 93.7364 148.59 94.2462 147.983C94.8673 147.312 95.847 146.77 97.5394 146.478L103.738 147.816C103.738 147.816 113.326 147.128 115.052 147.937C115.052 147.937 117.199 149.209 117.862 149.742C118.112 149.946 118.875 152.389 117.312 153.661C117.312 153.661 118.671 154.74 117.933 155.712L117.583 156.129C117.583 156.129 118.496 157.313 118.025 157.829C117.553 158.346 113.439 160.748 111.976 160.181C110.512 159.614 111.721 158.242 112.372 157.992" fill="#FFBE9D"/>
<path d="M116.282 151.547C116.109 151.598 115.939 151.66 115.773 151.731C115.452 151.852 114.981 152.027 114.389 152.214C114.098 152.31 113.772 152.406 113.418 152.498C113.064 152.59 112.684 152.669 112.288 152.798C111.858 152.916 111.468 153.151 111.163 153.477C110.995 153.658 110.878 153.881 110.825 154.122C110.772 154.363 110.785 154.614 110.863 154.849C110.961 155.085 111.139 155.279 111.367 155.395C111.581 155.5 111.813 155.565 112.051 155.587C112.487 155.613 112.925 155.589 113.356 155.516C114.077 155.399 114.786 155.215 115.473 154.966C116.061 154.757 116.524 154.549 116.845 154.424C117.015 154.362 117.178 154.284 117.332 154.19C117.158 154.237 116.987 154.294 116.82 154.361C116.495 154.478 116.024 154.657 115.436 154.849C114.757 155.079 114.06 155.251 113.351 155.362C112.938 155.427 112.519 155.446 112.101 155.42C111.885 155.401 111.674 155.341 111.48 155.245C111.291 155.146 111.143 154.984 111.063 154.786C110.995 154.584 110.982 154.367 111.025 154.158C111.067 153.949 111.164 153.754 111.305 153.594C111.589 153.29 111.95 153.07 112.351 152.956C112.734 152.827 113.118 152.744 113.468 152.644C113.818 152.544 114.148 152.439 114.439 152.339C115.031 152.135 115.494 151.923 115.811 151.802C115.976 151.732 116.133 151.647 116.282 151.547Z" fill="#EB996E"/>
<path d="M115.915 148.592C115.743 148.64 115.574 148.701 115.411 148.775C115.086 148.9 114.619 149.08 114.035 149.271C113.451 149.463 112.747 149.688 111.951 149.867C111.514 149.936 111.099 150.104 110.738 150.359C110.546 150.518 110.42 150.743 110.383 150.989C110.347 151.237 110.383 151.49 110.488 151.718C110.593 151.936 110.743 152.129 110.928 152.285C111.112 152.442 111.327 152.558 111.559 152.627C111.98 152.764 112.427 152.8 112.864 152.731C113.575 152.589 114.272 152.385 114.948 152.123L116.328 151.639C116.499 151.586 116.666 151.52 116.828 151.443C116.651 151.473 116.477 151.517 116.307 151.577L114.911 151.993C114.231 152.235 113.534 152.425 112.826 152.56C112.413 152.62 111.992 152.582 111.596 152.452C111.386 152.388 111.191 152.28 111.024 152.137C110.856 151.993 110.721 151.817 110.625 151.618C110.527 151.429 110.493 151.212 110.53 151.002C110.567 150.792 110.672 150.6 110.829 150.455C111.171 150.217 111.561 150.059 111.972 149.992C112.768 149.792 113.472 149.576 114.056 149.359C114.64 149.142 115.098 148.942 115.415 148.809C115.587 148.75 115.755 148.677 115.915 148.592Z" fill="#EB996E"/>
<path d="M113.943 149.425C114.029 149.153 114.091 148.874 114.131 148.592C114.225 148.321 114.293 148.042 114.335 147.758C114.136 147.975 114.007 148.246 113.964 148.537C113.86 148.823 113.853 149.135 113.943 149.425Z" fill="#EB996E"/>
<path d="M99.5071 149.559L103.155 148.175C103.155 148.175 113.281 143.448 113.451 143.706C113.622 143.964 114.173 143.931 114.052 145.165C113.931 146.399 108.032 148.892 107.845 149.334C107.657 149.776 107.97 151.927 105.789 153.473C103.609 155.02 102.038 155.057 102.038 155.057" fill="#FFBE9D"/>
<path d="M102.037 155.02H102.133L102.383 154.995C102.705 154.944 103.021 154.867 103.33 154.765C104.466 154.378 105.517 153.774 106.423 152.985C107.036 152.411 107.471 151.671 107.674 150.855C107.778 150.407 107.851 149.951 107.89 149.492C107.897 149.439 107.91 149.388 107.928 149.338C107.952 149.297 107.984 149.263 108.024 149.238C108.119 149.169 108.218 149.105 108.32 149.046C108.524 148.925 108.737 148.808 108.962 148.692C109.837 148.221 110.775 147.75 111.717 147.208C112.2 146.935 112.669 146.639 113.122 146.32C113.357 146.155 113.577 145.971 113.781 145.769C113.889 145.666 113.983 145.548 114.06 145.419C114.101 145.348 114.13 145.271 114.143 145.19C114.152 145.115 114.152 145.04 114.143 144.965C114.177 144.663 114.123 144.358 113.989 144.085C113.906 143.957 113.797 143.847 113.668 143.764C113.616 143.73 113.568 143.69 113.526 143.643C113.526 143.643 113.526 143.643 113.493 143.606C113.473 143.59 113.448 143.583 113.422 143.585C113.399 143.582 113.375 143.582 113.351 143.585L113.239 143.614C112.693 143.781 112.188 144.002 111.684 144.21C110.683 144.627 109.729 145.044 108.82 145.461C106.998 146.295 105.372 147.037 104.005 147.679C103.663 147.833 103.342 147.996 103.034 148.129L102.142 148.479L100.712 149.046L99.8114 149.409L99.5821 149.509C99.5279 149.509 99.5029 149.542 99.5029 149.546C99.5029 149.55 99.5321 149.546 99.5862 149.521L99.8239 149.442L100.737 149.104L102.179 148.592L103.08 148.254C103.396 148.125 103.717 147.966 104.059 147.812L108.887 145.632C109.8 145.215 110.754 144.798 111.755 144.381C112.255 144.177 112.764 143.964 113.289 143.793L113.381 143.773H113.414C113.414 143.773 113.414 143.748 113.414 143.731C113.297 143.806 113.385 143.756 113.36 143.773C113.409 143.834 113.469 143.888 113.535 143.931C113.646 143.999 113.74 144.092 113.81 144.202C113.927 144.447 113.973 144.72 113.943 144.99C113.946 145.12 113.916 145.249 113.856 145.365C113.786 145.481 113.702 145.587 113.606 145.682C113.408 145.876 113.195 146.053 112.968 146.211C112.518 146.536 112.047 146.82 111.58 147.091C110.642 147.633 109.712 148.108 108.832 148.579C108.612 148.7 108.416 148.817 108.186 148.946C108.079 149.007 107.974 149.074 107.874 149.146C107.813 149.187 107.764 149.243 107.732 149.309C107.711 149.369 107.697 149.432 107.69 149.496C107.651 149.95 107.582 150.401 107.486 150.847C107.295 151.641 106.882 152.364 106.294 152.931C105.405 153.717 104.377 154.33 103.263 154.736C102.96 154.843 102.649 154.928 102.333 154.991C102.225 155.016 102.142 155.024 102.083 155.032L102.037 155.02Z" fill="#EB996E"/>
<path d="M113.206 155.495C113.071 155.511 112.94 155.549 112.818 155.608C112.475 155.745 112.154 155.931 111.863 156.158C111.661 156.316 111.476 156.497 111.313 156.696C111.21 156.808 111.131 156.939 111.081 157.083C111.03 157.226 111.008 157.378 111.017 157.529C111.05 157.702 111.131 157.862 111.251 157.991C111.37 158.119 111.523 158.212 111.692 158.259C112.041 158.354 112.409 158.343 112.751 158.226C113.911 157.882 115.036 157.432 116.111 156.879C116.435 156.71 116.75 156.524 117.053 156.321C117.17 156.254 117.278 156.172 117.374 156.079C117.25 156.128 117.131 156.189 117.02 156.262C116.795 156.391 116.47 156.571 116.057 156.771C114.98 157.285 113.865 157.717 112.722 158.063C112.41 158.171 112.074 158.184 111.755 158.101C111.615 158.064 111.487 157.989 111.386 157.885C111.286 157.78 111.216 157.65 111.184 157.509C111.175 157.375 111.192 157.24 111.235 157.113C111.278 156.985 111.345 156.868 111.434 156.767C111.587 156.572 111.76 156.395 111.951 156.237C112.336 155.938 112.758 155.689 113.206 155.495Z" fill="#EB996E"/>
<g opacity="0.3">
<path opacity="0.3" d="M65.6655 154.845C68.9421 143.793 71.831 129.562 75.1076 118.51C76.3082 128.711 74.8075 142.18 72.9316 152.277C72.7106 153.461 72.6106 154.62 71.6809 155.399L65.6655 154.845Z" fill="black"/>
</g>
<path d="M71.0306 147.258C71.0765 147.258 71.214 146.537 71.6601 145.432C71.9224 144.788 72.236 144.166 72.5981 143.573C73.0501 142.852 73.5663 142.174 74.1405 141.547C74.7232 140.926 75.3624 140.361 76.0498 139.858C76.6133 139.451 77.2102 139.091 77.834 138.783C78.9012 138.258 79.6182 138.066 79.6057 138.024C79.432 138.045 79.2613 138.085 79.0971 138.145C78.8996 138.195 78.7059 138.259 78.5176 138.337C78.2622 138.426 78.0117 138.529 77.7673 138.645C77.1253 138.939 76.5114 139.291 75.933 139.696C75.2277 140.198 74.5729 140.768 73.9779 141.397C73.3951 142.04 72.8758 142.738 72.4271 143.481C72.0671 144.088 71.7615 144.725 71.5142 145.386C71.4016 145.665 71.3349 145.928 71.2641 146.157C71.1998 146.352 71.1497 146.551 71.114 146.753C71.0701 146.919 71.0422 147.087 71.0306 147.258Z" fill="#263238"/>
<path d="M64.7858 91.2761C64.7858 91.2761 75.2618 114.683 75.2618 118.994C75.2618 123.304 67.4121 153.148 67.4121 153.148C67.4872 154.336 67.7915 160.285 67.7915 160.285L23.774 160.439L23.1029 150.976L26.5379 141.959L23.107 116.468C23.107 116.468 20.7976 101.669 20.6058 97.5292C20.3474 92.3516 37.8893 86.3487 37.4099 85.6316L40.4364 81.563L57.7824 95.6491L61.2133 85.7442L65.3236 89.6253L64.7858 91.2761Z" fill="#FF725E"/>
<path d="M35.9593 97.504C40.7241 105.562 49.4409 120.244 49.4409 120.244L65.0652 138.061C65.0652 138.061 66.0866 147.112 64.0439 149.888C62.0012 152.664 58.4953 154.561 58.4953 154.561C58.4953 154.561 54.3725 154.561 49.1324 150.18C43.8923 145.799 29.4394 127.694 29.4394 127.694L24.4745 121.703C24.4745 121.703 18.5549 107.163 19.6596 99.7635C20.0765 96.9079 21.3021 95.724 22.9196 94.415C26.9924 91.1342 33.2955 92.9977 35.9593 97.504Z" fill="#FF725E"/>
<path d="M22.636 116.659C22.6571 116.717 22.6822 116.772 22.7111 116.826C22.7653 116.943 22.8445 117.097 22.9404 117.301C23.1488 117.718 23.4656 118.323 23.8992 119.09C24.7621 120.628 26.1044 122.8 27.8553 125.422C28.7349 126.731 29.7145 128.153 30.7942 129.662C31.8739 131.171 33.0995 132.726 34.1083 134.543C35.1172 136.361 36.0343 138.345 37.139 140.329C38.2739 142.385 39.6043 144.327 41.1118 146.128C42.6196 147.936 44.3935 149.505 46.3727 150.78C48.2274 151.964 50.2993 152.766 52.4673 153.14C54.4297 153.488 56.4444 153.403 58.3702 152.89C59.2418 152.654 60.0817 152.314 60.8715 151.877C61.6065 151.489 62.2971 151.022 62.9308 150.484C63.512 150.003 64.0327 149.453 64.4816 148.846C64.8858 148.307 65.2297 147.726 65.5071 147.112C65.9356 146.125 66.2165 145.079 66.3408 144.01C66.4124 143.336 66.4361 142.658 66.4117 141.98C66.4117 141.755 66.3867 141.563 66.3783 141.451C66.3826 141.391 66.3826 141.331 66.3783 141.272C66.3738 141.331 66.3738 141.391 66.3783 141.451C66.3783 141.58 66.3783 141.755 66.3783 141.98C66.3864 142.654 66.3501 143.328 66.27 143.998C66.13 145.056 65.8379 146.088 65.4029 147.062C65.1226 147.664 64.7788 148.234 64.3774 148.763C63.9306 149.359 63.4126 149.898 62.8349 150.368C62.207 150.895 61.5235 151.352 60.7964 151.731C60.0175 152.157 59.1904 152.489 58.3327 152.719C56.4267 153.217 54.4352 153.293 52.4965 152.944C50.3574 152.569 48.3141 151.772 46.4852 150.601C44.5238 149.335 42.7655 147.779 41.2702 145.986C39.7715 144.198 38.4494 142.268 37.3224 140.225C36.2177 138.253 35.3256 136.252 34.2793 134.443C33.2574 132.754 32.1441 131.121 30.9443 129.553C29.8604 128.053 28.8599 126.635 27.9887 125.335C26.2211 122.729 24.8621 120.57 23.9784 119.048C23.5323 118.285 23.203 117.689 22.9862 117.281L22.7319 116.814C22.7059 116.759 22.6737 116.707 22.636 116.659Z" fill="#263238"/>
<path d="M65.8656 137.265C65.8656 137.294 66.0866 137.432 66.3742 137.753C66.7572 138.159 66.9931 138.682 67.0445 139.238C67.0959 139.794 66.9597 140.351 66.6577 140.821C66.4367 141.188 66.2408 141.367 66.2408 141.392C66.2408 141.417 66.5034 141.275 66.7786 140.909C67.138 140.422 67.3057 139.821 67.2495 139.218C67.1934 138.616 66.9174 138.056 66.4743 137.644C66.3128 137.461 66.1012 137.329 65.8656 137.265Z" fill="#263238"/>
<path d="M62.9767 141.993C62.8929 142.004 62.8105 142.023 62.7307 142.051L62.4389 142.13L62.022 142.205C61.156 142.319 60.2754 142.237 59.4458 141.963C58.2114 141.55 57.076 140.886 56.1108 140.012C54.9638 138.912 53.9239 137.704 53.0051 136.407C52.0718 135.098 50.9967 133.897 49.7994 132.826C49.2324 132.35 48.678 131.929 48.2153 131.475C47.7746 131.071 47.4201 130.581 47.1731 130.037C47.0075 129.639 46.9426 129.206 46.984 128.777C47.0255 128.348 47.172 127.936 47.4107 127.577C47.612 127.33 47.8712 127.137 48.1652 127.014C48.0825 127.03 48.0015 127.054 47.9235 127.085C47.6988 127.186 47.5005 127.337 47.344 127.527C47.0799 127.894 46.9124 128.322 46.857 128.771C46.8016 129.219 46.8602 129.675 47.0272 130.095C47.2755 130.664 47.6356 131.177 48.086 131.604C48.5571 132.071 49.1157 132.505 49.6701 132.98C50.8477 134.05 51.907 135.244 52.83 136.54C53.7598 137.849 54.8153 139.063 55.9816 140.167C56.9671 141.045 58.1259 141.707 59.3833 142.109C60.2364 142.376 61.1406 142.438 62.022 142.289L62.4389 142.193C62.5556 142.159 62.6515 142.118 62.7266 142.093C62.8136 142.069 62.8976 142.036 62.9767 141.993Z" fill="#263238"/>
<path d="M33.8374 95.0278C33.8901 95.1151 33.9486 95.1986 34.0125 95.2779C34.1501 95.453 34.3251 95.6948 34.5461 95.9741C35.0213 96.5661 35.6758 97.4498 36.4762 98.5504C38.5162 101.442 40.3722 104.459 42.0331 107.584C44.0007 111.236 45.6265 114.625 46.873 117.043C47.4899 118.256 47.9985 119.231 48.3695 119.898L48.7739 120.661C48.8193 120.753 48.8738 120.839 48.9365 120.92C48.9051 120.823 48.8646 120.729 48.8156 120.64L48.4237 119.853L46.9939 116.972C45.7849 114.533 44.1758 111.136 42.2082 107.476C40.5455 104.341 38.665 101.326 36.5804 98.4545C35.7467 97.3665 35.0922 96.4911 34.5961 95.9158L34.0292 95.2446C33.9734 95.1656 33.9091 95.0929 33.8374 95.0278Z" fill="#263238"/>
<g opacity="0.3">
<path opacity="0.3" d="M66.3658 141.271C64.3357 142.372 62.1012 142.255 59.8335 141.813C57.5438 141.356 55.4823 140.122 53.9973 138.32C54.3403 140.326 55.2803 142.183 56.6944 143.647C58.1368 145.061 60.2295 145.878 62.2138 145.515C64.1981 145.152 66.2074 143.285 66.3825 141.271" fill="black"/>
</g>
<g opacity="0.3">
<path opacity="0.3" d="M47.148 129.241C45.8594 131.227 45.4097 133.643 45.8974 135.96C44.1757 133.326 43.7713 129.991 44.2299 126.877C44.6885 123.763 45.9599 120.824 47.3689 118.01C47.3689 118.01 48.9197 120.636 48.9364 120.928C49.0114 122.446 48.4528 125.297 48.161 126.785C47.7717 127.159 47.4814 127.623 47.3162 128.137C47.1511 128.651 47.1162 129.198 47.2147 129.728" fill="black"/>
</g>
<g opacity="0.3">
<path opacity="0.3" d="M59.4792 152.177C55.3355 155.408 49.1866 155.558 44.6552 152.906C40.2906 150.351 37.6018 145.749 35.1089 141.351C31.2445 134.539 26.5338 126.114 23.7741 118.785C23.7741 118.785 31.5071 129.336 33.8374 133.884C35.391 136.959 37.1543 139.923 39.115 142.756C41.3337 145.947 44.3333 148.517 47.8275 150.219C51.3217 151.922 55.194 152.701 59.0748 152.481" fill="black"/>
</g>
<path d="M67.7915 160.264C67.7982 160.221 67.7982 160.178 67.7915 160.135C67.7915 160.035 67.7915 159.91 67.7915 159.755C67.7915 159.401 67.7623 158.922 67.7373 158.309C67.679 157.058 67.5998 155.266 67.4997 153.127V153.177C68.2459 150.676 69.1213 147.641 70.0301 144.365C71.2307 140.021 72.2437 136.069 72.9274 133.197C73.265 131.763 73.5318 130.595 73.6986 129.787C73.7778 129.399 73.8403 129.086 73.8862 128.857C73.9108 128.748 73.9289 128.638 73.9404 128.528C73.8982 128.63 73.8661 128.736 73.8445 128.844L73.6152 129.77C73.411 130.604 73.1275 131.746 72.7815 133.159C72.0603 136.023 71.0223 139.967 69.8217 144.306C68.9171 147.583 68.0542 150.618 67.3205 153.123V153.152C67.4497 155.291 67.5581 157.071 67.6373 158.338C67.679 158.943 67.7123 159.426 67.7373 159.78C67.7373 159.931 67.7623 160.056 67.7707 160.156C67.773 160.192 67.78 160.229 67.7915 160.264Z" fill="#263238"/>
<path d="M23.7615 94.1733C23.7615 94.2066 24.2117 94.0482 24.9329 93.869C25.8735 93.6318 26.836 93.4921 27.8052 93.4521C28.7747 93.4255 29.7444 93.5009 30.6982 93.6772C31.4319 93.8148 31.878 93.9398 31.8863 93.9065C31.7937 93.8469 31.6925 93.8019 31.5862 93.7731C31.3057 93.6764 31.0205 93.5943 30.7316 93.5271C29.7756 93.304 28.7947 93.2059 27.8135 93.2353C26.8248 93.265 25.844 93.4219 24.8954 93.7022C24.6115 93.7848 24.333 93.885 24.0617 94.0023C23.8532 94.1066 23.7615 94.1566 23.7615 94.1733Z" fill="#263238"/>
<path d="M37.6975 86.478C37.7277 86.5539 37.7654 86.6265 37.8101 86.6948L38.1644 87.2909C38.4771 87.8079 38.9398 88.5415 39.5276 89.4545C40.7073 91.2595 42.3957 93.7233 44.3925 96.3412C45.9974 98.4547 47.5524 100.352 48.8238 101.836L48.9155 101.94L48.9697 101.815C49.5784 100.489 50.0786 99.3885 50.4413 98.5923C50.6039 98.2255 50.7331 97.9253 50.8373 97.696C50.8885 97.5935 50.929 97.4859 50.9582 97.375C50.8912 97.4691 50.834 97.5696 50.7873 97.6752C50.6747 97.9003 50.533 98.1921 50.3496 98.5506C49.9702 99.3385 49.445 100.427 48.8155 101.744L48.9572 101.723C47.7066 100.222 46.1683 98.3213 44.5634 96.212C42.5707 93.594 40.8699 91.1512 39.6568 89.3669L38.2353 87.2451L37.8476 86.6698C37.8063 86.5995 37.7558 86.535 37.6975 86.478Z" fill="#263238"/>
<path d="M27.5634 153.707C27.6259 153.707 27.4342 151.535 27.1465 148.871C26.8589 146.207 26.5629 144.056 26.5046 144.064C26.4462 144.073 26.638 146.232 26.9214 148.896C27.2049 151.56 27.5134 153.711 27.5634 153.707Z" fill="#263238"/>
<path d="M57.7366 153.135C57.4997 154.336 57.3341 155.55 57.2405 156.771C57.0718 157.982 56.9785 159.203 56.9612 160.427C57.1956 159.225 57.3613 158.012 57.4573 156.791C57.621 155.579 57.7143 154.359 57.7366 153.135Z" fill="#263238"/>
<path d="M35.4716 105.525C35.4918 105.442 35.5316 105.365 35.5875 105.301C35.6434 105.237 35.7139 105.187 35.7931 105.155C35.8723 105.124 35.9578 105.112 36.0426 105.12C36.1274 105.129 36.2089 105.157 36.2803 105.204L36.3095 105.229C36.3749 105.287 36.4239 105.361 36.4518 105.444C36.4798 105.527 36.4856 105.616 36.4687 105.702C36.4519 105.788 36.4129 105.868 36.3557 105.934C36.2985 106.001 36.225 106.051 36.1425 106.08C36.0599 106.11 35.9712 106.117 35.885 106.102C35.7988 106.086 35.718 106.049 35.6508 105.992C35.5835 105.936 35.532 105.864 35.5013 105.782C35.4706 105.7 35.4618 105.611 35.4758 105.525H35.4716Z" fill="white"/>
<path d="M39.8195 94.9279C39.8397 94.8452 39.8794 94.7685 39.9354 94.7042C39.9913 94.64 40.0618 94.5901 40.141 94.5586C40.2201 94.5272 40.3057 94.5152 40.3904 94.5236C40.4752 94.532 40.5567 94.5606 40.6282 94.6069L40.6532 94.6319C40.7186 94.6902 40.7676 94.7646 40.7955 94.8476C40.8234 94.9306 40.8293 95.0195 40.8124 95.1054C40.7956 95.1914 40.7566 95.2714 40.6994 95.3378C40.6422 95.4041 40.5687 95.4544 40.4862 95.4837C40.4036 95.513 40.3149 95.5203 40.2287 95.5049C40.1424 95.4895 40.0617 95.4519 39.9944 95.3958C39.9272 95.3397 39.8756 95.2671 39.845 95.185C39.8143 95.103 39.8055 95.0144 39.8195 94.9279Z" fill="white"/>
<path d="M49.7952 103.461C49.8154 103.378 49.8552 103.302 49.9111 103.237C49.967 103.173 50.0375 103.123 50.1167 103.092C50.1959 103.06 50.2814 103.048 50.3662 103.057C50.4509 103.065 50.5325 103.094 50.6039 103.14H50.629C50.6943 103.198 50.7434 103.272 50.7715 103.355C50.7995 103.438 50.8056 103.527 50.789 103.613C50.7724 103.699 50.7338 103.779 50.6769 103.845C50.6201 103.912 50.5469 103.962 50.4646 103.992C50.3823 104.021 50.2937 104.029 50.2075 104.014C50.1214 103.999 50.0406 103.962 49.973 103.906C49.9055 103.851 49.8536 103.779 49.8225 103.697C49.7913 103.615 49.7819 103.527 49.7952 103.44V103.461Z" fill="white"/>
<path d="M60.5797 99.1757C60.5993 99.093 60.6386 99.0163 60.6941 98.952C60.7496 98.8877 60.8197 98.8377 60.8986 98.8062C60.9775 98.7748 61.0628 98.7627 61.1474 98.7712C61.2319 98.7796 61.3131 98.8082 61.3843 98.8547L61.4135 98.8797C61.4788 98.938 61.5279 99.0123 61.5558 99.0953C61.5837 99.1784 61.5895 99.2672 61.5727 99.3532C61.5558 99.4391 61.5169 99.5192 61.4596 99.5855C61.4024 99.6519 61.329 99.7022 61.2464 99.7315C61.1639 99.7608 61.0751 99.7681 60.9889 99.7527C60.9027 99.7372 60.822 99.6996 60.7547 99.6436C60.6874 99.5875 60.6359 99.5148 60.6052 99.4328C60.5745 99.3508 60.5657 99.2621 60.5797 99.1757Z" fill="white"/>
<path d="M62.4848 94.9528C62.505 94.8701 62.5448 94.7934 62.6007 94.7291C62.6566 94.6649 62.7271 94.615 62.8063 94.5835C62.8855 94.5521 62.971 94.5401 63.0558 94.5485C63.1406 94.5569 63.2221 94.5855 63.2935 94.6318L63.3227 94.6568C63.39 94.7151 63.4408 94.7899 63.47 94.8739C63.4993 94.9579 63.5061 95.0481 63.4896 95.1355C63.4731 95.2229 63.434 95.3045 63.3762 95.372C63.3183 95.4396 63.2438 95.4908 63.1599 95.5206C63.0761 95.5504 62.986 95.5576 62.8985 95.5416C62.811 95.5257 62.7292 95.487 62.6613 95.4296C62.5934 95.3721 62.5417 95.2978 62.5115 95.2142C62.4813 95.1305 62.4735 95.0404 62.489 94.9528H62.4848Z" fill="white"/>
<path d="M61.6551 90.0754C61.6754 89.9926 61.7151 89.9159 61.771 89.8517C61.827 89.7874 61.8975 89.7375 61.9766 89.7061C62.0558 89.6747 62.1414 89.6627 62.2261 89.6711C62.3109 89.6795 62.3924 89.708 62.4639 89.7544L62.4931 89.7752C62.5584 89.8334 62.6075 89.9075 62.6356 89.9903C62.6637 90.0732 62.6697 90.1619 62.6531 90.2478C62.6366 90.3336 62.5979 90.4137 62.5411 90.4802C62.4842 90.5466 62.411 90.5971 62.3287 90.6268C62.2464 90.6564 62.1578 90.6641 62.0717 90.6492C61.9855 90.6342 61.9047 90.5971 61.8372 90.5415C61.7696 90.4859 61.7178 90.4137 61.6866 90.332C61.6554 90.2503 61.646 90.1618 61.6593 90.0754H61.6551Z" fill="white"/>
<path d="M67.629 96.7873C67.6492 96.7046 67.6889 96.6278 67.7449 96.5636C67.8008 96.4994 67.8713 96.4494 67.9505 96.418C68.0296 96.3866 68.1152 96.3746 68.2 96.383C68.2847 96.3914 68.3662 96.4199 68.4377 96.4663L68.4669 96.4872C68.5322 96.5453 68.5814 96.6194 68.6094 96.7022C68.6375 96.7851 68.6435 96.8738 68.6269 96.9597C68.6104 97.0455 68.5718 97.1256 68.5149 97.1921C68.458 97.2585 68.3848 97.309 68.3025 97.3387C68.2202 97.3683 68.1317 97.376 68.0455 97.3611C67.9593 97.3461 67.8785 97.309 67.811 97.2534C67.7435 97.1978 67.6916 97.1256 67.6604 97.0439C67.6292 96.9622 67.6198 96.8737 67.6331 96.7873H67.629Z" fill="white"/>
<path d="M53.7763 98.7213C53.796 98.6387 53.8352 98.562 53.8907 98.4977C53.9462 98.4334 54.0164 98.3834 54.0953 98.3519C54.1742 98.3204 54.2595 98.3084 54.344 98.3168C54.4285 98.3253 54.5098 98.3539 54.5809 98.4003L54.6101 98.4254C54.6754 98.4837 54.7245 98.558 54.7524 98.641C54.7803 98.724 54.7861 98.8129 54.7693 98.8988C54.7524 98.9848 54.7135 99.0649 54.6563 99.1312C54.5991 99.1975 54.5256 99.2478 54.443 99.2771C54.3605 99.3064 54.2718 99.3137 54.1855 99.2983C54.0993 99.2829 54.0186 99.2453 53.9513 99.1892C53.884 99.1331 53.8325 99.0605 53.8018 98.9785C53.7712 98.8964 53.7624 98.8078 53.7763 98.7213Z" fill="white"/>
<path d="M65.5071 107.421C65.5273 107.339 65.5671 107.262 65.623 107.198C65.6789 107.133 65.7494 107.083 65.8286 107.052C65.9078 107.021 65.9933 107.009 66.0781 107.017C66.1628 107.025 66.2444 107.054 66.3158 107.1H66.345C66.4104 107.158 66.4595 107.233 66.4876 107.315C66.5156 107.398 66.5216 107.487 66.5051 107.573C66.4885 107.659 66.4499 107.739 66.393 107.805C66.3361 107.872 66.2629 107.922 66.1806 107.952C66.0984 107.981 66.0098 107.989 65.9236 107.974C65.8374 107.959 65.7566 107.922 65.6891 107.867C65.6216 107.811 65.5697 107.739 65.5385 107.657C65.5073 107.575 65.4979 107.487 65.5113 107.4L65.5071 107.421Z" fill="white"/>
<path d="M76.229 132.442C76.2492 132.359 76.2889 132.283 76.3449 132.218C76.4008 132.154 76.4713 132.104 76.5505 132.073C76.6296 132.041 76.7152 132.029 76.7999 132.038C76.8847 132.046 76.9662 132.075 77.0377 132.121L77.0627 132.142C77.1281 132.2 77.1772 132.274 77.2053 132.357C77.2333 132.44 77.2394 132.529 77.2228 132.614C77.2062 132.7 77.1676 132.78 77.1107 132.847C77.0538 132.913 76.9807 132.964 76.8984 132.993C76.8161 133.023 76.7275 133.031 76.6413 133.016C76.5551 133.001 76.4743 132.964 76.4068 132.908C76.3393 132.853 76.2874 132.78 76.2562 132.699C76.225 132.617 76.2157 132.529 76.229 132.442Z" fill="white"/>
<path d="M72.4022 118.01C72.4224 117.927 72.4621 117.851 72.518 117.786C72.574 117.722 72.6445 117.672 72.7236 117.641C72.8028 117.609 72.8884 117.597 72.9731 117.606C73.0579 117.614 73.1394 117.643 73.2109 117.689L73.2401 117.714C73.3054 117.773 73.3545 117.847 73.3824 117.93C73.4103 118.013 73.4161 118.102 73.3993 118.188C73.3824 118.274 73.3435 118.354 73.2863 118.42C73.2291 118.486 73.1556 118.537 73.073 118.566C72.9905 118.595 72.9017 118.603 72.8155 118.587C72.7293 118.572 72.6486 118.534 72.5813 118.478C72.514 118.422 72.4625 118.349 72.4318 118.267C72.4012 118.185 72.3924 118.097 72.4063 118.01H72.4022Z" fill="white"/>
<path d="M44.1883 92.6725C44.2085 92.5898 44.2482 92.5131 44.3042 92.4489C44.3601 92.3846 44.4306 92.3347 44.5098 92.3033C44.589 92.2718 44.6745 92.2598 44.7593 92.2682C44.844 92.2766 44.9256 92.3052 44.997 92.3516L45.0262 92.3724C45.0916 92.4305 45.1407 92.5046 45.1687 92.5875C45.1968 92.6703 45.2028 92.759 45.1863 92.8449C45.1697 92.9308 45.1311 93.0109 45.0742 93.0773C45.0173 93.1438 44.9441 93.1943 44.8618 93.2239C44.7795 93.2535 44.691 93.2613 44.6048 93.2463C44.5186 93.2314 44.4378 93.1943 44.3703 93.1387C44.3028 93.0831 44.2509 93.0108 44.2197 92.9291C44.1885 92.8474 44.1791 92.759 44.1925 92.6725H44.1883Z" fill="white"/>
<path d="M30.7484 121.404C30.7686 121.321 30.8083 121.244 30.8643 121.18C30.9202 121.116 30.9907 121.066 31.0699 121.034C31.1491 121.003 31.2346 120.991 31.3194 120.999C31.4041 121.008 31.4857 121.036 31.5571 121.083L31.5863 121.108C31.6535 121.166 31.7043 121.241 31.7336 121.325C31.7629 121.409 31.7696 121.499 31.7532 121.586C31.7367 121.674 31.6976 121.755 31.6397 121.823C31.5819 121.89 31.5074 121.942 31.4235 121.971C31.3397 122.001 31.2495 122.008 31.162 121.992C31.0745 121.976 30.9928 121.938 30.9249 121.88C30.857 121.823 30.8053 121.749 30.7751 121.665C30.7448 121.581 30.7371 121.491 30.7526 121.404H30.7484Z" fill="white"/>
<path d="M25.5083 96.6788C25.5279 96.5962 25.5671 96.5195 25.6226 96.4552C25.6781 96.3909 25.7483 96.3409 25.8272 96.3094C25.9061 96.2779 25.9914 96.2659 26.0759 96.2743C26.1604 96.2828 26.2417 96.3114 26.3128 96.3579L26.342 96.3787C26.4074 96.4368 26.4565 96.511 26.4845 96.5938C26.5126 96.6766 26.5186 96.7653 26.5021 96.8512C26.4855 96.9371 26.4469 97.0172 26.39 97.0836C26.3331 97.1501 26.2599 97.2006 26.1776 97.2302C26.0953 97.2598 26.0068 97.2676 25.9206 97.2526C25.8344 97.2377 25.7536 97.2006 25.6861 97.145C25.6186 97.0894 25.5667 97.0172 25.5355 96.9354C25.5043 96.8537 25.4949 96.7653 25.5083 96.6788Z" fill="white"/>
<path d="M27.5635 112.87C27.5837 112.787 27.6234 112.71 27.6793 112.646C27.7353 112.582 27.8058 112.532 27.8849 112.501C27.9641 112.469 28.0497 112.457 28.1344 112.465C28.2192 112.474 28.3007 112.502 28.3722 112.549L28.4014 112.574C28.4686 112.632 28.5194 112.707 28.5487 112.791C28.578 112.875 28.5847 112.965 28.5682 113.053C28.5518 113.14 28.5127 113.221 28.4548 113.289C28.397 113.357 28.3224 113.408 28.2386 113.438C28.1548 113.467 28.0646 113.475 27.9771 113.459C27.8896 113.443 27.8078 113.404 27.7399 113.347C27.672 113.289 27.6204 113.215 27.5901 113.131C27.5599 113.048 27.5521 112.957 27.5676 112.87H27.5635Z" fill="white"/>
<path d="M39.3234 124.563C39.3437 124.48 39.3834 124.404 39.4393 124.339C39.4953 124.275 39.5658 124.225 39.6449 124.194C39.7241 124.162 39.8097 124.15 39.8944 124.159C39.9792 124.167 40.0607 124.196 40.1322 124.242L40.1614 124.267C40.2267 124.325 40.2758 124.4 40.3037 124.483C40.3316 124.566 40.3374 124.655 40.3206 124.741C40.3037 124.827 40.2648 124.907 40.2076 124.973C40.1504 125.039 40.0769 125.09 39.9943 125.119C39.9118 125.148 39.823 125.156 39.7368 125.14C39.6506 125.125 39.5699 125.087 39.5026 125.031C39.4353 124.975 39.3838 124.902 39.3531 124.82C39.3224 124.738 39.3136 124.65 39.3276 124.563H39.3234Z" fill="white"/>
<path d="M38.8274 114.825C38.8476 114.742 38.8873 114.666 38.9433 114.601C38.9992 114.537 39.0697 114.487 39.1489 114.456C39.228 114.424 39.3136 114.412 39.3983 114.421C39.4831 114.429 39.5646 114.458 39.6361 114.504L39.6653 114.529C39.7325 114.587 39.7833 114.662 39.8126 114.746C39.8419 114.83 39.8486 114.92 39.8321 115.008C39.8157 115.095 39.7766 115.177 39.7187 115.244C39.6609 115.312 39.5863 115.363 39.5025 115.393C39.4187 115.423 39.3285 115.43 39.241 115.414C39.1535 115.398 39.0717 115.359 39.0038 115.302C38.9359 115.244 38.8843 115.17 38.854 115.087C38.8238 115.003 38.8161 114.913 38.8315 114.825H38.8274Z" fill="white"/>
<path d="M31.7364 96.7621C31.756 96.6795 31.7952 96.6027 31.8507 96.5384C31.9062 96.4742 31.9764 96.4241 32.0553 96.3927C32.1342 96.3612 32.2195 96.3492 32.304 96.3576C32.3885 96.366 32.4698 96.3947 32.5409 96.4411L32.5701 96.4661C32.6355 96.5244 32.6845 96.5988 32.7124 96.6818C32.7403 96.7648 32.7462 96.8537 32.7293 96.9396C32.7125 97.0256 32.6735 97.1056 32.6163 97.172C32.5591 97.2383 32.4856 97.2886 32.4031 97.3179C32.3205 97.3472 32.2318 97.3545 32.1456 97.3391C32.0593 97.3237 31.9786 97.2861 31.9113 97.23C31.8441 97.1739 31.7926 97.1013 31.7619 97.0192C31.7312 96.9372 31.7224 96.8486 31.7364 96.7621Z" fill="white"/>
<path d="M41.2702 87.3324C41.2899 87.2498 41.3291 87.1731 41.3846 87.1088C41.4401 87.0445 41.5103 86.9945 41.5892 86.963C41.6681 86.9315 41.7534 86.9195 41.8379 86.9279C41.9224 86.9363 42.0037 86.965 42.0748 87.0114L42.104 87.0323C42.1693 87.0904 42.2185 87.1645 42.2465 87.2474C42.2746 87.3302 42.2806 87.4189 42.2641 87.5048C42.2475 87.5907 42.2089 87.6708 42.152 87.7372C42.0951 87.8036 42.0219 87.8542 41.9396 87.8838C41.8573 87.9134 41.7688 87.9211 41.6826 87.9062C41.5964 87.8912 41.5156 87.8541 41.4481 87.7985C41.3806 87.7429 41.3287 87.6707 41.2975 87.589C41.2663 87.5073 41.2569 87.4189 41.2702 87.3324Z" fill="white"/>
<path d="M41.6328 102.536C41.6522 102.452 41.6915 102.375 41.7472 102.31C41.803 102.245 41.8737 102.195 41.9532 102.164C42.0327 102.132 42.1186 102.12 42.2037 102.129C42.2887 102.138 42.3703 102.167 42.4416 102.215L42.4666 102.236C42.5319 102.294 42.581 102.368 42.6091 102.451C42.6372 102.534 42.6432 102.622 42.6266 102.708C42.6101 102.794 42.5714 102.874 42.5146 102.941C42.4577 103.007 42.3845 103.057 42.3022 103.087C42.2199 103.117 42.1313 103.124 42.0452 103.109C41.959 103.095 41.8782 103.057 41.8107 103.002C41.7431 102.946 41.6913 102.874 41.6601 102.792C41.6289 102.711 41.6195 102.622 41.6328 102.536Z" fill="white"/>
<path d="M53.8223 148.913C53.8428 148.833 53.8818 148.758 53.9362 148.696C53.9906 148.634 54.0588 148.585 54.1354 148.554C54.212 148.523 54.2948 148.51 54.3773 148.516C54.4597 148.523 54.5395 148.549 54.6101 148.592L54.6393 148.613C54.7047 148.671 54.7538 148.745 54.7819 148.828C54.8099 148.91 54.816 148.999 54.7994 149.085C54.7828 149.171 54.7442 149.251 54.6873 149.317C54.6304 149.384 54.5573 149.434 54.475 149.464C54.3927 149.494 54.3041 149.501 54.2179 149.486C54.1317 149.472 54.0509 149.434 53.9834 149.379C53.9159 149.323 53.864 149.251 53.8328 149.169C53.8017 149.088 53.7923 148.999 53.8056 148.913H53.8223Z" fill="white"/>
<path d="M67.8082 141.284C67.8284 141.201 67.8682 141.124 67.9241 141.06C67.98 140.996 68.0505 140.946 68.1297 140.915C68.2089 140.883 68.2944 140.871 68.3792 140.88C68.464 140.888 68.5455 140.917 68.617 140.963L68.6461 140.988C68.7115 141.046 68.7605 141.121 68.7885 141.204C68.8164 141.287 68.8222 141.375 68.8053 141.461C68.7885 141.547 68.7495 141.627 68.6923 141.694C68.6351 141.76 68.5616 141.81 68.4791 141.84C68.3966 141.869 68.3078 141.876 68.2216 141.861C68.1354 141.845 68.0547 141.808 67.9874 141.752C67.9201 141.696 67.8686 141.623 67.8379 141.541C67.8072 141.459 67.7984 141.37 67.8124 141.284H67.8082Z" fill="white"/>
<path d="M79.1179 145.023C79.1382 144.94 79.1779 144.864 79.2338 144.799C79.2898 144.735 79.3603 144.685 79.4394 144.654C79.5186 144.622 79.6041 144.61 79.6889 144.619C79.7737 144.627 79.8552 144.656 79.9267 144.702L79.9517 144.723C80.017 144.781 80.0662 144.855 80.0942 144.938C80.1223 145.021 80.1283 145.11 80.1117 145.196C80.0952 145.281 80.0565 145.361 79.9997 145.428C79.9428 145.494 79.8696 145.545 79.7873 145.575C79.705 145.604 79.6164 145.612 79.5303 145.597C79.4441 145.582 79.3633 145.545 79.2958 145.489C79.2283 145.434 79.1764 145.361 79.1452 145.28C79.114 145.198 79.1046 145.11 79.1179 145.023Z" fill="white"/>
<path d="M80.3269 151.464C80.3471 151.381 80.3868 151.305 80.4428 151.24C80.4987 151.176 80.5692 151.126 80.6484 151.095C80.7275 151.063 80.8131 151.051 80.8978 151.06C80.9826 151.068 81.0641 151.097 81.1356 151.143L81.1648 151.164C81.2301 151.222 81.2793 151.296 81.3073 151.379C81.3354 151.462 81.3414 151.551 81.3249 151.636C81.3083 151.722 81.2696 151.802 81.2128 151.869C81.1559 151.935 81.0827 151.986 81.0004 152.015C80.9181 152.045 80.8295 152.053 80.7434 152.038C80.6572 152.023 80.5764 151.986 80.5089 151.93C80.4414 151.875 80.3895 151.802 80.3583 151.721C80.3271 151.639 80.3177 151.551 80.331 151.464H80.3269Z" fill="white"/>
<path d="M69.7259 153.619C69.7461 153.536 69.7858 153.46 69.8418 153.395C69.8977 153.331 69.9682 153.281 70.0474 153.25C70.1265 153.218 70.2121 153.206 70.2968 153.215C70.3816 153.223 70.4631 153.252 70.5346 153.298L70.5596 153.323C70.625 153.381 70.674 153.456 70.7019 153.539C70.7298 153.622 70.7357 153.711 70.7188 153.797C70.702 153.883 70.663 153.963 70.6058 154.029C70.5486 154.095 70.4751 154.146 70.3926 154.175C70.31 154.204 70.2213 154.211 70.1351 154.196C70.0488 154.181 69.9681 154.143 69.9008 154.087C69.8336 154.031 69.782 153.958 69.7514 153.876C69.7207 153.794 69.7119 153.706 69.7259 153.619Z" fill="white"/>
<path d="M73.2692 139.195C73.2894 139.113 73.3292 139.036 73.3851 138.972C73.441 138.908 73.5115 138.858 73.5907 138.826C73.6699 138.795 73.7554 138.783 73.8402 138.791C73.925 138.8 74.0065 138.828 74.078 138.875L74.1071 138.9C74.1744 138.958 74.2252 139.033 74.2544 139.117C74.2837 139.201 74.2905 139.291 74.274 139.378C74.2575 139.466 74.2184 139.547 74.1606 139.615C74.1027 139.682 74.0282 139.734 73.9444 139.763C73.8605 139.793 73.7704 139.8 73.6829 139.784C73.5954 139.768 73.5136 139.73 73.4457 139.672C73.3778 139.615 73.3262 139.541 73.2959 139.457C73.2657 139.373 73.2579 139.283 73.2734 139.195H73.2692Z" fill="white"/>
<path d="M60.2628 142.864C60.2822 142.781 60.3214 142.703 60.3772 142.638C60.433 142.574 60.5037 142.523 60.5832 142.492C60.6626 142.46 60.7486 142.448 60.8336 142.457C60.9187 142.466 61.0003 142.496 61.0715 142.543L61.0966 142.564C61.1619 142.622 61.211 142.696 61.2391 142.779C61.2672 142.862 61.2732 142.95 61.2566 143.036C61.24 143.122 61.2014 143.202 61.1446 143.269C61.0877 143.335 61.0145 143.386 60.9322 143.415C60.8499 143.445 60.7613 143.453 60.6752 143.438C60.589 143.423 60.5082 143.386 60.4407 143.33C60.3731 143.274 60.3213 143.202 60.2901 143.12C60.2589 143.039 60.2495 142.95 60.2628 142.864Z" fill="white"/>
<path d="M29.3435 139.175C29.3622 139.091 29.4009 139.014 29.4563 138.949C29.5117 138.884 29.582 138.834 29.6612 138.802C29.7404 138.771 29.8261 138.759 29.911 138.768C29.9958 138.777 30.0771 138.806 30.148 138.854L30.1772 138.874C30.2426 138.933 30.2917 139.007 30.3197 139.09C30.3478 139.172 30.3538 139.261 30.3373 139.347C30.3207 139.433 30.2821 139.513 30.2252 139.579C30.1683 139.646 30.0951 139.696 30.0128 139.726C29.9306 139.756 29.842 139.763 29.7558 139.748C29.6696 139.733 29.5888 139.696 29.5213 139.641C29.4538 139.585 29.4019 139.513 29.3707 139.431C29.3395 139.35 29.3301 139.261 29.3435 139.175Z" fill="white"/>
<path d="M48.4737 157.505C48.4939 157.422 48.5337 157.345 48.5896 157.281C48.6455 157.217 48.716 157.167 48.7952 157.135C48.8744 157.104 48.9599 157.092 49.0447 157.1C49.1295 157.109 49.211 157.137 49.2824 157.184L49.3116 157.209C49.377 157.267 49.426 157.341 49.4539 157.424C49.4819 157.507 49.4877 157.596 49.4708 157.682C49.454 157.768 49.415 157.848 49.3578 157.914C49.3006 157.981 49.2271 158.031 49.1446 158.06C49.062 158.09 48.9733 158.097 48.8871 158.082C48.8009 158.066 48.7201 158.029 48.6529 157.972C48.5856 157.916 48.5341 157.844 48.5034 157.762C48.4727 157.68 48.4639 157.591 48.4779 157.505H48.4737Z" fill="white"/>
<path d="M40.3155 147.299C40.3351 147.217 40.3743 147.14 40.4298 147.076C40.4853 147.012 40.5555 146.962 40.6344 146.93C40.7133 146.899 40.7986 146.887 40.8831 146.895C40.9677 146.903 41.0489 146.932 41.12 146.978L41.1492 147.003C41.2146 147.062 41.2636 147.136 41.2915 147.219C41.3195 147.302 41.3253 147.391 41.3084 147.477C41.2916 147.563 41.2526 147.643 41.1954 147.709C41.1382 147.776 41.0647 147.826 40.9822 147.855C40.8996 147.885 40.8109 147.892 40.7247 147.876C40.6384 147.861 40.5577 147.823 40.4904 147.767C40.4232 147.711 40.3717 147.639 40.341 147.557C40.3103 147.475 40.3015 147.386 40.3155 147.299Z" fill="white"/>
<path d="M35.4674 155.599C35.4859 155.516 35.5241 155.439 35.5786 155.374C35.6331 155.309 35.7023 155.257 35.7806 155.224C35.8589 155.191 35.944 155.177 36.0287 155.184C36.1134 155.19 36.1954 155.217 36.2678 155.262L36.2928 155.287C36.3581 155.345 36.4072 155.419 36.4351 155.502C36.463 155.585 36.4688 155.674 36.452 155.76C36.4351 155.846 36.3962 155.926 36.339 155.992C36.2818 156.059 36.2083 156.109 36.1257 156.138C36.0432 156.168 35.9544 156.175 35.8682 156.16C35.782 156.144 35.7013 156.107 35.634 156.05C35.5667 155.994 35.5152 155.922 35.4845 155.84C35.4538 155.758 35.4451 155.669 35.459 155.583L35.4674 155.599Z" fill="white"/>
<path d="M48.9532 112.136C48.9734 112.054 49.0132 111.977 49.0691 111.913C49.125 111.848 49.1955 111.799 49.2747 111.767C49.3539 111.736 49.4394 111.724 49.5242 111.732C49.609 111.74 49.6905 111.769 49.7619 111.815L49.7911 111.84C49.8565 111.899 49.9055 111.973 49.9334 112.056C49.9614 112.139 49.9672 112.228 49.9503 112.314C49.9335 112.4 49.8945 112.48 49.8373 112.546C49.7801 112.613 49.7066 112.663 49.6241 112.692C49.5415 112.721 49.4528 112.729 49.3666 112.713C49.2804 112.698 49.1996 112.66 49.1323 112.604C49.0651 112.548 49.0136 112.476 48.9829 112.394C48.9522 112.311 48.9434 112.223 48.9574 112.136H48.9532Z" fill="white"/>
<path d="M37.977 133.326C37.9973 133.243 38.037 133.166 38.0929 133.102C38.1489 133.038 38.2194 132.988 38.2985 132.957C38.3777 132.925 38.4632 132.913 38.548 132.922C38.6328 132.93 38.7143 132.959 38.7858 133.005L38.8149 133.026C38.8803 133.084 38.9294 133.158 38.9575 133.241C38.9856 133.324 38.9916 133.412 38.975 133.498C38.9584 133.584 38.9198 133.664 38.8629 133.731C38.8061 133.797 38.7329 133.848 38.6506 133.877C38.5683 133.907 38.4797 133.915 38.3935 133.9C38.3074 133.885 38.2265 133.848 38.159 133.792C38.0915 133.736 38.0396 133.664 38.0085 133.582C37.9773 133.501 37.9679 133.412 37.9812 133.326H37.977Z" fill="white"/>
<path d="M41.537 141.351C41.5572 141.268 41.5969 141.191 41.6528 141.127C41.7088 141.063 41.7793 141.013 41.8584 140.981C41.9376 140.95 42.0232 140.938 42.1079 140.946C42.1927 140.955 42.2742 140.983 42.3457 141.03L42.3749 141.05C42.4402 141.109 42.4893 141.183 42.5174 141.265C42.5455 141.348 42.5515 141.437 42.5349 141.523C42.5183 141.609 42.4797 141.689 42.4229 141.755C42.366 141.822 42.2928 141.872 42.2105 141.902C42.1282 141.932 42.0396 141.939 41.9535 141.924C41.8673 141.909 41.7865 141.872 41.719 141.817C41.6514 141.761 41.5996 141.689 41.5684 141.607C41.5372 141.525 41.5278 141.437 41.5411 141.351H41.537Z" fill="white"/>
<path d="M29.8354 147.795C29.8556 147.713 29.8953 147.636 29.9513 147.572C30.0072 147.507 30.0777 147.457 30.1569 147.426C30.236 147.395 30.3216 147.383 30.4063 147.391C30.4911 147.399 30.5726 147.428 30.6441 147.474L30.6733 147.499C30.7386 147.558 30.7877 147.632 30.8156 147.715C30.8435 147.798 30.8493 147.887 30.8325 147.973C30.8156 148.059 30.7767 148.139 30.7195 148.205C30.6623 148.272 30.5888 148.322 30.5063 148.351C30.4237 148.38 30.335 148.388 30.2487 148.372C30.1625 148.357 30.0818 148.319 30.0145 148.263C29.9472 148.207 29.8957 148.135 29.865 148.052C29.8344 147.97 29.8256 147.882 29.8395 147.795H29.8354Z" fill="white"/>
<path d="M61.8553 157.104C61.8747 157.021 61.9139 156.943 61.9697 156.879C62.0255 156.814 62.0961 156.763 62.1756 156.732C62.2551 156.7 62.3411 156.689 62.4261 156.697C62.5112 156.706 62.5928 156.736 62.664 156.783L62.6932 156.804C62.7586 156.862 62.8077 156.936 62.8357 157.019C62.8638 157.102 62.8698 157.191 62.8533 157.276C62.8367 157.362 62.7981 157.442 62.7412 157.509C62.6843 157.575 62.6111 157.626 62.5288 157.655C62.4465 157.685 62.358 157.693 62.2718 157.678C62.1856 157.663 62.1048 157.626 62.0373 157.57C61.9698 157.515 61.9179 157.442 61.8867 157.361C61.8555 157.279 61.8461 157.191 61.8595 157.104H61.8553Z" fill="white"/>
<path d="M88.5351 154.665C88.5553 154.583 88.5951 154.506 88.651 154.442C88.7069 154.378 88.7774 154.328 88.8566 154.296C88.9358 154.265 89.0213 154.253 89.1061 154.261C89.1909 154.27 89.2724 154.298 89.3439 154.344L89.373 154.369C89.4403 154.428 89.4911 154.503 89.5203 154.587C89.5496 154.671 89.5564 154.761 89.5399 154.848C89.5234 154.936 89.4843 155.017 89.4265 155.085C89.3686 155.152 89.2941 155.203 89.2103 155.233C89.1264 155.263 89.0363 155.27 88.9488 155.254C88.8613 155.238 88.7795 155.2 88.7116 155.142C88.6437 155.085 88.5921 155.01 88.5618 154.927C88.5316 154.843 88.5238 154.753 88.5393 154.665H88.5351Z" fill="white"/>
<path d="M65.0318 150.284C65.0521 150.201 65.0918 150.125 65.1477 150.06C65.2037 149.996 65.2742 149.946 65.3533 149.915C65.4325 149.883 65.5181 149.871 65.6028 149.88C65.6876 149.888 65.7691 149.917 65.8406 149.963L65.8698 149.988C65.937 150.046 65.9878 150.121 66.0171 150.205C66.0464 150.289 66.0531 150.379 66.0366 150.467C66.0201 150.554 65.981 150.636 65.9232 150.703C65.8654 150.771 65.7908 150.822 65.707 150.852C65.6232 150.882 65.533 150.889 65.4455 150.873C65.358 150.857 65.2762 150.818 65.2083 150.761C65.1404 150.703 65.0888 150.629 65.0585 150.545C65.0283 150.462 65.0205 150.372 65.036 150.284H65.0318Z" fill="white"/>
<path d="M87.543 145.519C87.5623 145.436 87.6016 145.359 87.6574 145.294C87.7132 145.229 87.7838 145.179 87.8633 145.147C87.9428 145.116 88.0287 145.104 88.1138 145.113C88.1988 145.122 88.2805 145.151 88.3517 145.198L88.3767 145.219C88.4421 145.277 88.4912 145.351 88.5192 145.434C88.5473 145.517 88.5533 145.606 88.5368 145.692C88.5202 145.778 88.4816 145.858 88.4247 145.924C88.3678 145.991 88.2946 146.041 88.2123 146.071C88.1301 146.1 88.0415 146.108 87.9553 146.093C87.8691 146.078 87.7883 146.041 87.7208 145.985C87.6533 145.93 87.6014 145.858 87.5702 145.776C87.539 145.694 87.5296 145.606 87.543 145.519Z" fill="white"/>
<path d="M49.9411 130.387C49.9613 130.304 50.0011 130.227 50.057 130.163C50.1129 130.099 50.1834 130.049 50.2626 130.018C50.3418 129.986 50.4273 129.974 50.5121 129.983C50.5968 129.991 50.6784 130.02 50.7498 130.066L50.779 130.087C50.8444 130.145 50.8935 130.219 50.9215 130.302C50.9496 130.385 50.9556 130.473 50.9391 130.559C50.9225 130.645 50.8839 130.725 50.827 130.792C50.7701 130.858 50.6969 130.909 50.6147 130.938C50.5324 130.968 50.4438 130.976 50.3576 130.961C50.2714 130.946 50.1906 130.909 50.1231 130.853C50.0556 130.797 50.0037 130.725 49.9725 130.643C49.9413 130.562 49.9319 130.473 49.9453 130.387H49.9411Z" fill="white"/>
<path d="M57.8117 107.421C57.8319 107.339 57.8716 107.262 57.9276 107.198C57.9835 107.133 58.054 107.083 58.1332 107.052C58.2123 107.021 58.2979 107.009 58.3827 107.017C58.4674 107.025 58.5489 107.054 58.6204 107.1H58.6496C58.7149 107.158 58.7641 107.233 58.7921 107.315C58.8202 107.398 58.8262 107.487 58.8097 107.573C58.7931 107.659 58.7545 107.739 58.6976 107.805C58.6407 107.872 58.5675 107.922 58.4852 107.952C58.4029 107.981 58.3144 107.989 58.2282 107.974C58.142 107.959 58.0612 107.922 57.9937 107.867C57.9262 107.811 57.8743 107.739 57.8431 107.657C57.8119 107.575 57.8025 107.487 57.8158 107.4L57.8117 107.421Z" fill="white"/>
<path d="M59.7793 127.331C59.7995 127.248 59.8392 127.172 59.8952 127.108C59.9511 127.043 60.0216 126.993 60.1008 126.962C60.1799 126.931 60.2655 126.919 60.3503 126.927C60.435 126.935 60.5165 126.964 60.588 127.01L60.613 127.035C60.6784 127.094 60.7274 127.168 60.7553 127.251C60.7833 127.334 60.7891 127.423 60.7722 127.509C60.7554 127.595 60.7164 127.675 60.6592 127.741C60.602 127.807 60.5285 127.858 60.446 127.887C60.3634 127.916 60.2747 127.924 60.1885 127.908C60.1023 127.893 60.0215 127.855 59.9542 127.799C59.887 127.743 59.8355 127.67 59.8048 127.588C59.7741 127.506 59.7653 127.418 59.7793 127.331Z" fill="white"/>
<path d="M62.9808 120.841C63.0011 120.758 63.0408 120.681 63.0967 120.617C63.1527 120.553 63.2232 120.503 63.3023 120.471C63.3815 120.44 63.4671 120.428 63.5518 120.436C63.6366 120.445 63.7181 120.473 63.7896 120.52H63.8146C63.8799 120.578 63.9291 120.652 63.9571 120.735C63.9852 120.817 63.9912 120.906 63.9747 120.992C63.9581 121.078 63.9195 121.158 63.8626 121.224C63.8057 121.291 63.7325 121.341 63.6502 121.371C63.568 121.401 63.4794 121.408 63.3932 121.393C63.307 121.379 63.2262 121.341 63.1587 121.286C63.0912 121.23 63.0393 121.158 63.0081 121.076C62.9769 120.995 62.9675 120.906 62.9808 120.82V120.841Z" fill="white"/>
<path d="M48.8198 141.259C48.84 141.176 48.8798 141.1 48.9357 141.035C48.9916 140.971 49.0621 140.921 49.1413 140.89C49.2205 140.858 49.306 140.846 49.3908 140.855C49.4755 140.863 49.5571 140.892 49.6285 140.938L49.6577 140.963C49.7249 141.021 49.7757 141.096 49.805 141.18C49.8343 141.264 49.8411 141.354 49.8246 141.442C49.8081 141.529 49.769 141.611 49.7111 141.678C49.6533 141.746 49.5788 141.797 49.4949 141.827C49.4111 141.857 49.3209 141.864 49.2334 141.848C49.1459 141.832 49.0642 141.793 48.9963 141.736C48.9284 141.678 48.8767 141.604 48.8465 141.52C48.8162 141.437 48.8085 141.347 48.824 141.259H48.8198Z" fill="white"/>
<path d="M58.8039 137.253C58.8216 137.168 58.8597 137.09 58.9148 137.023C58.9699 136.957 59.0404 136.905 59.1201 136.872C59.1998 136.839 59.2863 136.826 59.3722 136.835C59.458 136.843 59.5405 136.872 59.6126 136.919L59.6418 136.944C59.7071 137.003 59.7562 137.077 59.7841 137.16C59.812 137.243 59.8178 137.332 59.801 137.418C59.7841 137.504 59.7452 137.584 59.688 137.65C59.6308 137.716 59.5573 137.767 59.4747 137.796C59.3922 137.825 59.3035 137.833 59.2172 137.817C59.131 137.802 59.0503 137.764 58.983 137.708C58.9157 137.652 58.8642 137.579 58.8335 137.497C58.8029 137.415 58.7941 137.327 58.808 137.24L58.8039 137.253Z" fill="white"/>
<path d="M54.5308 115.263C54.5505 115.18 54.5897 115.103 54.6452 115.039C54.7007 114.975 54.7709 114.925 54.8498 114.893C54.9287 114.862 55.014 114.85 55.0985 114.858C55.183 114.867 55.2643 114.895 55.3354 114.942L55.3646 114.963C55.4299 115.021 55.4791 115.095 55.5071 115.178C55.5352 115.261 55.5412 115.349 55.5247 115.435C55.5081 115.521 55.4695 115.601 55.4126 115.668C55.3557 115.734 55.2825 115.785 55.2002 115.814C55.1179 115.844 55.0294 115.852 54.9432 115.837C54.857 115.822 54.7762 115.785 54.7087 115.729C54.6412 115.673 54.5893 115.601 54.5581 115.519C54.5269 115.438 54.5175 115.349 54.5308 115.263Z" fill="white"/>
<path d="M69.7259 130.833C69.7461 130.75 69.7858 130.674 69.8418 130.609C69.8977 130.545 69.9682 130.495 70.0474 130.464C70.1265 130.432 70.2121 130.42 70.2968 130.429C70.3816 130.437 70.4631 130.466 70.5346 130.512L70.5596 130.537C70.625 130.595 70.674 130.67 70.7019 130.753C70.7298 130.836 70.7357 130.925 70.7188 131.01C70.702 131.096 70.663 131.176 70.6058 131.243C70.5486 131.309 70.4751 131.359 70.3926 131.389C70.31 131.418 70.2213 131.425 70.1351 131.41C70.0488 131.395 69.9681 131.357 69.9008 131.301C69.8336 131.245 69.782 131.172 69.7514 131.09C69.7207 131.008 69.7119 130.919 69.7259 130.833Z" fill="white"/>
<path d="M46.2727 123.688C46.2929 123.605 46.3326 123.528 46.3885 123.464C46.4445 123.4 46.515 123.35 46.5942 123.318C46.6733 123.287 46.7589 123.275 46.8436 123.283C46.9284 123.292 47.0099 123.32 47.0814 123.367L47.1106 123.388C47.1759 123.446 47.2251 123.52 47.2531 123.603C47.2812 123.685 47.2872 123.774 47.2706 123.86C47.2541 123.946 47.2154 124.026 47.1586 124.092C47.1017 124.159 47.0285 124.209 46.9462 124.239C46.8639 124.269 46.7753 124.276 46.6892 124.261C46.603 124.247 46.5222 124.209 46.4547 124.154C46.3872 124.098 46.3353 124.026 46.3041 123.944C46.2729 123.863 46.2635 123.774 46.2768 123.688H46.2727Z" fill="white"/>
<path d="M24.5162 105.029C24.5364 104.946 24.5761 104.869 24.6321 104.805C24.688 104.741 24.7585 104.691 24.8377 104.659C24.9168 104.628 25.0024 104.616 25.0871 104.624C25.1719 104.633 25.2534 104.661 25.3249 104.708L25.3541 104.733C25.4194 104.791 25.4685 104.865 25.4964 104.948C25.5243 105.031 25.5301 105.12 25.5133 105.206C25.4964 105.292 25.4575 105.372 25.4003 105.438C25.3431 105.505 25.2696 105.555 25.187 105.584C25.1045 105.614 25.0158 105.621 24.9295 105.605C24.8433 105.59 24.7626 105.552 24.6953 105.496C24.628 105.44 24.5765 105.368 24.5458 105.286C24.5152 105.204 24.5064 105.115 24.5203 105.029H24.5162Z" fill="white"/>
<path d="M33.3496 90.9008C33.3698 90.8181 33.4096 90.7414 33.4655 90.6771C33.5214 90.6129 33.5919 90.563 33.6711 90.5315C33.7503 90.5001 33.8358 90.4881 33.9206 90.4965C34.0054 90.5049 34.0869 90.5335 34.1584 90.5798L34.1875 90.6048C34.2529 90.6631 34.3019 90.7375 34.3299 90.8205C34.3578 90.9035 34.3636 90.9924 34.3467 91.0783C34.3299 91.1643 34.2909 91.2443 34.2337 91.3107C34.1765 91.377 34.103 91.4273 34.0205 91.4566C33.938 91.4859 33.8492 91.4932 33.763 91.4778C33.6768 91.4624 33.5961 91.4248 33.5288 91.3687C33.4615 91.3126 33.41 91.24 33.3793 91.1579C33.3486 91.0759 33.3398 90.9873 33.3538 90.9008H33.3496Z" fill="white"/>
<path d="M50.4663 92.6725C50.4865 92.5898 50.5263 92.5131 50.5822 92.4489C50.6382 92.3846 50.7086 92.3347 50.7878 92.3033C50.867 92.2718 50.9525 92.2598 51.0373 92.2682C51.1221 92.2766 51.2036 92.3052 51.2751 92.3516L51.3042 92.3724C51.3696 92.4305 51.4187 92.5046 51.4468 92.5875C51.4748 92.6703 51.4809 92.759 51.4643 92.8449C51.4477 92.9308 51.4091 93.0109 51.3522 93.0773C51.2954 93.1438 51.2222 93.1943 51.1399 93.2239C51.0576 93.2535 50.969 93.2613 50.8828 93.2463C50.7967 93.2314 50.7159 93.1943 50.6483 93.1387C50.5808 93.0831 50.5289 93.0108 50.4978 92.9291C50.4666 92.8474 50.4572 92.759 50.4705 92.6725H50.4663Z" fill="white"/>
<path d="M67.9291 41.9602C71.2099 44.0446 72.5147 48.4259 71.8977 51.0146C71.5809 52.3195 70.9889 53.6326 71.2474 54.9457C71.4683 56.0838 72.2896 56.9967 72.9149 57.9806C73.9451 59.6367 74.4184 61.579 74.2656 63.5234C74.1127 65.4678 73.3417 67.3123 72.0654 68.7871C70.789 70.2619 69.0743 71.2896 67.1719 71.72C65.2696 72.1503 63.2794 71.9606 61.4926 71.1787" fill="#263238"/>
<path d="M69.8718 59.0477C77.859 41.4808 58.858 32.6556 48.4946 35.5821C38.7523 38.3334 34.5961 43.1816 32.9912 49.6973C31.3862 56.213 31.4654 63.279 34.0208 69.4862C35.2715 72.546 37.5476 75.6559 40.8367 76.0394" fill="#263238"/>
<path d="M60.513 101.948C60.6505 93.5522 60.7506 82.0257 60.7506 82.0716C60.7506 82.1175 67.9499 80.8752 69.4632 71.4706C70.2052 66.7891 69.9676 59.1145 69.5757 52.8406C69.2172 47.192 65.4779 40.2636 59.8501 40.8597L42.279 45.2994C41.4541 45.386 40.6919 45.7796 40.1436 46.402C39.5953 47.0244 39.3011 47.8301 39.3192 48.6594L40.4614 84.9981" fill="#FFBE9D"/>
<path d="M66.4326 58.5808C66.4395 58.8933 66.3238 59.196 66.1103 59.4242C65.8969 59.6525 65.6026 59.7882 65.2904 59.8022C65.1378 59.8165 64.9838 59.8 64.8377 59.7537C64.6916 59.7075 64.5562 59.6324 64.4396 59.5329C64.323 59.4334 64.2276 59.3115 64.1589 59.1745C64.0902 59.0374 64.0497 58.888 64.0398 58.7351C64.0339 58.4225 64.1499 58.1199 64.363 57.8912C64.5761 57.6625 64.8698 57.5256 65.182 57.5095C65.3348 57.4958 65.4889 57.5128 65.635 57.5596C65.7812 57.6063 65.9165 57.6818 66.033 57.7817C66.1495 57.8815 66.2449 58.0036 66.3136 58.1409C66.3822 58.2781 66.4227 58.4277 66.4326 58.5808Z" fill="#263238"/>
<path d="M53.9598 58.5807C53.9656 58.8924 53.8494 59.1941 53.6361 59.4214C53.4227 59.6488 53.1291 59.7839 52.8176 59.798C52.665 59.8122 52.5111 59.7957 52.3649 59.7495C52.2188 59.7032 52.0834 59.6281 51.9668 59.5286C51.8502 59.4291 51.7548 59.3072 51.6861 59.1702C51.6174 59.0331 51.5769 58.8837 51.567 58.7308C51.5601 58.4183 51.6758 58.1156 51.8893 57.8874C52.1027 57.6591 52.397 57.5234 52.7092 57.5093C52.8622 57.4951 53.0164 57.5117 53.1628 57.5582C53.3092 57.6048 53.4447 57.6802 53.5614 57.7802C53.6781 57.8801 53.7734 58.0025 53.8419 58.14C53.9103 58.2775 53.9504 58.4274 53.9598 58.5807Z" fill="#263238"/>
<path d="M67.7332 56.388C67.5873 56.5506 66.6493 55.9044 65.3529 55.9711C64.0564 56.0378 63.1268 56.6965 62.9767 56.5422C62.9059 56.4755 63.0518 56.1879 63.4561 55.8711C64.0038 55.4617 64.6652 55.233 65.3487 55.2166C66.0242 55.1928 66.6898 55.3841 67.2497 55.7627C67.6582 56.0461 67.8041 56.3129 67.7332 56.388Z" fill="#263238"/>
<path d="M55.4021 56.6966C55.252 56.855 54.3391 56.1714 53.0426 56.1714C51.7461 56.1714 50.7873 56.8133 50.6498 56.6549C50.5789 56.5841 50.7332 56.3006 51.15 56.0004C51.7131 55.6114 52.3833 55.4074 53.0676 55.4168C53.7428 55.4168 54.4002 55.633 54.9435 56.0338C55.3437 56.3423 55.4771 56.6257 55.4021 56.6966Z" fill="#263238"/>
<path d="M59.8543 66.7017C59.8543 66.6266 60.6547 66.4891 61.9637 66.3181C62.2972 66.2848 62.6099 66.2181 62.6641 65.993C62.6937 65.6501 62.6165 65.3064 62.4431 65.0092C62.1346 64.2088 61.8053 63.3667 61.4635 62.4829C60.1003 58.8895 59.1165 55.9297 59.2624 55.8755C59.4083 55.8213 60.6297 58.6936 61.9887 62.2912L62.9308 64.8341C63.1396 65.2338 63.2002 65.6946 63.1018 66.1347C63.0533 66.2514 62.979 66.3556 62.8844 66.4394C62.7898 66.5232 62.6774 66.5843 62.5557 66.6183C62.3725 66.6699 62.1832 66.6965 61.9929 66.6975C60.6756 66.7684 59.8585 66.7725 59.8543 66.7017Z" fill="#263238"/>
<path d="M60.7506 82.0714C56.3186 82.1391 51.9547 80.976 48.1444 78.7114C48.1444 78.7114 51.3293 85.2563 60.7506 84.3767V82.0714Z" fill="#EB996E"/>
<path d="M55.7232 54.8499C55.5981 55.2042 54.2975 55.0333 52.7759 55.2209C51.2543 55.4085 50.0204 55.817 49.8161 55.5002C49.7244 55.3502 49.9412 55.0167 50.4373 54.6665C51.1009 54.2477 51.8512 53.9855 52.6312 53.8995C53.4112 53.8136 54.2005 53.9062 54.9395 54.1704C55.4981 54.4039 55.7816 54.6832 55.7232 54.8499Z" fill="#263238"/>
<path d="M67.433 53.1282C67.2037 53.4241 66.3074 53.1282 65.2319 53.1031C64.1564 53.0781 63.2434 53.3032 63.035 52.9948C62.9433 52.8447 63.085 52.5487 63.4852 52.2694C64.0166 51.9263 64.6417 51.7572 65.2736 51.7858C65.9055 51.7982 66.5183 52.0049 67.0286 52.3778C67.408 52.6738 67.533 52.9781 67.433 53.1282Z" fill="#263238"/>
<path d="M40.9326 61.0488C40.795 60.9821 35.8926 58.8144 35.8343 64.4505C35.7759 70.0866 41.4495 68.9819 41.462 68.8193C41.4745 68.6567 40.9326 61.0488 40.9326 61.0488Z" fill="#FFBE9D"/>
<path d="M39.7611 66.66C39.736 66.66 39.661 66.7267 39.4943 66.8017C39.2587 66.8955 38.9962 66.8955 38.7606 66.8017C38.1686 66.5766 37.6767 65.6261 37.66 64.609C37.6475 64.1262 37.7459 63.647 37.9477 63.2083C38.0016 63.0324 38.0978 62.8724 38.2279 62.7423C38.358 62.6122 38.518 62.516 38.6939 62.4621C38.8068 62.433 38.9264 62.4447 39.0316 62.495C39.1368 62.5453 39.2209 62.6311 39.2692 62.7372C39.3442 62.8956 39.3067 63.0082 39.3358 63.0165C39.365 63.0249 39.4609 62.9248 39.4151 62.6914C39.3856 62.5519 39.3091 62.4268 39.1983 62.337C39.1223 62.2776 39.0353 62.2338 38.9423 62.208C38.8493 62.1823 38.7521 62.1751 38.6564 62.1869C38.4247 62.2305 38.208 62.3327 38.027 62.4837C37.846 62.6348 37.7068 62.8297 37.6225 63.0499C37.377 63.5353 37.2539 64.0734 37.264 64.6173C37.289 65.7512 37.8601 66.8226 38.673 67.0643C38.8239 67.1099 38.983 67.1211 39.1388 67.0973C39.2946 67.0735 39.4431 67.0153 39.5735 66.9268C39.7485 66.7975 39.7777 66.6683 39.7611 66.66Z" fill="#EB996E"/>
<path d="M61.7261 38.0708C64.8609 39.6924 66.1532 46.1039 64.8568 49.3889C63.5603 52.6738 60.0628 54.2746 56.6152 55.0291C53.1677 55.7837 49.7869 55.8629 46.3852 54.9291C46.1518 57.2135 44.7803 59.5605 42.5625 60.165C39.6236 60.9612 36.6638 58.2724 36.0093 55.3001C35.3548 52.3278 36.3386 49.268 37.3058 46.379" fill="#263238"/>
<path d="M36.8597 58.5184C36.8597 58.5184 37.0015 58.6851 37.2975 58.9352C37.7112 59.2854 38.1441 59.6125 38.5939 59.9149C39.2664 60.3788 40.0059 60.7373 40.7867 60.9779C41.7618 61.2854 42.8103 61.2693 43.7756 60.9321C44.726 60.5492 45.5222 59.8615 46.0392 58.9769C46.458 58.2704 46.7342 57.4886 46.8521 56.6758C46.9345 56.1352 46.9638 55.5879 46.9397 55.0417C46.9487 54.8418 46.9248 54.6418 46.8688 54.4497C46.8063 54.4497 46.8688 55.3043 46.627 56.6341C46.4841 57.4068 46.2016 58.1471 45.7933 58.8185C45.2982 59.6334 44.5543 60.2677 43.6714 60.6277C42.7682 60.9398 41.7897 60.9602 40.8742 60.6861C40.1171 60.4671 39.3944 60.1429 38.7273 59.7231C37.5684 58.9978 36.8931 58.4725 36.8597 58.5184Z" fill="#263238"/>
<path d="M59.4707 70.3199C59.3049 70.8086 59.069 71.2706 58.7704 71.6914C58.6204 71.9022 58.4272 72.0786 58.2036 72.2087C57.98 72.3388 57.7313 72.4197 57.4739 72.446C57.1989 72.4441 56.9286 72.3742 56.6871 72.2426C56.4456 72.1109 56.2405 71.9216 56.0899 71.6914C55.7993 71.2197 55.6651 70.6682 55.7064 70.1157C55.7272 69.6196 55.9565 69.0276 56.4484 68.9693C56.6553 68.962 56.8605 69.0079 57.0445 69.1027L59.6375 70.1532" fill="#EB996E"/>
<path d="M58.4369 72.45C58.4369 72.3708 57.8533 72.6001 57.0529 72.2791C56.5991 72.1038 56.2264 71.7667 56.0066 71.3328C55.8823 71.0681 55.8151 70.7803 55.8094 70.488C55.8036 70.1957 55.8595 69.9055 55.9732 69.6361C56.0332 69.4987 56.1087 69.3686 56.1983 69.2484C56.3025 69.14 56.2859 69.1442 56.3942 69.1609C56.5026 69.1776 56.6735 69.2693 56.8111 69.3235L57.228 69.4986C57.7824 69.7237 58.2868 69.9154 58.7079 70.078C59.5416 70.3948 60.0961 70.5616 60.1211 70.4949C60.1461 70.4282 59.6542 70.1614 58.8371 69.7695C58.4202 69.5736 57.9408 69.3526 57.3947 69.0984L56.9779 68.9108C56.8236 68.8482 56.7111 68.7815 56.5026 68.7148C56.3781 68.6735 56.2436 68.6735 56.1191 68.7148C56.0052 68.7635 55.906 68.8411 55.8315 68.9399C55.5532 69.3016 55.3851 69.7358 55.3474 70.1905C55.3097 70.6452 55.404 71.1012 55.6189 71.5037C55.7572 71.7592 55.9449 71.9847 56.171 72.1672C56.3971 72.3497 56.6572 72.4855 56.9362 72.5667C57.2985 72.6858 57.6867 72.7016 58.0576 72.6126C58.3244 72.5667 58.4452 72.4792 58.4369 72.45Z" fill="#263238"/>
<path d="M34.6003 57.1844C35.1755 57.1427 39.832 57.7472 39.4652 66.3973C39.1233 74.4804 33.4539 72.7004 31.6446 69.6572C29.9438 66.7766 28.9517 57.5805 34.6003 57.1844Z" fill="#455A64"/>
<path d="M31.7362 58.2056C31.7492 58.1313 31.7562 58.056 31.7571 57.9805C31.7571 57.8096 31.7571 57.5928 31.7821 57.3177C31.7821 56.7216 31.8238 55.8878 31.8529 54.854C31.8946 52.7321 31.953 49.7765 32.0239 46.3706L31.9196 46.4707H34.3166L34.2083 46.3623C34.2083 47.0043 34.1749 47.6838 34.1541 48.3758C34.0749 51.6191 33.9998 54.6289 33.9373 57.176V57.251H34.0082C34.9924 57.4779 35.8666 58.0411 36.4802 58.8434C36.9449 59.4656 37.2808 60.1742 37.4682 60.9278C37.5932 61.4133 37.6782 61.9083 37.7225 62.4077C37.7225 62.5786 37.7433 62.712 37.7475 62.7995C37.7517 62.8871 37.7475 62.9371 37.7475 62.9371C37.753 62.8914 37.753 62.8452 37.7475 62.7995C37.7475 62.712 37.7475 62.5786 37.7475 62.4035C37.7272 61.8977 37.6574 61.395 37.5391 60.9028C37.3652 60.1271 37.0346 59.3951 36.5677 58.7517C35.9386 57.9165 35.0378 57.3268 34.0207 57.0842L34.0915 57.176C34.1624 54.6455 34.2499 51.6232 34.3417 48.3758C34.3625 47.688 34.3792 47.0085 34.3959 46.3623V46.2498H31.7821V46.354C31.7445 49.764 31.7112 52.7154 31.6862 54.8415C31.6862 55.8753 31.6862 56.7091 31.6862 57.3052C31.6862 57.5803 31.6862 57.7971 31.6862 57.9638C31.6916 58.0464 31.7085 58.1277 31.7362 58.2056Z" fill="#455A64"/>
<path d="M34.6002 46.3663C34.6002 46.3663 37.0348 40.6719 42.8334 37.858C45.0511 36.7534 47.3809 35.8897 49.7827 35.2817C49.7827 35.2817 46.3977 34.4813 40.9242 36.9159C38.4229 38.0247 35.9217 39.4629 34.2542 41.6265C33.2037 42.998 31.8864 45.6785 31.8906 46.3663H34.6002Z" fill="#455A64"/>
<path d="M49.6076 115.346C49.6076 115.346 49.5743 115.305 49.5034 115.234C49.4325 115.163 49.3242 115.055 49.1908 114.909C48.7908 114.485 48.415 114.04 48.0652 113.575C47.5087 112.83 47.0005 112.05 46.5436 111.24C46.0017 110.294 45.4347 109.177 44.8219 107.93C43.5922 105.429 42.1707 102.419 40.6949 98.9591C39.9612 97.2291 39.2109 95.3907 38.4605 93.4522L37.9019 91.9848C37.7258 91.4713 37.5011 90.9757 37.2307 90.505C36.9421 90.0168 36.5236 89.6185 36.0218 89.3544C35.7664 89.2139 35.4795 89.1408 35.1881 89.1418C35.029 89.1527 34.876 89.2076 34.7462 89.3002C34.6231 89.3999 34.5271 89.5289 34.4669 89.6754V89.7046V89.7379C34.5023 89.9364 34.579 90.1253 34.692 90.2923C34.8179 90.4664 35.0033 90.588 35.2131 90.6342C35.6135 90.6896 36.0212 90.6151 36.3761 90.4216C36.7487 90.2478 37.0525 89.9543 37.2391 89.5879C37.4257 89.2216 37.4844 88.8033 37.4058 88.3997C37.3208 87.985 37.0769 87.6199 36.7263 87.3826C36.3803 87.1412 35.9636 87.0224 35.5424 87.0449C35.3243 87.0464 35.1101 87.1025 34.9193 87.2081C34.7285 87.3137 34.5672 87.4654 34.4502 87.6494C34.3913 87.7547 34.3639 87.8748 34.3713 87.9953C34.3786 88.1157 34.4205 88.2315 34.4919 88.3289C34.6295 88.5032 34.8128 88.636 35.0213 88.7124C35.3709 88.8452 35.7539 88.8618 36.1136 88.7597C36.4733 88.6576 36.7905 88.4422 37.0181 88.1455C37.2397 87.843 37.3367 87.4669 37.2891 87.095C37.2526 86.7325 37.1073 86.3895 36.8722 86.1111C36.6333 85.8299 36.2996 85.6461 35.9343 85.5942C35.7498 85.5701 35.5623 85.5892 35.3865 85.65C35.2107 85.7108 35.0514 85.8115 34.9213 85.9444C34.788 86.088 34.7162 86.278 34.7212 86.4738C34.7235 86.5714 34.7462 86.6674 34.7879 86.7557C34.8295 86.8441 34.8891 86.9227 34.9629 86.9866C35.099 87.109 35.262 87.1976 35.4387 87.2454C35.6154 87.2932 35.8009 87.2988 35.9801 87.2617C36.1536 87.2163 36.3156 87.135 36.4557 87.0229C36.5957 86.9109 36.7106 86.7707 36.793 86.6114C36.9546 86.3126 37.0578 85.9858 37.0973 85.6484C37.2149 84.9932 37.1381 84.3179 36.8764 83.7058C36.7303 83.3935 36.4775 83.1437 36.1635 83.0013C35.8426 82.8824 35.4878 82.8944 35.1756 83.0346C35.0119 83.0937 34.868 83.1971 34.7598 83.3333C34.6515 83.4695 34.5833 83.6331 34.5628 83.8058C34.5545 83.9824 34.6009 84.1572 34.6956 84.3064C34.7904 84.4556 34.9289 84.572 35.0922 84.6396C35.2405 84.7157 35.4049 84.7553 35.5716 84.7553C35.7383 84.7553 35.9026 84.7157 36.051 84.6396C36.3331 84.4766 36.5453 84.2154 36.6471 83.9059C36.7414 83.6124 36.7601 83.2998 36.7013 82.9971C36.6687 82.702 36.6044 82.4113 36.5095 82.13C36.4155 81.8408 36.2404 81.5847 36.0051 81.3922C35.7741 81.2068 35.5051 81.0744 35.2172 81.0045C35.0674 80.9616 34.9085 80.9616 34.7587 81.0045C34.6151 81.0543 34.4851 81.1371 34.3793 81.2462C34.2732 81.3505 34.1895 81.4753 34.1334 81.6131C34.0729 81.7614 34.0729 81.9275 34.1334 82.0758C34.2005 82.213 34.308 82.3264 34.4413 82.4009C34.5746 82.4754 34.7276 82.5074 34.8796 82.4927C35.1617 82.4886 35.4357 82.3969 35.6633 82.2301C36.0953 81.9117 36.3926 81.4433 36.497 80.9169C36.6061 80.3973 36.5247 79.8558 36.2678 79.3912C36.1549 79.1683 35.994 78.9732 35.7967 78.8201C35.602 78.6723 35.3747 78.5737 35.1339 78.5324C34.8932 78.4835 34.643 78.5189 34.4252 78.6325C34.3175 78.6909 34.226 78.7752 34.1591 78.8778C34.0921 78.9805 34.0518 79.0981 34.0417 79.2202C34.043 79.4503 34.1206 79.6734 34.2625 79.8545C34.4044 80.0356 34.6024 80.1644 34.8254 80.2207C35.0345 80.2652 35.2518 80.2497 35.4525 80.1759C35.6531 80.1021 35.8288 79.9732 35.9593 79.8039C36.2096 79.5024 36.3559 79.128 36.3761 78.7367C36.34 78.055 36.1994 77.383 35.9593 76.744C35.7884 76.1437 35.6341 75.5935 35.4924 75.1016C35.2131 74.1219 34.9963 73.359 34.842 72.8338C34.7712 72.5795 34.7128 72.3836 34.6711 72.246C34.6295 72.1084 34.6044 72.0459 34.6044 72.0459C34.6044 72.0459 34.6044 72.1168 34.6503 72.2502C34.6961 72.3836 34.7378 72.592 34.8004 72.8463C34.9421 73.3757 35.1505 74.1428 35.4132 75.1224L35.8592 76.7691C36.001 77.3735 36.2761 78.0197 36.2469 78.7283C36.2167 79.0949 36.0707 79.4424 35.83 79.7205C35.7148 79.8701 35.5601 79.9844 35.3833 80.0507C35.2065 80.117 35.0147 80.1326 34.8295 80.0957C34.6424 80.0476 34.4757 79.9405 34.3541 79.7904C34.2325 79.6402 34.1624 79.455 34.1542 79.2619C34.1628 79.1641 34.1955 79.0699 34.2493 78.9877C34.3032 78.9055 34.3765 78.8379 34.4627 78.7909C34.6512 78.6976 34.8653 78.6697 35.0713 78.7117C35.2898 78.7491 35.4959 78.8393 35.6716 78.9743C35.8464 79.1161 35.9886 79.2938 36.0885 79.4954C36.2951 79.923 36.3495 80.4083 36.2427 80.8711C36.1426 81.3549 35.8662 81.7843 35.4674 82.0758C35.2677 82.2193 35.0295 82.2992 34.7837 82.3051C34.6682 82.319 34.5513 82.2973 34.4485 82.2429C34.3457 82.1885 34.2619 82.104 34.2084 82.0008C34.1827 81.8851 34.1898 81.7645 34.2288 81.6526C34.2678 81.5406 34.3373 81.4418 34.4294 81.3671C34.5152 81.2803 34.6191 81.2134 34.7337 81.1712C34.8526 81.1401 34.9775 81.1401 35.0963 81.1712C35.3589 81.2283 35.6027 81.3512 35.8047 81.5284C36.0067 81.7056 36.1603 81.9313 36.2511 82.1842C36.342 82.4545 36.4022 82.7342 36.4303 83.018C36.4868 83.2955 36.4695 83.5829 36.3803 83.8517C36.2974 84.1142 36.1189 84.3359 35.8801 84.4728C35.7591 84.5334 35.6256 84.5649 35.4903 84.5649C35.355 84.5649 35.2215 84.5334 35.1005 84.4728C34.9759 84.4243 34.8691 84.3387 34.7946 84.2277C34.7201 84.1166 34.6813 83.9854 34.6836 83.8517C34.7022 83.717 34.7575 83.5901 34.8436 83.4849C34.9296 83.3797 35.0431 83.3004 35.1714 83.2556C35.4355 83.1402 35.7336 83.1298 36.0051 83.2264C36.2714 83.3506 36.4854 83.5646 36.6096 83.8308C36.8489 84.4066 36.9169 85.0391 36.8055 85.6526C36.7688 85.9634 36.6741 86.2646 36.5262 86.5405C36.4583 86.673 36.3635 86.79 36.248 86.884C36.1324 86.978 35.9986 87.047 35.8551 87.0866C35.7085 87.1181 35.5566 87.1146 35.4117 87.0762C35.2668 87.0378 35.133 86.9656 35.0213 86.8657C34.9691 86.8194 34.9267 86.7631 34.8968 86.7C34.8669 86.637 34.8501 86.5685 34.8474 86.4988C34.8447 86.4291 34.8561 86.3595 34.881 86.2943C34.9058 86.2291 34.9437 86.1697 34.9921 86.1195C35.1005 86.0122 35.232 85.9313 35.3765 85.8829C35.5211 85.8345 35.6748 85.8198 35.8259 85.8402C36.1392 85.8861 36.4243 86.0465 36.6263 86.2904C36.8449 86.5252 36.9785 86.8265 37.0058 87.1462C37.033 87.4658 36.9522 87.7854 36.7763 88.0538C36.576 88.3105 36.2991 88.4967 35.9857 88.5852C35.6723 88.6736 35.3388 88.6598 35.0338 88.5457C34.8705 88.4786 34.7271 88.371 34.6169 88.233C34.57 88.1683 34.5427 88.0914 34.5383 88.0116C34.5339 87.9317 34.5525 87.8523 34.5919 87.7828C34.6922 87.6326 34.828 87.5095 34.9872 87.4244C35.1465 87.3393 35.3243 87.2949 35.5049 87.295C35.8734 87.2663 36.2401 87.369 36.54 87.585C36.8399 87.801 37.0536 88.1162 37.1432 88.4748C37.2111 88.8229 37.1621 89.1837 37.0038 89.5011C36.8454 89.8185 36.5867 90.0747 36.2678 90.2298C35.9581 90.4058 35.5996 90.476 35.2464 90.4299C35.0874 90.3805 34.9468 90.2846 34.8428 90.1546C34.7388 90.0246 34.6761 89.8664 34.6628 89.7004V89.7629C34.7032 89.6477 34.7764 89.5468 34.8735 89.4728C34.9705 89.3987 35.0871 89.3546 35.2089 89.3461C35.4673 89.3448 35.7216 89.4109 35.9468 89.5378C36.4165 89.7836 36.8079 90.1562 37.0765 90.6133C37.3408 91.0704 37.56 91.5521 37.731 92.0515L38.2979 93.5231C39.0483 95.4574 39.807 97.2749 40.549 99.0258C42.0331 102.486 43.4671 105.504 44.7177 107.989C45.3389 109.239 45.9142 110.344 46.4686 111.29C46.9357 112.097 47.4551 112.873 48.0235 113.612C48.4879 114.245 49.019 114.827 49.6076 115.346Z" fill="white"/>
<path d="M29.5603 53.1282C29.611 52.5984 29.7388 52.0788 29.9397 51.5858C30.5454 50.2599 31.6077 49.1961 32.9328 48.5885C33.8426 48.1776 34.8207 47.9387 35.8175 47.884C36.9647 47.825 38.1147 47.9118 39.24 48.1425C41.6287 48.5843 44.1383 49.614 46.948 50.0392C48.3177 50.2206 49.7053 50.2206 51.075 50.0392C52.3466 49.8477 53.5917 49.5092 54.7852 49.0304C56.8116 48.2143 58.6542 47.001 60.2045 45.462C61.2481 44.4329 62.1306 43.2524 62.8225 41.9603C62.9393 41.7634 63.0424 41.5586 63.1309 41.3475L63.331 40.8847C63.3811 40.7722 63.4186 40.6763 63.4519 40.6013C63.4679 40.5697 63.4792 40.536 63.4853 40.5012C63.4634 40.5293 63.4452 40.5602 63.4311 40.5929L63.2935 40.8681L63.0726 41.3183C62.9775 41.5267 62.8689 41.7286 62.7474 41.9227C62.0324 43.1874 61.1395 44.3428 60.0961 45.3536C57.6349 47.764 54.4716 49.3304 51.0625 49.8266C49.7122 50.0059 48.3442 50.0059 46.9939 49.8266C44.2217 49.4098 41.7079 48.3843 39.2901 47.9507C38.149 47.7227 36.9834 47.6414 35.8217 47.7089C34.8038 47.7706 33.8068 48.0238 32.8828 48.4551C31.5352 49.0864 30.4658 50.1899 29.8771 51.5566C29.7307 51.9286 29.634 52.3183 29.5895 52.7155V53.024C29.5745 53.0571 29.5647 53.0922 29.5603 53.1282Z" fill="#455A64"/>
<path d="M35.8509 44.1447C35.9496 44.1688 36.0499 44.1856 36.1511 44.1947C36.347 44.2239 36.6388 44.2656 37.0098 44.3323C37.7519 44.4532 38.8149 44.6908 40.1238 45.0159C41.6551 45.4287 43.2141 45.731 44.7886 45.9206C46.7236 46.1187 48.6756 46.0753 50.5998 45.7913C52.5247 45.5121 54.4096 45.0055 56.2151 44.2822C57.6953 43.6963 59.1128 42.9631 60.4463 42.0937C61.0049 41.7143 61.5052 41.3641 61.9304 41.0306C62.3556 40.6972 62.7141 40.4095 62.9892 40.151L63.6229 39.5549C63.7646 39.4174 63.8397 39.3423 63.8313 39.334C63.7465 39.389 63.6669 39.4518 63.5937 39.5216L62.935 40.0844C62.6516 40.3345 62.2722 40.6013 61.8554 40.9181C61.4385 41.2349 60.9216 41.5809 60.3629 41.9478C57.3913 43.8224 54.0598 45.0537 50.5831 45.562C48.6741 45.8416 46.7383 45.8892 44.8178 45.7038C43.2524 45.5336 41.7007 45.255 40.1739 44.87C38.8607 44.5657 37.7852 44.3489 37.0348 44.2489C36.6596 44.1989 36.3678 44.1697 36.1677 44.1572C36.0629 44.1421 35.9567 44.1379 35.8509 44.1447Z" fill="#455A64"/>
<path d="M35.2339 72.0752C35.2897 72.0643 35.3442 72.0476 35.3964 72.0251C35.5417 71.964 35.6812 71.8901 35.8133 71.8042C36.3173 71.4729 36.7358 71.0273 37.0347 70.5035C37.4624 69.7202 37.7182 68.8547 37.7851 67.9648C37.8811 66.8886 37.8811 65.8061 37.7851 64.7299C37.6949 63.654 37.5164 62.5874 37.2515 61.5408C37.0621 60.6764 36.749 59.8438 36.3219 59.0688C36.0144 58.5431 35.5856 58.0985 35.0713 57.7723C34.9401 57.6859 34.8005 57.6133 34.6544 57.5555C34.5502 57.518 34.4918 57.5013 34.4918 57.5097C34.4918 57.518 34.7044 57.6056 35.0421 57.8432C35.5133 58.1881 35.9031 58.632 36.1843 59.1438C36.5854 59.9153 36.8772 60.7389 37.0514 61.5908C37.3045 62.6293 37.4773 63.6857 37.5683 64.7507C37.6557 65.8133 37.6557 66.8813 37.5683 67.944C37.5152 68.8159 37.2824 69.6674 36.8847 70.4452C36.6095 70.9609 36.222 71.4083 35.7508 71.7542C35.434 71.9751 35.2214 72.0543 35.2339 72.0752Z" fill="#263238"/>
<path d="M53.9833 70.7872L58.2622 71.6267C58.9061 71.7531 59.3257 72.3774 59.1993 73.0213L59.168 73.1809C59.0417 73.8248 58.4173 74.2443 57.7734 74.118L53.4945 73.2785C52.8507 73.1522 52.4311 72.5278 52.5574 71.8839L52.5887 71.7244C52.7151 71.0805 53.3394 70.6609 53.9833 70.7872Z" fill="#455A64"/>
<path d="M53.1635 71.4204L33.383 65.2173C33.148 65.1439 32.8936 65.1662 32.675 65.2794C32.4564 65.3926 32.2913 65.5875 32.2157 65.8218C32.1776 65.9422 32.1641 66.069 32.1761 66.1948C32.1882 66.3205 32.2255 66.4425 32.2858 66.5534C32.3462 66.6644 32.4283 66.762 32.5273 66.8404C32.6263 66.9189 32.7401 66.9765 32.8619 67.0099L53.0885 72.4709L53.1635 71.4204Z" fill="#455A64"/>
<path d="M38.5438 68.6942C38.332 68.6008 38.1131 68.5241 37.8893 68.4649L36.0801 67.9147C35.3214 67.6812 34.3876 67.4311 33.4038 67.1101C33.1608 67.0195 32.9403 66.8773 32.7576 66.6932C32.5775 66.5097 32.4771 66.2625 32.4783 66.0054C32.4793 65.879 32.5201 65.7562 32.595 65.6544C32.6698 65.5526 32.7749 65.477 32.8952 65.4384C33.17 65.3685 33.4589 65.3772 33.7289 65.4634L39.661 67.3727L41.4661 67.9313C41.6728 68.0166 41.8861 68.0849 42.1039 68.1356C41.8954 68.0342 41.6794 67.9492 41.4577 67.8813L39.6735 67.256C38.1603 66.7432 36.0843 66.0304 33.7498 65.2842C33.4393 65.1943 33.1098 65.1943 32.7993 65.2842C32.6408 65.3415 32.5034 65.4454 32.4052 65.5823C32.3069 65.7193 32.2525 65.8827 32.249 66.0512C32.2486 66.3633 32.3715 66.663 32.5909 66.885C32.8103 67.0776 33.0693 67.2199 33.3496 67.3019C34.3709 67.6228 35.2839 67.848 36.0551 68.0647L37.8643 68.5525C38.0859 68.6209 38.3134 68.6684 38.5438 68.6942Z" fill="#263238"/>
<path d="M70.868 53.5452C70.1927 55.9213 72.6064 57.9598 73.4568 60.2818C74.2905 62.5246 73.5818 65.0383 72.5688 67.206C71.5558 69.3738 70.2219 71.4248 69.7049 73.7551C68.4251 79.5079 73.6277 85.7068 72.623 91.5138C72.2645 93.6315 71.4099 95.8409 70.6721 97.8544C69.9592 99.7532 69.9592 101.846 70.6721 103.745C71.7976 107.08 73.7069 108.643 75.0492 111.886C75.7371 113.554 75.6829 115.405 75.6495 117.197C75.6162 118.99 75.6245 120.866 76.4249 122.475C77.2253 124.084 79.0512 125.326 80.7854 124.859C79.8495 125.908 78.5941 126.619 77.2135 126.882C75.8329 127.145 74.4041 126.945 73.1483 126.314C70.868 125.097 69.5924 122.629 68.5002 120.286C63.2143 108.943 60.417 107.984 60.5796 95.4699C60.5796 94.6654 60.738 82.13 60.738 82.13C61.8336 81.8359 62.884 81.3942 63.8604 80.8169C69.7633 76.7399 69.9801 69.478 69.9342 63.8461" fill="#263238"/>
<path d="M59.0706 91.5137V96.2368C59.0706 96.2368 62.7016 114.767 63.7938 125.059C64.886 135.352 65.0652 138.07 65.0652 138.07C65.0652 138.07 62.4598 142.134 57.0113 135.231C51.5628 128.328 50.5914 127.24 48.4112 127.119C48.4112 127.119 51.075 98.1753 50.9541 97.1039C50.8191 96.3442 50.4854 95.6337 49.987 95.0446L59.0706 91.5137Z" fill="#FFBE9D"/>
<path d="M51.9254 80.8584C51.9254 80.8584 57.8575 88.729 58.3411 89.8128C58.8247 90.8967 59.0706 91.5053 59.0706 91.5053L49.987 95.0195L41.1452 85.3315L37.8769 76.7314L38.8482 66.5597C38.8482 66.5597 40.7825 66.4388 41.1452 68.1355C41.3675 69.2098 41.4501 70.3083 41.3911 71.4038L44.1008 69.2235L48.4738 67.8937C48.4738 67.8937 49.5034 69.5862 47.8068 70.4366C46.1101 71.2871 45.6265 71.2704 45.6265 71.2704L44.1008 73.9342L44.7678 76.919L47.8609 74.0009C48.1605 73.718 48.5497 73.5489 48.9609 73.523C49.3721 73.4971 49.7794 73.6161 50.1121 73.8592L52.113 75.3099L53.9848 74.4761L57.6157 77.7236L59.0706 79.0534C59.0706 79.0534 58.0993 80.8709 56.1525 80.0247L54.2141 79.1909L51.9254 80.8584Z" fill="#FFBE9D"/>
<path d="M59.0706 93.1103C59.0761 93.0256 59.0761 92.9407 59.0706 92.856C59.0706 92.6893 59.0498 92.4391 59.0123 92.1182C58.9636 91.7173 58.887 91.3203 58.783 90.9301C58.6533 90.3913 58.4395 89.8764 58.1493 89.4043C56.7903 87.32 54.6518 84.4019 51.9838 80.8126V80.921L54.2849 79.2285H54.2057L55.4022 79.7579C55.8129 79.9582 56.2396 80.1241 56.6778 80.254C57.1546 80.3682 57.6565 80.3106 58.0951 80.0914C58.5412 79.862 58.9118 79.5088 59.1623 79.0743L59.1957 79.0159L59.1415 78.9659C57.5824 77.4985 55.844 76.0186 54.0598 74.4345L54.0056 74.3886L53.9473 74.422L52.334 75.3766H52.4382L50.5539 74.126C50.2246 73.9134 49.9286 73.7091 49.5743 73.4924C49.3813 73.3965 49.1657 73.3555 48.9511 73.3739C48.7364 73.3923 48.5309 73.4693 48.357 73.5966L44.6844 76.7023L44.8553 76.7606C44.6552 75.8643 44.4384 74.893 44.2217 73.9134V73.9884L45.7474 71.3246L45.6515 71.3788C45.9108 71.3435 46.1644 71.2748 46.4061 71.1745C46.6437 71.087 46.8813 70.9869 47.1189 70.8827C47.3565 70.7785 47.59 70.6618 47.8234 70.5492C47.9443 70.4909 48.0611 70.4117 48.1778 70.345C48.2919 70.2635 48.398 70.1714 48.4946 70.0698C48.6346 69.9214 48.7436 69.7464 48.8152 69.5553C48.8868 69.3642 48.9195 69.1607 48.9115 68.9568C48.8981 68.5584 48.7879 68.1692 48.5905 67.8229L48.5488 67.752L48.4654 67.777L44.0966 69.111H44.0758L41.3661 71.2913L41.537 71.383C41.5954 70.3035 41.5184 69.2209 41.3077 68.1606C41.2634 67.8871 41.1618 67.6262 41.0095 67.3948C40.8572 67.1635 40.6576 66.967 40.424 66.8182C39.9579 66.5432 39.4223 66.4085 38.8815 66.4305H38.769V66.5223C38.4272 70.1365 38.1062 73.5465 37.8102 76.6939V76.7148C39.0191 79.883 40.1196 82.7594 41.0951 85.3065L47.9402 92.8602L49.7994 94.8737C50.012 95.0946 50.1746 95.2697 50.2871 95.3906L50.4581 95.5615C50.4581 95.5615 50.408 95.4948 50.3038 95.3739L49.8328 94.8445L47.9985 92.806L41.1868 85.3023V85.3232L37.9352 76.7189V76.7606C38.2396 73.6132 38.5647 70.2074 38.9149 66.589L38.819 66.6848C39.3162 66.6645 39.8086 66.789 40.2364 67.0434C40.4464 67.1769 40.6254 67.3539 40.7613 67.5624C40.8972 67.771 40.9869 68.0062 41.0243 68.2523C41.2333 69.2931 41.3089 70.3564 41.2494 71.4163V71.6581L41.437 71.508L44.1883 69.3153H44.1508L48.5196 67.9855L48.3987 67.9355C48.5745 68.2497 48.6731 68.6012 48.6864 68.961C48.6939 69.1373 48.6661 69.3133 48.6045 69.4787C48.543 69.6441 48.4489 69.7955 48.3278 69.9239C48.2416 70.0121 48.1482 70.0929 48.0486 70.1657C47.936 70.2282 47.8359 70.2949 47.7192 70.3533C47.4858 70.4659 47.2565 70.5826 47.023 70.6826C46.5839 70.8969 46.1206 71.0579 45.6432 71.162H45.5765L45.5515 71.2037L44.0257 73.8675L44.0049 73.905V73.9467C44.2258 74.9264 44.4218 75.8977 44.6427 76.794L44.6802 76.9691L44.8178 76.8523L48.4779 73.755C48.6201 73.6491 48.7887 73.5845 48.9653 73.5683C49.1418 73.5521 49.3194 73.585 49.4784 73.6633C49.7869 73.8467 50.1204 74.0801 50.4372 74.2844L52.3256 75.535L52.3757 75.5684L52.4299 75.5392L54.0432 74.5804H53.9264C55.7106 76.1562 57.4532 77.636 59.0164 79.0951L58.9956 78.9867C58.7653 79.389 58.4236 79.7162 58.0118 79.9288C57.6102 80.1331 57.1487 80.1863 56.7111 80.0789C56.282 79.9533 55.8637 79.7929 55.4605 79.5995L54.2641 79.0743H54.2182L54.1807 79.0993L51.8838 80.8001L51.8212 80.846L51.8671 80.9085C54.5476 84.4977 56.707 87.3908 58.0826 89.4544C58.3722 89.9178 58.5901 90.4223 58.7288 90.9509C58.8351 91.3373 58.9172 91.7299 58.9747 92.1265C59.0206 92.4475 59.0414 92.6976 59.054 92.8602C59.0665 93.0228 59.0706 93.1103 59.0706 93.1103Z" fill="#EB996E"/>
<path d="M47.8317 82.6803C47.8734 82.6803 47.715 82.0384 47.6483 81.0129C47.6043 80.4151 47.7014 79.8154 47.9317 79.262C48.2795 78.614 48.7751 78.057 49.3783 77.6362C50.4556 76.8104 51.5787 76.0463 52.7424 75.3476L53.8055 74.7223C53.9421 74.6548 54.0707 74.5723 54.189 74.4763C54.0422 74.512 53.9017 74.5696 53.7721 74.6472C53.5053 74.7681 53.126 74.9599 52.6674 75.2142C51.4743 75.8798 50.3318 76.6322 49.2491 77.4653C48.6184 77.9052 48.1059 78.4936 47.7567 79.1786C47.5172 79.7614 47.4283 80.395 47.4982 81.0212C47.5338 81.4345 47.6021 81.8443 47.7025 82.2468C47.7251 82.3966 47.7686 82.5426 47.8317 82.6803Z" fill="#EB996E"/>
<path d="M41.4744 78.9033C41.4477 78.5361 41.3962 78.1712 41.3201 77.8111C41.1902 76.9418 41.1275 76.0637 41.1326 75.1848C41.1438 74.3033 41.2218 73.424 41.366 72.5543C41.4463 72.1971 41.5034 71.8351 41.5369 71.4705C41.3837 71.8063 41.2758 72.1609 41.2159 72.5251C40.8312 74.2744 40.8156 76.0846 41.1701 77.8403C41.2239 78.2065 41.3262 78.564 41.4744 78.9033Z" fill="#EB996E"/>
<path d="M81.9569 48.0134L86.2924 40.3555C83.6075 35.9946 82.6508 30.7871 83.6104 25.7566C84.57 20.7261 87.3764 16.2365 91.4781 13.1701C95.5798 10.1037 100.68 8.68238 105.776 9.18544C110.873 9.68851 115.597 12.0796 119.02 15.8887C122.443 19.6979 124.317 24.6496 124.275 29.7706C124.232 34.8916 122.276 39.8115 118.79 43.5634C115.305 47.3152 110.542 49.6276 105.438 50.0461C100.334 50.4646 95.2576 48.9588 91.2073 45.8249L81.9569 48.0134Z" fill="white"/>
<path d="M81.9569 48.0134L91.2364 45.8874H91.3156L91.2656 45.8207L91.1906 45.8957C92.4905 46.905 93.9052 47.7572 95.4052 48.4345C97.1908 49.2335 99.0818 49.7726 101.02 50.0352C102.095 50.1849 103.18 50.2393 104.264 50.1978C104.818 50.1686 105.389 50.152 105.96 50.1061L107.69 49.8435C112.846 48.8228 117.419 45.8738 120.476 41.5978C122.182 39.2353 123.362 36.5344 123.936 33.6772C124.528 30.6603 124.445 27.5498 123.694 24.5686C122.921 21.4525 121.416 18.5657 119.304 16.1478L118.471 15.2265C118.196 14.918 117.866 14.6637 117.57 14.3928C117.275 14.0992 116.964 13.8209 116.641 13.559L115.657 12.8253C115.333 12.5854 114.993 12.3681 114.64 12.175L113.602 11.5455L112.514 11.0244C112.16 10.8373 111.793 10.6743 111.417 10.5367C108.504 9.38594 105.37 8.90302 102.246 9.1235C99.2898 9.33069 96.4152 10.1845 93.8252 11.6247C89.1695 14.2156 85.6887 18.4979 84.1038 23.5848C83.4671 25.7494 83.1663 27.9989 83.2117 30.2547C83.266 32.2092 83.603 34.1455 84.2122 36.0034C84.7212 37.5493 85.411 39.0297 86.2673 40.4139V40.3597L81.9694 48.0426C82.1528 47.7216 83.5452 45.3079 86.359 40.4097V40.3847V40.3597C85.5165 38.9787 84.838 37.5041 84.3372 35.9658C83.7429 34.1167 83.4159 32.1922 83.3659 30.2505C83.3296 28.0149 83.6346 25.7868 84.2705 23.6431C85.8535 18.6068 89.3095 14.3704 93.9253 11.8082C96.4917 10.3906 99.3376 9.5525 102.263 9.35278C105.358 9.13475 108.462 9.61486 111.346 10.7576C111.718 10.8939 112.08 11.0555 112.43 11.2412L113.506 11.7623L114.535 12.3876C114.887 12.5831 115.223 12.8061 115.54 13.0546L116.516 13.78C116.845 14.0134 117.124 14.3177 117.433 14.5803C117.741 14.843 118.05 15.1139 118.325 15.4141L119.158 16.3229C121.248 18.7176 122.737 21.5756 123.502 24.6603C124.246 27.6113 124.33 30.6901 123.748 33.6772C123.18 36.5019 122.014 39.1726 120.33 41.5102C117.295 45.7383 112.769 48.657 107.665 49.6767L105.952 49.9394C105.385 49.9894 104.818 50.0019 104.285 50.0352C103.209 50.0787 102.133 50.0285 101.066 49.8852C97.5023 49.4132 94.1268 48.0066 91.2823 45.8082L90.9571 45.558L91.2073 45.8874L91.2406 45.7998L81.9569 48.0134Z" fill="#263238"/>
<path d="M108.191 29.6294C108.191 29.9592 108.288 30.2816 108.472 30.5558C108.655 30.83 108.915 31.0437 109.22 31.17C109.525 31.2962 109.86 31.3292 110.183 31.2648C110.507 31.2005 110.804 31.0417 111.037 30.8085C111.27 30.5753 111.429 30.2782 111.494 29.9547C111.558 29.6312 111.525 29.296 111.399 28.9913C111.273 28.6866 111.059 28.4262 110.785 28.2429C110.51 28.0597 110.188 27.9619 109.858 27.9619C109.416 27.9619 108.992 28.1376 108.679 28.4503C108.366 28.763 108.191 29.1872 108.191 29.6294Z" fill="#263238"/>
<path d="M101.537 29.6294C101.537 29.9592 101.635 30.2816 101.818 30.5558C102.002 30.83 102.262 31.0437 102.567 31.17C102.871 31.2962 103.207 31.3292 103.53 31.2648C103.854 31.2005 104.151 31.0417 104.384 30.8085C104.617 30.5753 104.776 30.2782 104.84 29.9547C104.905 29.6312 104.872 29.296 104.745 28.9913C104.619 28.6866 104.405 28.4262 104.131 28.2429C103.857 28.0597 103.535 27.9619 103.205 27.9619C102.763 27.9619 102.338 28.1376 102.026 28.4503C101.713 28.763 101.537 29.1872 101.537 29.6294Z" fill="#263238"/>
<path d="M94.8966 28.7957C94.7308 29.0812 94.6534 29.4095 94.6743 29.739C94.6953 30.0685 94.8136 30.3844 95.0142 30.6466C95.2148 30.9088 95.4888 31.1056 95.8014 31.2119C96.1139 31.3183 96.451 31.3294 96.77 31.244C97.0889 31.1586 97.3753 30.9804 97.5928 30.732C97.8104 30.4837 97.9493 30.1763 97.992 29.8489C98.0346 29.5215 97.9792 29.1888 97.8326 28.893C97.686 28.5971 97.4549 28.3515 97.1685 28.1871C96.7863 27.9677 96.3327 27.9086 95.907 28.0226C95.4813 28.1367 95.118 28.4146 94.8966 28.7957Z" fill="#263238"/>
<path d="M-2.67029e-05 160.323C-2.67029e-05 160.385 42.3791 160.431 94.6298 160.431C146.88 160.431 189.26 160.385 189.26 160.323C189.26 160.26 146.893 160.214 94.6089 160.214C42.3249 160.214 -2.67029e-05 160.264 -2.67029e-05 160.323Z" fill="#263238"/>
<path d="M53.5471 160.427C52.569 158.938 51.2495 157.705 49.6986 156.829C48.1477 155.953 46.4101 155.46 44.6302 155.391C38.5397 155.182 35.4966 160.427 35.4966 160.427H53.5471Z" fill="#455A64"/>
<path d="M41.8748 160.264C41.9552 159.966 42.0151 159.662 42.054 159.355C42.3814 157.909 43.2437 156.64 44.4677 155.803C44.7373 155.652 44.9977 155.485 45.2473 155.303C44.9326 155.351 44.6323 155.468 44.3676 155.645C43.7032 156.033 43.1338 156.564 42.7011 157.2C42.2683 157.837 41.9832 158.561 41.8664 159.322C41.801 159.633 41.8039 159.954 41.8748 160.264Z" fill="#263238"/>
<path d="M57.3156 160.206V160.164C57.3255 159.551 57.5763 158.966 58.014 158.536C58.4516 158.106 59.0408 157.866 59.6542 157.867H111.488C112.108 157.867 112.703 158.114 113.142 158.552C113.58 158.991 113.827 159.586 113.827 160.206H57.3156Z" fill="#455A64"/>
<path d="M156.548 69.3862C156.548 70.4784 155.714 135.577 155.714 135.577L107.357 147.212H103.384L105.927 56.334H109.562L156.548 69.3862Z" fill="#263238"/>
<path d="M146.322 132.872L161.308 160.335H147.61C150.061 160.093 125.933 160.335 125.933 160.335L147.61 154.586L140.827 139.183L141.407 132.872H146.322Z" fill="#263238"/>
<path d="M145.988 137.941L147.61 86.7489L132.886 85.3398L131.073 139.996L136.329 140.263L145.988 137.941Z" fill="#263238"/>
<path d="M129.013 142.022C129.013 142.022 129.013 141.943 129.013 141.784C129.013 141.626 129.013 141.388 129.013 141.084C129.013 140.459 129.013 139.546 129.013 138.366C129.013 135.986 129.034 132.53 129.047 128.182C129.047 119.482 129.068 107.238 129.084 93.0396L128.98 93.1439H146.384L146.276 93.0355V95.395C146.276 109.243 146.276 122.129 146.297 132.868V132.888C150.807 141.155 154.547 148.017 157.165 152.811C158.474 155.203 159.503 157.079 160.208 158.363C160.558 158.997 160.829 159.481 161.012 159.818C161.196 160.156 161.3 160.31 161.3 160.31C161.3 160.31 161.212 160.135 161.037 159.806C160.862 159.476 160.595 158.972 160.258 158.334C159.562 157.046 158.549 155.162 157.256 152.761L146.459 132.801V132.847C146.459 122.108 146.459 109.223 146.459 95.3741V92.9062H128.876V93.0105C128.876 107.209 128.905 119.453 128.913 128.153C128.913 132.497 128.938 135.957 128.947 138.337C128.947 139.517 128.947 140.421 128.947 141.055C128.947 141.359 128.947 141.593 128.947 141.755C128.947 141.918 129.013 142.022 129.013 142.022Z" fill="#455A64"/>
<path d="M140.827 139.183C140.773 139.204 142.858 144.027 145.484 149.947C148.11 155.866 150.286 160.652 150.34 160.627C150.395 160.602 148.31 155.783 145.684 149.859C143.058 143.935 140.882 139.158 140.827 139.183Z" fill="#455A64"/>
<path d="M107.378 147.229C107.378 147.229 107.378 147.149 107.378 146.995C107.378 146.841 107.378 146.603 107.378 146.307C107.378 145.694 107.398 144.806 107.411 143.664C107.411 141.371 107.482 138.053 107.561 133.951C107.715 125.747 108.086 114.421 108.541 101.91C108.995 89.4001 109.341 78.0612 109.458 69.8572C109.52 65.7552 109.55 62.4327 109.537 60.1399C109.537 58.9977 109.537 58.1098 109.537 57.497C109.537 57.201 109.537 56.9759 109.537 56.8091C109.537 56.6424 109.537 56.5757 109.537 56.5757C109.537 56.5757 109.537 56.6549 109.537 56.8091C109.537 56.9634 109.537 57.201 109.537 57.497C109.537 58.1098 109.537 58.9977 109.504 60.1399C109.504 62.4327 109.437 65.751 109.354 69.853C109.174 78.0571 108.803 89.396 108.349 101.902C107.895 114.408 107.549 125.743 107.432 133.947C107.369 138.049 107.344 141.371 107.353 143.664C107.353 144.806 107.353 145.694 107.353 146.307C107.353 146.603 107.353 146.832 107.353 146.995C107.353 147.158 107.378 147.229 107.378 147.229Z" fill="#455A64"/>
<path d="M131.652 92.6602C131.59 92.6602 131.544 103.549 131.544 116.976C131.544 130.404 131.59 141.292 131.652 141.292C131.715 141.292 131.76 130.408 131.76 116.976C131.76 103.545 131.71 92.6602 131.652 92.6602Z" fill="#455A64"/>
<path d="M157.702 156.05C157.781 155.959 157.851 155.862 157.911 155.758C157.982 155.658 158.061 155.537 158.153 155.399C158.263 155.236 158.363 155.066 158.453 154.891C159.064 153.788 159.509 152.601 159.774 151.368C160.159 149.536 160.246 147.654 160.033 145.794C159.772 143.518 159.162 141.295 158.224 139.204C157.727 138.124 157.092 137.114 156.335 136.198C156.163 135.971 155.978 135.754 155.781 135.548C155.589 135.339 155.405 135.131 155.214 134.931C154.797 134.551 154.434 134.164 154.021 133.834C153.261 133.187 152.451 132.601 151.599 132.079C151.183 131.854 150.803 131.617 150.411 131.429C150.019 131.242 149.648 131.041 149.273 130.908C148.115 130.412 146.89 130.086 145.638 129.941C145.3 129.895 144.958 129.874 144.617 129.878C144.498 129.868 144.378 129.868 144.258 129.878C144.376 129.898 144.494 129.911 144.613 129.916C144.952 129.931 145.29 129.966 145.626 130.02C146.863 130.196 148.071 130.541 149.215 131.046C149.586 131.183 149.944 131.392 150.336 131.571C150.728 131.75 151.103 131.988 151.508 132.229C152.346 132.752 153.144 133.339 153.892 133.985C154.309 134.31 154.672 134.697 155.068 135.073C155.255 135.268 155.439 135.489 155.626 135.681C155.818 135.887 155.999 136.103 156.168 136.327C156.914 137.231 157.539 138.227 158.028 139.291C158.957 141.36 159.565 143.559 159.833 145.811C160.054 147.65 159.984 149.513 159.624 151.331C159.372 152.554 158.951 153.737 158.374 154.845C158.291 155.023 158.196 155.196 158.09 155.362L157.869 155.733C157.807 155.834 157.751 155.94 157.702 156.05Z" fill="#455A64"/>
</svg>
