<svg width="39" height="39" viewBox="0 0 39 39" fill="none" xmlns="http://www.w3.org/2000/svg">
<path d="M19.9263 0.60346C13.2246 0.585882 7.32715 4.05317 3.95655 9.29145C3.80714 9.52436 3.97413 9.83198 4.25098 9.83198H7.34034C7.55128 9.83198 7.74903 9.73969 7.88087 9.57709C8.18848 9.20356 8.51807 8.84321 8.86524 8.50043C10.2979 7.07221 11.9634 5.94721 13.8179 5.16498C15.7339 4.35639 17.773 3.9433 19.8779 3.9433C21.9829 3.9433 24.022 4.352 25.938 5.16498C27.7925 5.94721 29.458 7.07221 30.8906 8.50043C32.3232 9.92866 33.4439 11.5942 34.2305 13.4443C35.0435 15.3603 35.4522 17.395 35.4522 19.4999C35.4522 21.6049 35.0391 23.6396 34.2305 25.5556C33.4482 27.4057 32.3232 29.0712 30.8906 30.4995C29.458 31.9277 27.7925 33.0527 25.938 33.8349C24.0205 34.6448 21.9595 35.0603 19.8779 35.0566C17.773 35.0566 15.7339 34.6435 13.8179 33.8349C11.967 33.0535 10.2851 31.9208 8.86524 30.4995C8.51807 30.1523 8.19288 29.7919 7.88087 29.4228C7.74903 29.2602 7.54688 29.1679 7.34034 29.1679H4.25098C3.97413 29.1679 3.80274 29.4755 3.95655 29.7084C7.32276 34.9335 13.1939 38.3964 19.8779 38.3964C30.2578 38.3964 38.6865 30.0424 38.792 19.6933C38.8975 9.17719 30.4556 0.629827 19.9263 0.60346ZM14.3593 24.4218V21.082H0.560455C0.367096 21.082 0.208893 20.9238 0.208893 20.7304V18.2695C0.208893 18.0761 0.367096 17.9179 0.560455 17.9179H14.3593V14.5781C14.3593 14.2836 14.7021 14.1166 14.9306 14.3012L21.1664 19.2231C21.2084 19.256 21.2424 19.298 21.2658 19.346C21.2892 19.3939 21.3013 19.4466 21.3013 19.4999C21.3013 19.5533 21.2892 19.606 21.2658 19.6539C21.2424 19.7019 21.2084 19.7439 21.1664 19.7768L14.9306 24.6987C14.7021 24.8789 14.3593 24.7163 14.3593 24.4218Z" fill="white"/>
</svg>
