<svg width="383" height="284" viewBox="0 0 383 284" fill="none" xmlns="http://www.w3.org/2000/svg">
<path d="M172.523 0H0V23.2604H125.783V130.427H146.504V23.2604H172.523V0Z" fill="white"/>
<path d="M193.225 0H255.525V14.539H206.416V60.7993H255.525V73.6099H206.416V117.616H255.525V130.427H193.225V0Z" fill="white"/>
<path d="M194.605 144.919H255.333V153.227H207.463V179.661H255.333V186.982H207.463V212.128H255.333V219.449H194.605V144.919Z" fill="white"/>
<path d="M281.557 0H383L378.901 14.4397H296.635V60.3843H366.093L362.506 73.1074H296.635V117.704H350.21L346.624 130.427H281.557V0Z" fill="white"/>
<path d="M276.726 144.919H341.595L338.974 153.17H286.368V179.424H330.783L328.49 186.695H286.368V212.178H322.172L319.878 219.449H276.726V144.919Z" fill="white"/>
<path d="M166.014 159.019C157.383 151.627 146.755 146.96 135.472 145.608C124.189 144.257 112.759 146.281 102.626 151.426C92.4942 156.57 84.115 164.604 78.5486 174.511C72.9821 184.417 70.4783 195.752 71.3539 207.082C72.2294 218.412 76.4449 229.227 83.4673 238.161C90.4898 247.095 100.004 253.746 110.806 257.273C121.608 260.799 133.214 261.044 144.155 257.975C155.096 254.906 164.882 248.661 172.274 240.031L159.931 229.458C154.63 235.648 147.612 240.126 139.766 242.327C131.92 244.528 123.597 244.352 115.85 241.823C108.103 239.294 101.281 234.524 96.2446 228.118C91.2086 221.711 88.1855 213.955 87.5576 205.83C86.9297 197.705 88.7253 189.576 92.7172 182.472C96.7091 175.367 102.718 169.606 109.984 165.917C117.25 162.227 125.447 160.776 133.539 161.745C141.63 162.714 149.252 166.061 155.441 171.362L166.014 159.019Z" fill="white"/>
<path d="M198.925 238.135C198.152 238.135 197.412 238.034 196.703 237.831C195.995 237.62 195.424 237.348 194.992 237.017L195.751 235.333C196.165 235.628 196.653 235.872 197.214 236.065C197.784 236.249 198.359 236.341 198.939 236.341C199.381 236.341 199.735 236.299 200.002 236.217C200.278 236.125 200.48 236 200.609 235.844C200.738 235.688 200.802 235.508 200.802 235.306C200.802 235.048 200.701 234.846 200.499 234.698C200.296 234.542 200.03 234.418 199.698 234.326C199.367 234.225 198.999 234.133 198.594 234.05C198.198 233.958 197.798 233.847 197.393 233.719C196.998 233.59 196.634 233.424 196.303 233.222C195.972 233.019 195.7 232.752 195.489 232.421C195.286 232.09 195.185 231.667 195.185 231.151C195.185 230.599 195.332 230.098 195.627 229.647C195.93 229.187 196.381 228.823 196.979 228.557C197.587 228.281 198.346 228.143 199.257 228.143C199.864 228.143 200.462 228.216 201.051 228.363C201.64 228.501 202.16 228.713 202.61 228.998L201.92 230.696C201.47 230.438 201.019 230.25 200.568 230.13C200.117 230.001 199.675 229.937 199.243 229.937C198.81 229.937 198.456 229.987 198.18 230.089C197.904 230.19 197.706 230.323 197.587 230.489C197.467 230.645 197.407 230.829 197.407 231.041C197.407 231.289 197.508 231.492 197.711 231.648C197.913 231.795 198.18 231.915 198.511 232.007C198.843 232.099 199.206 232.191 199.602 232.283C200.007 232.375 200.407 232.481 200.802 232.601C201.207 232.72 201.575 232.881 201.907 233.084C202.238 233.286 202.505 233.553 202.707 233.884C202.919 234.215 203.025 234.634 203.025 235.14C203.025 235.683 202.873 236.18 202.569 236.631C202.265 237.082 201.81 237.445 201.203 237.721C200.605 237.997 199.845 238.135 198.925 238.135ZM210.225 238.135C208.854 238.135 207.782 237.753 207.009 236.99C206.236 236.226 205.85 235.136 205.85 233.719V228.308H208.086V233.636C208.086 234.556 208.274 235.218 208.651 235.623C209.029 236.028 209.558 236.23 210.239 236.23C210.92 236.23 211.449 236.028 211.826 235.623C212.203 235.218 212.392 234.556 212.392 233.636V228.308H214.6V233.719C214.6 235.136 214.214 236.226 213.441 236.99C212.668 237.753 211.596 238.135 210.225 238.135ZM218.19 237.969V228.308H222.372C223.237 228.308 223.982 228.451 224.608 228.736C225.233 229.012 225.716 229.412 226.057 229.937C226.397 230.461 226.567 231.087 226.567 231.814C226.567 232.532 226.397 233.153 226.057 233.677C225.716 234.202 225.233 234.606 224.608 234.892C223.982 235.168 223.237 235.306 222.372 235.306H219.432L220.426 234.298V237.969H218.19ZM220.426 234.547L219.432 233.484H222.247C222.937 233.484 223.453 233.337 223.793 233.042C224.134 232.748 224.304 232.338 224.304 231.814C224.304 231.28 224.134 230.866 223.793 230.572C223.453 230.277 222.937 230.13 222.247 230.13H219.432L220.426 229.067V234.547ZM231.6 232.2H236.251V233.939H231.6V232.2ZM231.766 236.175H237.024V237.969H229.544V228.308H236.845V230.102H231.766V236.175ZM240.184 237.969V228.308H244.366C245.23 228.308 245.976 228.451 246.601 228.736C247.227 229.012 247.71 229.412 248.051 229.937C248.391 230.461 248.561 231.087 248.561 231.814C248.561 232.532 248.391 233.153 248.051 233.677C247.71 234.192 247.227 234.588 246.601 234.864C245.976 235.14 245.23 235.278 244.366 235.278H241.426L242.419 234.298V237.969H240.184ZM246.325 237.969L243.91 234.464H246.298L248.741 237.969H246.325ZM242.419 234.547L241.426 233.498H244.241C244.931 233.498 245.447 233.35 245.787 233.056C246.128 232.752 246.298 232.338 246.298 231.814C246.298 231.28 246.128 230.866 245.787 230.572C245.447 230.277 244.931 230.13 244.241 230.13H241.426L242.419 229.067V234.547ZM251.713 237.969V228.308H253.562L257.675 235.126H256.695L260.739 228.308H262.575L262.603 237.969H260.505L260.491 231.524H260.877L257.648 236.948H256.64L253.342 231.524H253.811V237.969H251.713ZM265.005 237.969L269.311 228.308H271.52L275.84 237.969H273.493L269.96 229.44H270.843L267.296 237.969H265.005ZM267.158 235.899L267.752 234.202H272.72L273.328 235.899H267.158ZM278.222 237.969V228.308H282.404C283.269 228.308 284.014 228.451 284.64 228.736C285.266 229.012 285.749 229.412 286.089 229.937C286.43 230.461 286.6 231.087 286.6 231.814C286.6 232.532 286.43 233.153 286.089 233.677C285.749 234.192 285.266 234.588 284.64 234.864C284.014 235.14 283.269 235.278 282.404 235.278H279.464L280.458 234.298V237.969H278.222ZM284.364 237.969L281.949 234.464H284.336L286.779 237.969H284.364ZM280.458 234.547L279.464 233.498H282.28C282.97 233.498 283.485 233.35 283.826 233.056C284.166 232.752 284.336 232.338 284.336 231.814C284.336 231.28 284.166 230.866 283.826 230.572C283.485 230.277 282.97 230.13 282.28 230.13H279.464L280.458 229.067V234.547ZM291.753 235.761L291.629 233.18L296.252 228.308H298.736L294.568 232.794L293.326 234.119L291.753 235.761ZM289.751 237.969V228.308H291.974V237.969H289.751ZM296.363 237.969L292.926 233.76L294.389 232.173L298.971 237.969H296.363ZM303.405 232.2H308.056V233.939H303.405V232.2ZM303.57 236.175H308.829V237.969H301.348V228.308H308.649V230.102H303.57V236.175ZM313.989 237.969V230.13H310.898V228.308H319.317V230.13H316.225V237.969H313.989Z" fill="white"/>
<path d="M319.512 242.222C319.512 244.487 319.065 246.731 318.198 248.824C317.331 250.917 316.061 252.819 314.459 254.421C312.857 256.023 310.955 257.294 308.862 258.161C306.768 259.028 304.525 259.474 302.259 259.474C299.994 259.474 297.75 259.028 295.657 258.161C293.564 257.294 291.662 256.023 290.06 254.421C288.458 252.819 287.187 250.917 286.32 248.824C285.453 246.731 285.007 244.487 285.007 242.222L293.369 242.222C293.369 243.389 293.599 244.545 294.046 245.624C294.492 246.703 295.147 247.683 295.973 248.508C296.798 249.334 297.779 249.989 298.857 250.436C299.936 250.882 301.092 251.112 302.259 251.112C303.427 251.112 304.583 250.882 305.662 250.436C306.74 249.989 307.721 249.334 308.546 248.508C309.372 247.683 310.027 246.703 310.473 245.624C310.92 244.545 311.15 243.389 311.15 242.222H319.512Z" fill="white"/>
</svg>
