<svg width="47" height="35" viewBox="0 0 47 35" fill="none" xmlns="http://www.w3.org/2000/svg">
<path d="M20.8557 0H0V2.81188H15.2055V15.7669H17.7104V2.81188H20.8557V0Z" fill="white"/>
<path d="M23.3584 3.05176e-05H30.8897V1.7576H24.9529V7.34987H30.8897V8.8985H24.9529V14.2183H30.8897V15.7669H23.3584V3.05176e-05Z" fill="white"/>
<path d="M23.5252 17.5188H30.8664V18.5232H25.0795V21.7187H30.8664V22.6037H25.0795V25.6436H30.8664V26.5285H23.5252V17.5188Z" fill="white"/>
<path d="M34.0365 3.05176e-05H46.2997L45.8042 1.7456H35.8592V7.2997H44.2558L43.8223 8.83776H35.8592V14.2289H42.3358L41.9023 15.7669H34.0365V3.05176e-05Z" fill="white"/>
<path d="M33.4525 17.5188H41.2943L40.9775 18.5163H34.6181V21.6901H39.9873L39.7101 22.569H34.6181V25.6496H38.9463L38.6691 26.5285H33.4525V17.5188Z" fill="white"/>
<path d="M20.0689 19.2233C19.0256 18.3297 17.7407 17.7655 16.3767 17.6021C15.0128 17.4387 13.631 17.6835 12.4062 18.3054C11.1813 18.9273 10.1684 19.8984 9.49549 21.096C8.82258 22.2936 8.5199 23.6639 8.62574 25.0335C8.73158 26.4031 9.24119 27.7106 10.0901 28.7905C10.939 29.8705 12.0891 30.6745 13.395 31.1009C14.7009 31.5272 16.1038 31.5568 17.4265 31.1858C18.7491 30.8148 19.932 30.0599 20.8257 29.0166L19.3335 27.7385C18.6927 28.4867 17.8444 29.028 16.8958 29.2941C15.9473 29.5602 14.9412 29.539 14.0048 29.2332C13.0683 28.9275 12.2435 28.3509 11.6347 27.5764C11.0259 26.8019 10.6605 25.8643 10.5846 24.8821C10.5087 23.8999 10.7257 22.9173 11.2083 22.0584C11.6909 21.1996 12.4173 20.5032 13.2956 20.0572C14.174 19.6112 15.1649 19.4357 16.1431 19.5528C17.1212 19.67 18.0426 20.0746 18.7908 20.7154L20.0689 19.2233Z" fill="white"/>
<path d="M24.0475 29.2159C23.954 29.2159 23.8645 29.2036 23.7788 29.1792C23.6932 29.1536 23.6242 29.1208 23.572 29.0807L23.6637 28.8772C23.7138 28.9128 23.7727 28.9423 23.8406 28.9656C23.9095 28.9879 23.9791 28.999 24.0491 28.999C24.1025 28.999 24.1453 28.994 24.1776 28.984C24.211 28.9728 24.2354 28.9578 24.251 28.9389C24.2666 28.92 24.2744 28.8983 24.2744 28.8738C24.2744 28.8427 24.2621 28.8182 24.2377 28.8004C24.2132 28.7815 24.1809 28.7665 24.1409 28.7554C24.1009 28.7432 24.0564 28.732 24.0074 28.722C23.9596 28.7109 23.9112 28.6975 23.8623 28.682C23.8144 28.6664 23.7705 28.6464 23.7305 28.6219C23.6904 28.5974 23.6576 28.5652 23.632 28.5251C23.6075 28.4851 23.5953 28.4339 23.5953 28.3716C23.5953 28.3049 23.6131 28.2443 23.6487 28.1898C23.6854 28.1342 23.7399 28.0902 23.8122 28.058C23.8856 28.0246 23.9774 28.0079 24.0875 28.0079C24.1609 28.0079 24.2332 28.0168 24.3044 28.0346C24.3756 28.0513 24.4384 28.0769 24.4929 28.1114L24.4095 28.3166C24.355 28.2854 24.3005 28.2626 24.246 28.2482C24.1915 28.2326 24.1381 28.2248 24.0858 28.2248C24.0336 28.2248 23.9907 28.2309 23.9574 28.2432C23.924 28.2554 23.9001 28.2715 23.8856 28.2916C23.8712 28.3105 23.8639 28.3327 23.8639 28.3583C23.8639 28.3883 23.8762 28.4128 23.9006 28.4317C23.9251 28.4495 23.9574 28.464 23.9974 28.4751C24.0375 28.4862 24.0814 28.4973 24.1292 28.5085C24.1782 28.5196 24.2265 28.5324 24.2744 28.5468C24.3233 28.5613 24.3678 28.5808 24.4079 28.6052C24.4479 28.6297 24.4802 28.662 24.5046 28.702C24.5302 28.742 24.543 28.7927 24.543 28.8538C24.543 28.9195 24.5246 28.9795 24.4879 29.034C24.4512 29.0885 24.3962 29.1325 24.3228 29.1658C24.2505 29.1992 24.1587 29.2159 24.0475 29.2159ZM25.4134 29.2159C25.2477 29.2159 25.1181 29.1697 25.0247 29.0774C24.9312 28.9851 24.8845 28.8533 24.8845 28.682V28.0279H25.1548V28.672C25.1548 28.7832 25.1776 28.8633 25.2232 28.9122C25.2688 28.9612 25.3328 28.9856 25.4151 28.9856C25.4974 28.9856 25.5614 28.9612 25.607 28.9122C25.6526 28.8633 25.6754 28.7832 25.6754 28.672V28.0279H25.9423V28.682C25.9423 28.8533 25.8956 28.9851 25.8022 29.0774C25.7087 29.1697 25.5792 29.2159 25.4134 29.2159ZM26.3763 29.1959V28.0279H26.8818C26.9864 28.0279 27.0765 28.0452 27.1521 28.0797C27.2277 28.113 27.2861 28.1614 27.3273 28.2248C27.3684 28.2882 27.389 28.3639 27.389 28.4517C27.389 28.5385 27.3684 28.6136 27.3273 28.677C27.2861 28.7404 27.2277 28.7893 27.1521 28.8238C27.0765 28.8572 26.9864 28.8738 26.8818 28.8738H26.5264L26.6466 28.7521V29.1959H26.3763ZM26.6466 28.7821L26.5264 28.6536H26.8668C26.9502 28.6536 27.0125 28.6358 27.0537 28.6002C27.0948 28.5646 27.1154 28.5151 27.1154 28.4517C27.1154 28.3872 27.0948 28.3372 27.0537 28.3016C27.0125 28.266 26.9502 28.2482 26.8668 28.2482H26.5264L26.6466 28.1197V28.7821ZM27.9974 28.4984H28.5597V28.7087H27.9974V28.4984ZM28.0175 28.979H28.6531V29.1959H27.7488V28.0279H28.6314V28.2448H28.0175V28.979ZM29.035 29.1959V28.0279H29.5406C29.6451 28.0279 29.7352 28.0452 29.8109 28.0797C29.8865 28.113 29.9449 28.1614 29.9861 28.2248C30.0272 28.2882 30.0478 28.3639 30.0478 28.4517C30.0478 28.5385 30.0272 28.6136 29.9861 28.677C29.9449 28.7393 29.8865 28.7871 29.8109 28.8205C29.7352 28.8538 29.6451 28.8705 29.5406 28.8705H29.1852L29.3053 28.7521V29.1959H29.035ZM29.7775 29.1959L29.4855 28.7721H29.7742L30.0695 29.1959H29.7775ZM29.3053 28.7821L29.1852 28.6553H29.5256C29.609 28.6553 29.6713 28.6375 29.7124 28.6019C29.7536 28.5652 29.7742 28.5151 29.7742 28.4517C29.7742 28.3872 29.7536 28.3372 29.7124 28.3016C29.6713 28.266 29.609 28.2482 29.5256 28.2482H29.1852L29.3053 28.1197V28.7821ZM30.4288 29.1959V28.0279H30.6524L31.1496 28.8522H31.0311L31.52 28.0279H31.7419L31.7452 29.1959H31.4916L31.4899 28.4167H31.5366L31.1462 29.0724H31.0244L30.6257 28.4167H30.6824V29.1959H30.4288ZM32.0356 29.1959L32.5562 28.0279H32.8232L33.3454 29.1959H33.0617L32.6346 28.1648H32.7414L32.3126 29.1959H32.0356ZM32.2959 28.9456L32.3677 28.7404H32.9683L33.0417 28.9456H32.2959ZM33.6334 29.1959V28.0279H34.1389C34.2435 28.0279 34.3336 28.0452 34.4092 28.0797C34.4849 28.113 34.5433 28.1614 34.5844 28.2248C34.6256 28.2882 34.6462 28.3639 34.6462 28.4517C34.6462 28.5385 34.6256 28.6136 34.5844 28.677C34.5433 28.7393 34.4849 28.7871 34.4092 28.8205C34.3336 28.8538 34.2435 28.8705 34.1389 28.8705H33.7836L33.9037 28.7521V29.1959H33.6334ZM34.3759 29.1959L34.0839 28.7721H34.3725L34.6678 29.1959H34.3759ZM33.9037 28.7821L33.7836 28.6553H34.1239C34.2073 28.6553 34.2696 28.6375 34.3108 28.6019C34.3519 28.5652 34.3725 28.5151 34.3725 28.4517C34.3725 28.3872 34.3519 28.3372 34.3108 28.3016C34.2696 28.266 34.2073 28.2482 34.1239 28.2482H33.7836L33.9037 28.1197V28.7821ZM35.2691 28.9289L35.2541 28.6169L35.813 28.0279H36.1133L35.6094 28.5702L35.4593 28.7304L35.2691 28.9289ZM35.0271 29.1959V28.0279H35.2958V29.1959H35.0271ZM35.8263 29.1959L35.4109 28.687L35.5877 28.4951L36.1417 29.1959H35.8263ZM36.6776 28.4984H37.2399V28.7087H36.6776V28.4984ZM36.6977 28.979H37.3333V29.1959H36.429V28.0279H37.3117V28.2448H36.6977V28.979ZM37.9572 29.1959V28.2482H37.5834V28.0279H38.6012V28.2482H38.2275V29.1959H37.9572Z" fill="white"/>
<path d="M38.6248 29.2814C38.6248 29.5553 38.5708 29.8265 38.466 30.0795C38.3612 30.3326 38.2076 30.5625 38.0139 30.7562C37.8202 30.9498 37.5903 31.1034 37.3373 31.2082C37.0843 31.3131 36.8131 31.367 36.5392 31.367C36.2653 31.367 35.9941 31.3131 35.7411 31.2082C35.488 31.1034 35.2581 30.9498 35.0645 30.7562C34.8708 30.5625 34.7172 30.3326 34.6124 30.0795C34.5076 29.8265 34.4536 29.5553 34.4536 29.2814L35.4644 29.2814C35.4644 29.4226 35.4922 29.5623 35.5462 29.6927C35.6002 29.8231 35.6794 29.9416 35.7792 30.0414C35.879 30.1412 35.9975 30.2204 36.1279 30.2744C36.2583 30.3284 36.398 30.3562 36.5392 30.3562C36.6803 30.3562 36.8201 30.3284 36.9505 30.2744C37.0809 30.2204 37.1994 30.1412 37.2992 30.0414C37.399 29.9416 37.4781 29.8231 37.5321 29.6927C37.5861 29.5623 37.6139 29.4226 37.6139 29.2814H38.6248Z" fill="white"/>
</svg>
