<svg width="141" height="39" viewBox="0 0 141 39" fill="none" xmlns="http://www.w3.org/2000/svg">
<rect width="141" height="39" rx="5" fill="#2DAAE1"/>
<path d="M32.164 28V13.84H26.596V11.2H40.852V13.84H35.284V28H32.164ZM44.9406 28L40.2366 15.184H43.0686L47.1006 26.488H45.7566L49.9806 15.184H52.5006L56.6046 26.488H55.2846L59.4366 15.184H62.1006L57.3726 28H54.4926L50.7486 17.992H51.6366L47.8206 28H44.9406ZM64.1633 28V15.184H67.1633V28H64.1633ZM65.6753 13.072C65.1153 13.072 64.6513 12.896 64.2833 12.544C63.9313 12.192 63.7553 11.768 63.7553 11.272C63.7553 10.76 63.9313 10.336 64.2833 10C64.6513 9.648 65.1153 9.472 65.6753 9.472C66.2353 9.472 66.6913 9.64 67.0433 9.976C67.4113 10.296 67.5953 10.704 67.5953 11.2C67.5953 11.728 67.4193 12.176 67.0673 12.544C66.7153 12.896 66.2513 13.072 65.6753 13.072ZM75.9248 28.168C74.5168 28.168 73.4288 27.808 72.6608 27.088C71.8928 26.352 71.5088 25.272 71.5088 23.848V12.352H74.5088V23.776C74.5088 24.384 74.6608 24.856 74.9648 25.192C75.2848 25.528 75.7248 25.696 76.2848 25.696C76.9568 25.696 77.5168 25.52 77.9648 25.168L78.8048 27.304C78.4528 27.592 78.0208 27.808 77.5088 27.952C76.9968 28.096 76.4688 28.168 75.9248 28.168ZM69.3968 17.68V15.28H77.9408V17.68H69.3968ZM85.792 28.168C84.384 28.168 83.296 27.808 82.528 27.088C81.76 26.352 81.376 25.272 81.376 23.848V12.352H84.376V23.776C84.376 24.384 84.528 24.856 84.832 25.192C85.152 25.528 85.592 25.696 86.152 25.696C86.824 25.696 87.384 25.52 87.832 25.168L88.672 27.304C88.32 27.592 87.888 27.808 87.376 27.952C86.864 28.096 86.336 28.168 85.792 28.168ZM79.264 17.68V15.28H87.808V17.68H79.264ZM96.742 28.168C95.318 28.168 94.07 27.888 92.998 27.328C91.942 26.752 91.118 25.968 90.526 24.976C89.95 23.984 89.662 22.856 89.662 21.592C89.662 20.312 89.942 19.184 90.502 18.208C91.078 17.216 91.862 16.44 92.854 15.88C93.862 15.32 95.006 15.04 96.286 15.04C97.534 15.04 98.646 15.312 99.622 15.856C100.598 16.4 101.366 17.168 101.926 18.16C102.486 19.152 102.766 20.32 102.766 21.664C102.766 21.792 102.758 21.936 102.742 22.096C102.742 22.256 102.734 22.408 102.718 22.552H92.038V20.56H101.134L99.958 21.184C99.974 20.448 99.822 19.8 99.502 19.24C99.182 18.68 98.742 18.24 98.182 17.92C97.638 17.6 97.006 17.44 96.286 17.44C95.55 17.44 94.902 17.6 94.342 17.92C93.798 18.24 93.366 18.688 93.046 19.264C92.742 19.824 92.59 20.488 92.59 21.256V21.736C92.59 22.504 92.766 23.184 93.118 23.776C93.47 24.368 93.966 24.824 94.606 25.144C95.246 25.464 95.982 25.624 96.814 25.624C97.534 25.624 98.182 25.512 98.758 25.288C99.334 25.064 99.846 24.712 100.294 24.232L101.902 26.08C101.326 26.752 100.598 27.272 99.718 27.64C98.854 27.992 97.862 28.168 96.742 28.168ZM105.648 28V15.184H108.504V18.712L108.168 17.68C108.552 16.816 109.152 16.16 109.968 15.712C110.8 15.264 111.832 15.04 113.064 15.04V17.896C112.936 17.864 112.816 17.848 112.704 17.848C112.592 17.832 112.48 17.824 112.368 17.824C111.232 17.824 110.328 18.16 109.656 18.832C108.984 19.488 108.648 20.472 108.648 21.784V28H105.648Z" fill="white"/>
</svg>
