<svg width="50" height="50" viewBox="0 0 50 50" fill="none" xmlns="http://www.w3.org/2000/svg">
<g clip-path="url(#clip0_402_478)">
<path d="M25 50.0001C38.8071 50.0001 50 38.8072 50 25.0001C50 11.1929 38.8071 6.10352e-05 25 6.10352e-05C11.1929 6.10352e-05 3.05176e-05 11.1929 3.05176e-05 25.0001C3.05176e-05 38.8072 11.1929 50.0001 25 50.0001Z" fill="#2DAAE1"/>
<path d="M41.0296 15.0555C39.8504 15.5787 38.5839 15.9324 37.2522 16.0914C38.6113 15.2776 39.6525 13.988 40.1441 12.4531C38.853 13.2199 37.4401 13.7597 35.9667 14.0491C34.7677 12.771 33.0578 11.973 31.1661 11.973C27.5351 11.973 24.5904 14.9166 24.5904 18.5497C24.5904 19.0644 24.6484 19.5667 24.7598 20.0488C19.2939 19.7741 14.448 17.1559 11.2043 13.1774C10.6379 14.1491 10.3137 15.2788 10.3137 16.4841C10.3137 18.7656 11.475 20.7785 13.2394 21.9576C12.1949 21.9252 11.1733 21.6433 10.26 21.1353V21.2184C10.26 24.4052 12.5266 27.0624 15.5355 27.6667C14.9828 27.8182 14.4027 27.8973 13.8026 27.8973C13.3783 27.8973 12.9667 27.8571 12.5646 27.7815C13.4015 30.3935 15.8304 32.2948 18.7075 32.3485C16.4566 34.1129 13.6205 35.1647 10.5401 35.1647C10.0095 35.1647 9.48514 35.133 8.97037 35.071C11.8813 36.9375 15.3376 38.0272 19.0518 38.0272C31.1482 38.0272 37.7638 28.0058 37.7638 19.3151C37.7638 19.0298 37.7575 18.7466 37.7438 18.4644C39.0327 17.5322 40.1454 16.3778 41.0296 15.0555Z" fill="white"/>
</g>
<defs>
<clipPath id="clip0_402_478">
<rect width="50" height="50" fill="white"/>
</clipPath>
</defs>
</svg>
