<svg width="170" height="39" viewBox="0 0 170 39" fill="none" xmlns="http://www.w3.org/2000/svg">
<rect width="170" height="39" rx="5" fill="#00E676"/>
<path d="M25.216 28L19.648 11.2H22.888L27.856 26.392H26.248L31.408 11.2H34.288L39.304 26.392H37.744L42.832 11.2H45.808L40.24 28H36.928L32.344 14.296H33.208L28.552 28H25.216ZM55.6853 15.04C56.7093 15.04 57.6213 15.24 58.4213 15.64C59.2373 16.04 59.8773 16.656 60.3413 17.488C60.8053 18.304 61.0373 19.36 61.0373 20.656V28H58.0373V21.04C58.0373 19.904 57.7653 19.056 57.2213 18.496C56.6933 17.936 55.9493 17.656 54.9893 17.656C54.2853 17.656 53.6613 17.8 53.1173 18.088C52.5733 18.376 52.1493 18.808 51.8453 19.384C51.5573 19.944 51.4133 20.656 51.4133 21.52V28H48.4133V10.192H51.4133V18.64L50.7653 17.584C51.2133 16.768 51.8613 16.144 52.7093 15.712C53.5733 15.264 54.5653 15.04 55.6853 15.04ZM72.739 28V25.408L72.571 24.856V20.32C72.571 19.44 72.307 18.76 71.779 18.28C71.251 17.784 70.451 17.536 69.379 17.536C68.659 17.536 67.947 17.648 67.243 17.872C66.555 18.096 65.971 18.408 65.491 18.808L64.315 16.624C65.003 16.096 65.819 15.704 66.763 15.448C67.723 15.176 68.715 15.04 69.739 15.04C71.595 15.04 73.027 15.488 74.035 16.384C75.059 17.264 75.571 18.632 75.571 20.488V28H72.739ZM68.707 28.168C67.747 28.168 66.907 28.008 66.187 27.688C65.467 27.352 64.907 26.896 64.507 26.32C64.123 25.728 63.931 25.064 63.931 24.328C63.931 23.608 64.099 22.96 64.435 22.384C64.787 21.808 65.355 21.352 66.139 21.016C66.923 20.68 67.963 20.512 69.259 20.512H72.979V22.504H69.475C68.451 22.504 67.763 22.672 67.411 23.008C67.059 23.328 66.883 23.728 66.883 24.208C66.883 24.752 67.099 25.184 67.531 25.504C67.963 25.824 68.563 25.984 69.331 25.984C70.067 25.984 70.723 25.816 71.299 25.48C71.891 25.144 72.315 24.648 72.571 23.992L73.075 25.792C72.787 26.544 72.267 27.128 71.515 27.544C70.779 27.96 69.843 28.168 68.707 28.168ZM84.2451 28.168C82.8371 28.168 81.7491 27.808 80.9811 27.088C80.2131 26.352 79.8291 25.272 79.8291 23.848V12.352H82.8291V23.776C82.8291 24.384 82.9811 24.856 83.2851 25.192C83.6051 25.528 84.0451 25.696 84.6051 25.696C85.2771 25.696 85.8371 25.52 86.2851 25.168L87.1251 27.304C86.7731 27.592 86.3411 27.808 85.8291 27.952C85.3171 28.096 84.7891 28.168 84.2451 28.168ZM77.7171 17.68V15.28H86.2611V17.68H77.7171ZM93.553 28.168C92.481 28.168 91.449 28.032 90.457 27.76C89.481 27.472 88.705 27.128 88.129 26.728L89.281 24.448C89.857 24.816 90.545 25.12 91.345 25.36C92.145 25.6 92.945 25.72 93.745 25.72C94.689 25.72 95.369 25.592 95.785 25.336C96.217 25.08 96.433 24.736 96.433 24.304C96.433 23.952 96.289 23.688 96.001 23.512C95.713 23.32 95.337 23.176 94.873 23.08C94.409 22.984 93.889 22.896 93.313 22.816C92.753 22.736 92.185 22.632 91.609 22.504C91.049 22.36 90.537 22.16 90.073 21.904C89.609 21.632 89.233 21.272 88.945 20.824C88.657 20.376 88.513 19.784 88.513 19.048C88.513 18.232 88.745 17.528 89.209 16.936C89.673 16.328 90.321 15.864 91.153 15.544C92.001 15.208 93.001 15.04 94.153 15.04C95.017 15.04 95.889 15.136 96.769 15.328C97.649 15.52 98.377 15.792 98.953 16.144L97.801 18.424C97.193 18.056 96.577 17.808 95.953 17.68C95.345 17.536 94.737 17.464 94.129 17.464C93.217 17.464 92.537 17.6 92.089 17.872C91.657 18.144 91.441 18.488 91.441 18.904C91.441 19.288 91.585 19.576 91.873 19.768C92.161 19.96 92.537 20.112 93.001 20.224C93.465 20.336 93.977 20.432 94.537 20.512C95.113 20.576 95.681 20.68 96.241 20.824C96.801 20.968 97.313 21.168 97.777 21.424C98.257 21.664 98.641 22.008 98.929 22.456C99.217 22.904 99.361 23.488 99.361 24.208C99.361 25.008 99.121 25.704 98.641 26.296C98.177 26.888 97.513 27.352 96.649 27.688C95.785 28.008 94.753 28.168 93.553 28.168ZM99.8566 28L107.417 11.2H110.489L118.073 28H114.809L108.305 12.856H109.553L103.073 28H99.8566ZM103.337 24.112L104.177 21.664H113.249L114.089 24.112H103.337ZM127.025 28.168C125.985 28.168 125.033 27.928 124.169 27.448C123.321 26.968 122.641 26.248 122.129 25.288C121.633 24.312 121.385 23.08 121.385 21.592C121.385 20.088 121.625 18.856 122.105 17.896C122.601 16.936 123.273 16.224 124.121 15.76C124.969 15.28 125.937 15.04 127.025 15.04C128.289 15.04 129.401 15.312 130.361 15.856C131.337 16.4 132.105 17.16 132.665 18.136C133.241 19.112 133.529 20.264 133.529 21.592C133.529 22.92 133.241 24.08 132.665 25.072C132.105 26.048 131.337 26.808 130.361 27.352C129.401 27.896 128.289 28.168 127.025 28.168ZM119.921 32.656V15.184H122.777V18.208L122.681 21.616L122.921 25.024V32.656H119.921ZM126.689 25.6C127.409 25.6 128.049 25.44 128.609 25.12C129.185 24.8 129.641 24.336 129.977 23.728C130.313 23.12 130.481 22.408 130.481 21.592C130.481 20.76 130.313 20.048 129.977 19.456C129.641 18.848 129.185 18.384 128.609 18.064C128.049 17.744 127.409 17.584 126.689 17.584C125.969 17.584 125.321 17.744 124.745 18.064C124.169 18.384 123.713 18.848 123.377 19.456C123.041 20.048 122.873 20.76 122.873 21.592C122.873 22.408 123.041 23.12 123.377 23.728C123.713 24.336 124.169 24.8 124.745 25.12C125.321 25.44 125.969 25.6 126.689 25.6ZM143.478 28.168C142.438 28.168 141.486 27.928 140.622 27.448C139.774 26.968 139.094 26.248 138.582 25.288C138.086 24.312 137.838 23.08 137.838 21.592C137.838 20.088 138.078 18.856 138.558 17.896C139.054 16.936 139.726 16.224 140.574 15.76C141.422 15.28 142.39 15.04 143.478 15.04C144.742 15.04 145.854 15.312 146.814 15.856C147.79 16.4 148.558 17.16 149.118 18.136C149.694 19.112 149.982 20.264 149.982 21.592C149.982 22.92 149.694 24.08 149.118 25.072C148.558 26.048 147.79 26.808 146.814 27.352C145.854 27.896 144.742 28.168 143.478 28.168ZM136.374 32.656V15.184H139.23V18.208L139.134 21.616L139.374 25.024V32.656H136.374ZM143.142 25.6C143.862 25.6 144.502 25.44 145.062 25.12C145.638 24.8 146.094 24.336 146.43 23.728C146.766 23.12 146.934 22.408 146.934 21.592C146.934 20.76 146.766 20.048 146.43 19.456C146.094 18.848 145.638 18.384 145.062 18.064C144.502 17.744 143.862 17.584 143.142 17.584C142.422 17.584 141.774 17.744 141.198 18.064C140.622 18.384 140.166 18.848 139.83 19.456C139.494 20.048 139.326 20.76 139.326 21.592C139.326 22.408 139.494 23.12 139.83 23.728C140.166 24.336 140.622 24.8 141.198 25.12C141.774 25.44 142.422 25.6 143.142 25.6Z" fill="white"/>
</svg>
