<svg width="85" height="85" viewBox="0 0 85 85" fill="none" xmlns="http://www.w3.org/2000/svg">
<g filter="url(#filter0_d_189_338)">
<circle cx="42.5" cy="38.5" r="37.5" fill="#00E676"/>
</g>
<g clip-path="url(#clip0_189_338)">
<path d="M31.0669 56.8231L31.8748 57.2271C35.2416 59.247 39.0121 60.1897 42.7828 60.1897C54.6331 60.1897 64.3289 50.4939 64.3289 38.6436C64.3289 32.9878 62.0395 27.4665 57.9997 23.4266C53.9598 19.3866 48.5731 17.0974 42.7828 17.0974C30.9324 17.0974 21.2364 26.7932 21.3712 38.7783C21.3712 42.8181 22.5831 46.7235 24.603 50.0899L25.1416 50.898L22.9872 58.8432L31.0669 56.8231Z" fill="#00E676"/>
<path d="M60.2889 21.2718C55.7104 16.5587 49.3812 14 42.9173 14C29.1818 14 18.1393 25.177 18.2739 38.778C18.2739 43.0873 19.4859 47.262 21.5059 51.0324L18.0046 63.8255L31.0669 60.4589C34.7028 62.479 38.7426 63.4216 42.7828 63.4216C56.3837 63.4216 67.4262 52.2444 67.4262 38.6436C67.4262 32.045 64.8675 25.8504 60.2891 21.2718H60.2889ZM42.9173 59.2471C39.2814 59.2471 35.6455 58.3046 32.5482 56.4193L31.7403 56.0153L23.9299 58.0351L25.9498 50.3595L25.4111 49.5514C19.4859 39.9903 22.3138 27.3317 32.0096 21.4064C41.7053 15.4813 54.2291 18.3093 60.1544 28.005C66.0795 37.7008 63.2515 50.2245 53.5559 56.1498C50.4584 58.1697 46.688 59.2469 42.9173 59.2469V59.2471ZM54.7677 44.2996L53.2864 43.6263C53.2864 43.6263 51.132 42.6836 49.7853 42.0102C49.6505 42.0102 49.516 41.8755 49.3812 41.8755C48.9772 41.8755 48.7079 42.0102 48.4386 42.145C48.4386 42.145 48.304 42.2795 46.4187 44.4342C46.2839 44.7035 46.0146 44.8382 45.7453 44.8382H45.6106C45.476 44.8382 45.2067 44.7035 45.072 44.5689L44.3986 44.2996C42.9173 43.6263 41.5708 42.8181 40.4934 41.7409C40.2241 41.4716 39.82 41.2023 39.5507 40.933C38.6081 39.9903 37.6654 38.9129 36.9922 37.701L36.8575 37.4317C36.7229 37.2969 36.7229 37.1624 36.5882 36.893C36.5882 36.6237 36.5882 36.3544 36.7229 36.2197C36.7229 36.2197 37.2615 35.5463 37.6654 35.1425C37.9349 34.873 38.0694 34.4691 38.3387 34.1998C38.6081 33.7958 38.7428 33.2571 38.6081 32.8531C38.4735 32.1797 36.8575 28.5438 36.4536 27.7359C36.1841 27.3319 35.915 27.1973 35.5109 27.0625H34.0297C33.7602 27.0625 33.4911 27.1973 33.2216 27.1973L33.0868 27.3319C32.8175 27.4666 32.5482 27.7359 32.2789 27.8705C32.0096 28.14 31.8748 28.4091 31.6055 28.6786C30.6629 29.8905 30.1243 31.3718 30.1243 32.8531C30.1243 33.9303 30.3936 35.0077 30.7976 35.9504L30.9324 36.3544C32.1443 38.9129 33.7602 41.2023 35.915 43.2222L36.4536 43.7608C36.8575 44.1649 37.2615 44.4342 37.5308 44.838C40.3588 47.2622 43.5907 49.0127 47.2266 49.9554C47.6306 50.09 48.1692 50.09 48.5733 50.2247H49.9198C50.5932 50.2247 51.4011 49.9554 51.9399 49.6861C52.3438 49.4168 52.6131 49.4168 52.8824 49.1475L53.1519 48.878C53.4212 48.6087 53.6905 48.4741 53.9598 48.2048C54.2291 47.9355 54.4984 47.6662 54.6331 47.3967C54.9025 46.8581 55.037 46.1847 55.1718 45.5116V44.5689C55.1718 44.5689 55.037 44.4342 54.7677 44.2996Z" fill="white"/>
</g>
<defs>
<filter id="filter0_d_189_338" x="0" y="0" width="85" height="85" filterUnits="userSpaceOnUse" color-interpolation-filters="sRGB">
<feFlood flood-opacity="0" result="BackgroundImageFix"/>
<feColorMatrix in="SourceAlpha" type="matrix" values="0 0 0 0 0 0 0 0 0 0 0 0 0 0 0 0 0 0 127 0" result="hardAlpha"/>
<feMorphology radius="1" operator="dilate" in="SourceAlpha" result="effect1_dropShadow_189_338"/>
<feOffset dy="4"/>
<feGaussianBlur stdDeviation="2"/>
<feComposite in2="hardAlpha" operator="out"/>
<feColorMatrix type="matrix" values="0 0 0 0 1 0 0 0 0 1 0 0 0 0 1 0 0 0 0.25 0"/>
<feBlend mode="normal" in2="BackgroundImageFix" result="effect1_dropShadow_189_338"/>
<feBlend mode="normal" in="SourceGraphic" in2="effect1_dropShadow_189_338" result="shape"/>
</filter>
<clipPath id="clip0_189_338">
<rect width="49.43" height="50" fill="white" transform="translate(18 14)"/>
</clipPath>
</defs>
</svg>
