<svg width="30" height="31" viewBox="0 0 30 31" fill="none" xmlns="http://www.w3.org/2000/svg">
<path d="M15 25.1101C17.4864 25.1101 19.871 24.1224 21.6291 22.3642C23.3873 20.6061 24.375 18.2215 24.375 15.7351C24.375 13.2487 23.3873 10.8641 21.6291 9.10598C19.871 7.34783 17.4864 6.36011 15 6.36011C12.5136 6.36011 10.129 7.34783 8.37087 9.10598C6.61272 10.8641 5.625 13.2487 5.625 15.7351C5.625 18.2215 6.61272 20.6061 8.37087 22.3642C10.129 24.1224 12.5136 25.1101 15 25.1101ZM15 26.9851C13.5226 26.9851 12.0597 26.6941 10.6948 26.1288C9.3299 25.5634 8.08971 24.7347 7.04505 23.6901C6.00039 22.6454 5.17172 21.4052 4.60636 20.0403C4.04099 18.6754 3.75 17.2125 3.75 15.7351C3.75 14.2577 4.04099 12.7948 4.60636 11.4299C5.17172 10.065 6.00039 8.82482 7.04505 7.78016C8.08971 6.7355 9.3299 5.90683 10.6948 5.34146C12.0597 4.7761 13.5226 4.48511 15 4.48511C17.9837 4.48511 20.8452 5.67037 22.955 7.78016C25.0647 9.88994 26.25 12.7514 26.25 15.7351C26.25 18.7188 25.0647 21.5803 22.955 23.6901C20.8452 25.7998 17.9837 26.9851 15 26.9851Z" fill="white"/>
<path d="M8.56312 24.8925L10.1869 25.83L8.78062 28.2656C8.71951 28.3731 8.63775 28.4675 8.54003 28.5432C8.44232 28.619 8.33059 28.6746 8.21127 28.707C8.09195 28.7394 7.9674 28.7479 7.8448 28.732C7.72219 28.716 7.60395 28.676 7.49688 28.6142C7.3898 28.5524 7.29602 28.47 7.22092 28.3718C7.14581 28.2735 7.09088 28.1614 7.05928 28.0419C7.02768 27.9224 7.02003 27.7978 7.03678 27.6753C7.05353 27.5528 7.09434 27.4348 7.15687 27.3281L8.56312 24.8925ZM21.4369 24.8925L19.8131 25.83L21.2194 28.2656C21.2805 28.3731 21.3622 28.4675 21.46 28.5432C21.5577 28.619 21.6694 28.6746 21.7887 28.707C21.908 28.7394 22.0326 28.7479 22.1552 28.732C22.2778 28.716 22.396 28.676 22.5031 28.6142C22.6102 28.5524 22.704 28.47 22.7791 28.3718C22.8542 28.2735 22.9091 28.1614 22.9407 28.0419C22.9723 27.9224 22.98 27.7978 22.9632 27.6753C22.9465 27.5528 22.9056 27.4348 22.8431 27.3281L21.4369 24.8925ZM15 15.735H19.6875C19.9361 15.735 20.1746 15.8338 20.3504 16.0096C20.5262 16.1854 20.625 16.4239 20.625 16.6725C20.625 16.9212 20.5262 17.1596 20.3504 17.3354C20.1746 17.5113 19.9361 17.61 19.6875 17.61H14.0625C13.8139 17.61 13.5754 17.5113 13.3996 17.3354C13.2238 17.1596 13.125 16.9212 13.125 16.6725V10.11C13.125 9.86139 13.2238 9.62293 13.3996 9.44711C13.5754 9.2713 13.8139 9.17253 14.0625 9.17253C14.3111 9.17253 14.5496 9.2713 14.7254 9.44711C14.9012 9.62293 15 9.86139 15 10.11V15.735ZM2.65125 9.88315C2.05294 8.98157 1.78498 7.90075 1.89282 6.82409C2.00066 5.74743 2.47767 4.74124 3.2429 3.97623C4.00813 3.21121 5.01446 2.7345 6.09116 2.62697C7.16785 2.51944 8.24858 2.78772 9.15 3.38628L7.7775 4.75878C7.25267 4.50812 6.66304 4.42634 6.08981 4.52469C5.51658 4.62305 4.98793 4.89669 4.57667 5.30795C4.16541 5.71921 3.89176 6.24786 3.79341 6.82109C3.69506 7.39432 3.77684 7.98395 4.0275 8.50878L2.65312 9.88315H2.65125ZM27.1219 9.88315C27.7193 8.9817 27.9867 7.90139 27.8787 6.82532C27.7707 5.74926 27.2939 4.74364 26.5292 3.97893C25.7645 3.21421 24.7589 2.73744 23.6828 2.62943C22.6068 2.52141 21.5264 2.78881 20.625 3.38628L21.9975 4.75878C22.5223 4.50812 23.1119 4.42634 23.6852 4.52469C24.2584 4.62305 24.7871 4.89669 25.1983 5.30795C25.6096 5.71921 25.8832 6.24786 25.9816 6.82109C26.0799 7.39432 25.9981 7.98395 25.7475 8.50878L27.1219 9.88315Z" fill="white"/>
</svg>
