<svg width="44" height="50" viewBox="0 0 44 50" fill="none" xmlns="http://www.w3.org/2000/svg">
<g clip-path="url(#clip0_47_720)">
<path d="M39.0625 3.125H4.6875C3.4443 3.125 2.25201 3.61886 1.37294 4.49794C0.49386 5.37701 0 6.5693 0 7.8125L0 42.1875C0 43.4307 0.49386 44.623 1.37294 45.5021C2.25201 46.3811 3.4443 46.875 4.6875 46.875H18.0908V32.001H11.9385V25H18.0908V19.6641C18.0908 13.5947 21.7041 10.2422 27.2383 10.2422C29.8887 10.2422 32.6602 10.7148 32.6602 10.7148V16.6719H29.6064C26.5977 16.6719 25.6592 18.5391 25.6592 20.4541V25H32.376L31.3018 32.001H25.6592V46.875H39.0625C40.3057 46.875 41.498 46.3811 42.3771 45.5021C43.2561 44.623 43.75 43.4307 43.75 42.1875V7.8125C43.75 6.5693 43.2561 5.37701 42.3771 4.49794C41.498 3.61886 40.3057 3.125 39.0625 3.125Z" fill="#0000FF"/>
</g>
<defs>
<clipPath id="clip0_47_720">
<rect width="43.75" height="50" fill="white"/>
</clipPath>
</defs>
</svg>
