<svg width="45" height="45" viewBox="0 0 45 45" fill="none" xmlns="http://www.w3.org/2000/svg">
<path d="M21.7969 5.625C12.8663 5.625 5.625 12.8663 5.625 21.7969C5.625 30.7274 12.8663 37.9688 21.7969 37.9688C30.7274 37.9688 37.9688 30.7274 37.9688 21.7969C37.9688 12.8663 30.7274 5.625 21.7969 5.625Z" stroke="white" stroke-width="3.125" stroke-miterlimit="10"/>
<path d="M19.3359 19.3359H22.1484V29.5312" stroke="white" stroke-width="3.125" stroke-linecap="round" stroke-linejoin="round"/>
<path d="M18.2812 29.8828H26.0156" stroke="white" stroke-width="3.125" stroke-miterlimit="10" stroke-linecap="round"/>
<path d="M21.7969 11.4258C21.3449 11.4258 20.9031 11.5598 20.5273 11.8109C20.1515 12.062 19.8586 12.4189 19.6857 12.8364C19.5127 13.254 19.4675 13.7135 19.5556 14.1567C19.6438 14.6 19.8614 15.0072 20.181 15.3268C20.5006 15.6464 20.9078 15.864 21.3511 15.9522C21.7943 16.0404 22.2538 15.9951 22.6714 15.8221C23.0889 15.6492 23.4458 15.3563 23.6969 14.9805C23.948 14.6047 24.082 14.1629 24.082 13.7109C24.082 13.1049 23.8413 12.5236 23.4127 12.0951C22.9842 11.6665 22.4029 11.4258 21.7969 11.4258Z" fill="white"/>
</svg>
