<svg width="51" height="54" viewBox="0 0 51 54" fill="none" xmlns="http://www.w3.org/2000/svg">
<path d="M26 18.9911C22.6748 18.9911 19.9912 21.6747 19.9912 24.9999C19.9912 28.3251 22.6748 31.0087 26 31.0087C29.3252 31.0087 32.0088 28.3251 32.0088 24.9999C32.0088 21.6747 29.3252 18.9911 26 18.9911ZM26 28.9052C23.8496 28.9052 22.0947 27.1503 22.0947 24.9999C22.0947 22.8495 23.8496 21.0946 26 21.0946C28.1504 21.0946 29.9053 22.8495 29.9053 24.9999C29.9053 27.1503 28.1504 28.9052 26 28.9052ZM32.2549 17.3446C31.4785 17.3446 30.8516 17.9716 30.8516 18.7479C30.8516 19.5243 31.4785 20.1513 32.2549 20.1513C33.0313 20.1513 33.6582 19.5272 33.6582 18.7479C33.6585 18.5636 33.6223 18.381 33.5519 18.2106C33.4814 18.0403 33.3781 17.8855 33.2477 17.7551C33.1174 17.6248 32.9626 17.5214 32.7922 17.451C32.6218 17.3805 32.4393 17.3444 32.2549 17.3446ZM37.7129 24.9999C37.7129 23.3827 37.7276 21.7802 37.6367 20.1659C37.5459 18.2909 37.1182 16.6268 35.7471 15.2558C34.3731 13.8817 32.7119 13.4569 30.8369 13.3661C29.2197 13.2753 27.6172 13.2899 26.0029 13.2899C24.3858 13.2899 22.7832 13.2753 21.169 13.3661C19.294 13.4569 17.6299 13.8847 16.2588 15.2558C14.8848 16.6298 14.46 18.2909 14.3692 20.1659C14.2783 21.7831 14.293 23.3856 14.293 24.9999C14.293 26.6142 14.2783 28.2196 14.3692 29.8339C14.46 31.7089 14.8877 33.3729 16.2588 34.744C17.6328 36.1181 19.294 36.5429 21.169 36.6337C22.7861 36.7245 24.3887 36.7099 26.0029 36.7099C27.6201 36.7099 29.2227 36.7245 30.8369 36.6337C32.7119 36.5429 34.376 36.1151 35.7471 34.744C37.1211 33.37 37.5459 31.7089 37.6367 29.8339C37.7305 28.2196 37.7129 26.6171 37.7129 24.9999ZM35.1348 31.9081C34.9209 32.4413 34.6631 32.8397 34.25 33.2499C33.8369 33.663 33.4414 33.9208 32.9082 34.1347C31.3672 34.747 27.708 34.6093 26 34.6093C24.292 34.6093 20.6299 34.747 19.0889 34.1376C18.5557 33.9237 18.1572 33.6659 17.7471 33.2528C17.334 32.8397 17.0762 32.4442 16.8623 31.911C16.2529 30.3671 16.3906 26.7079 16.3906 24.9999C16.3906 23.2919 16.2529 19.6298 16.8623 18.0888C17.0762 17.5556 17.334 17.1571 17.7471 16.747C18.1602 16.3368 18.5557 16.0761 19.0889 15.8622C20.6299 15.2528 24.292 15.3905 26 15.3905C27.708 15.3905 31.3701 15.2528 32.9112 15.8622C33.4444 16.0761 33.8428 16.3339 34.2529 16.747C34.666 17.1601 34.9238 17.5556 35.1377 18.0888C35.7471 19.6298 35.6094 23.2919 35.6094 24.9999C35.6094 26.7079 35.7471 30.3671 35.1348 31.9081Z" fill="white"/>
<rect x="1" width="50" height="50" rx="10" fill="url(#paint0_linear_173_492)" fill-opacity="0.7"/>
<g filter="url(#filter0_f_173_492)">
<path d="M35.9771 37.1219C35.9771 36.0854 36.8817 42.0014 27.3257 42.0014C17.7696 42.0014 10.0229 42.8416 10.0229 43.8781C10.0229 44.9146 9.11826 38.9986 18.6743 38.9986C28.2304 38.9986 35.9771 38.1584 35.9771 37.1219Z" fill="white"/>
</g>
<defs>
<filter id="filter0_f_173_492" x="0" y="27" width="46" height="27" filterUnits="userSpaceOnUse" color-interpolation-filters="sRGB">
<feFlood flood-opacity="0" result="BackgroundImageFix"/>
<feBlend mode="normal" in="SourceGraphic" in2="BackgroundImageFix" result="shape"/>
<feGaussianBlur stdDeviation="5" result="effect1_foregroundBlur_173_492"/>
</filter>
<linearGradient id="paint0_linear_173_492" x1="26" y1="0" x2="26" y2="50" gradientUnits="userSpaceOnUse">
<stop stop-color="#0037FB" stop-opacity="0.6"/>
<stop offset="0.546098" stop-color="#FE2F2F" stop-opacity="0.99"/>
<stop offset="1" stop-color="#F20808" stop-opacity="0.62"/>
</linearGradient>
</defs>
</svg>
