<svg width="74" height="71" viewBox="0 0 74 71" fill="none" xmlns="http://www.w3.org/2000/svg">
<path d="M30 36.9911C26.6748 36.9911 23.9912 39.6747 23.9912 42.9999C23.9912 46.3251 26.6748 49.0087 30 49.0087C33.3252 49.0087 36.0088 46.3251 36.0088 42.9999C36.0088 39.6747 33.3252 36.9911 30 36.9911ZM30 46.9052C27.8496 46.9052 26.0947 45.1503 26.0947 42.9999C26.0947 40.8495 27.8496 39.0946 30 39.0946C32.1504 39.0946 33.9053 40.8495 33.9053 42.9999C33.9053 45.1503 32.1504 46.9052 30 46.9052ZM36.2549 35.3446C35.4785 35.3446 34.8516 35.9716 34.8516 36.7479C34.8516 37.5243 35.4785 38.1513 36.2549 38.1513C37.0313 38.1513 37.6582 37.5272 37.6582 36.7479C37.6585 36.5636 37.6223 36.381 37.5519 36.2106C37.4814 36.0403 37.3781 35.8855 37.2477 35.7551C37.1174 35.6248 36.9626 35.5214 36.7922 35.451C36.6218 35.3805 36.4393 35.3444 36.2549 35.3446ZM41.7129 42.9999C41.7129 41.3827 41.7276 39.7802 41.6367 38.1659C41.5459 36.2909 41.1182 34.6268 39.7471 33.2558C38.3731 31.8817 36.7119 31.4569 34.8369 31.3661C33.2197 31.2753 31.6172 31.2899 30.0029 31.2899C28.3858 31.2899 26.7832 31.2753 25.169 31.3661C23.294 31.4569 21.6299 31.8847 20.2588 33.2558C18.8848 34.6298 18.46 36.2909 18.3692 38.1659C18.2783 39.7831 18.293 41.3856 18.293 42.9999C18.293 44.6142 18.2783 46.2196 18.3692 47.8339C18.46 49.7089 18.8877 51.3729 20.2588 52.744C21.6328 54.1181 23.294 54.5429 25.169 54.6337C26.7861 54.7245 28.3887 54.7099 30.0029 54.7099C31.6201 54.7099 33.2227 54.7245 34.8369 54.6337C36.7119 54.5429 38.376 54.1151 39.7471 52.744C41.1211 51.37 41.5459 49.7089 41.6367 47.8339C41.7305 46.2196 41.7129 44.6171 41.7129 42.9999ZM39.1348 49.9081C38.9209 50.4413 38.6631 50.8397 38.25 51.2499C37.8369 51.663 37.4414 51.9208 36.9082 52.1347C35.3672 52.747 31.708 52.6093 30 52.6093C28.292 52.6093 24.6299 52.747 23.0889 52.1376C22.5557 51.9237 22.1572 51.6659 21.7471 51.2528C21.334 50.8397 21.0762 50.4442 20.8623 49.911C20.2529 48.3671 20.3906 44.7079 20.3906 42.9999C20.3906 41.2919 20.2529 37.6298 20.8623 36.0888C21.0762 35.5556 21.334 35.1571 21.7471 34.747C22.1602 34.3368 22.5557 34.0761 23.0889 33.8622C24.6299 33.2528 28.292 33.3905 30 33.3905C31.708 33.3905 35.3701 33.2528 36.9112 33.8622C37.4444 34.0761 37.8428 34.3339 38.2529 34.747C38.666 35.1601 38.9238 35.5556 39.1377 36.0888C39.7471 37.6298 39.6094 41.2919 39.6094 42.9999C39.6094 44.7079 39.7471 48.3671 39.1348 49.9081Z" fill="white"/>
<rect x="5" y="18" width="50" height="50" rx="10" fill="url(#paint0_linear_47_726)" fill-opacity="0.8"/>
<g filter="url(#filter0_f_47_726)">
<ellipse rx="17" ry="2.5" transform="matrix(1 0 0 -1 27 58.5)" fill="white"/>
</g>
<g filter="url(#filter1_f_47_726)">
<ellipse cx="40" cy="23.5" rx="14" ry="3.5" fill="#FF0000"/>
</g>
<defs>
<filter id="filter0_f_47_726" x="0" y="46" width="54" height="25" filterUnits="userSpaceOnUse" color-interpolation-filters="sRGB">
<feFlood flood-opacity="0" result="BackgroundImageFix"/>
<feBlend mode="normal" in="SourceGraphic" in2="BackgroundImageFix" result="shape"/>
<feGaussianBlur stdDeviation="5" result="effect1_foregroundBlur_47_726"/>
</filter>
<filter id="filter1_f_47_726" x="6" y="0" width="68" height="47" filterUnits="userSpaceOnUse" color-interpolation-filters="sRGB">
<feFlood flood-opacity="0" result="BackgroundImageFix"/>
<feBlend mode="normal" in="SourceGraphic" in2="BackgroundImageFix" result="shape"/>
<feGaussianBlur stdDeviation="10" result="effect1_foregroundBlur_47_726"/>
</filter>
<linearGradient id="paint0_linear_47_726" x1="30" y1="18" x2="30" y2="68" gradientUnits="userSpaceOnUse">
<stop stop-color="#0037FB" stop-opacity="0.6"/>
<stop offset="0.546098" stop-color="#FE2F2F" stop-opacity="0.99"/>
<stop offset="1" stop-color="#F20808" stop-opacity="0.62"/>
</linearGradient>
</defs>
</svg>
