<svg width="39" height="47" viewBox="0 0 39 47" fill="none" xmlns="http://www.w3.org/2000/svg">
<path d="M19.6667 25.9167C23.1184 25.9167 25.9167 23.1184 25.9167 19.6667C25.9167 16.2149 23.1184 13.4167 19.6667 13.4167C16.2149 13.4167 13.4167 16.2149 13.4167 19.6667C13.4167 23.1184 16.2149 25.9167 19.6667 25.9167Z" stroke="#00E676" stroke-width="4.16667" stroke-linecap="round" stroke-linejoin="round"/>
<path d="M19.6667 3C15.2464 3 11.0072 4.75595 7.88155 7.88155C4.75595 11.0072 3 15.2464 3 19.6667C3 23.6083 3.8375 26.1875 6.125 29.0417L19.6667 44.6667L33.2083 29.0417C35.4958 26.1875 36.3333 23.6083 36.3333 19.6667C36.3333 15.2464 34.5774 11.0072 31.4518 7.88155C28.3262 4.75595 24.0869 3 19.6667 3V3Z" stroke="#00E676" stroke-width="4.16667" stroke-linecap="round" stroke-linejoin="round"/>
</svg>
