<svg width="562" height="31" viewBox="0 0 562 31" fill="none" xmlns="http://www.w3.org/2000/svg">
<path fill-rule="evenodd" clip-rule="evenodd" d="M0 1.59995L7.552 23.9999H10.016L16.6073 4.92802L23.168 23.9999H25.664L33.216 1.59995H30.944L24.3814 20.9934L17.76 1.59995H15.584L8.90548 20.9032L2.432 1.59995H0ZM52.9065 7.83995C51.8825 7.30661 50.6878 7.03995 49.3225 7.03995C47.7012 7.03995 46.3038 7.39195 45.1305 8.09595C44.2437 8.6119 43.5397 9.28017 43.0185 10.1008V0.255947H40.7465V23.9999H43.0185V15.1679C43.0185 13.8879 43.2532 12.7999 43.7225 11.9039C44.2132 10.9866 44.8958 10.2933 45.7705 9.82395C46.6665 9.33328 47.7118 9.08795 48.9065 9.08795C50.5065 9.08795 51.7438 9.54661 52.6185 10.4639C53.5145 11.3599 53.9625 12.6933 53.9625 14.4639V23.9999H56.2345V14.2399C56.2345 12.6186 55.9358 11.2746 55.3385 10.2079C54.7625 9.14128 53.9518 8.35195 52.9065 7.83995ZM68.0995 23.0719C69.4222 23.7973 70.9582 24.1599 72.7075 24.1599C74.0515 24.1599 75.2782 23.9253 76.3875 23.4559C77.5182 22.9866 78.4568 22.3039 79.2035 21.4079L77.9235 19.9359C77.2835 20.6826 76.5155 21.2373 75.6195 21.5999C74.7448 21.9626 73.7955 22.1439 72.7715 22.1439C71.4702 22.1439 70.3075 21.8773 69.2835 21.3439C68.2808 20.7893 67.4915 20.0319 66.9155 19.0719C66.4503 18.249 66.1802 17.321 66.1052 16.2879H80.2275V15.9359C80.2488 15.8079 80.2595 15.6906 80.2595 15.5839C80.2595 13.8986 79.9075 12.4159 79.2035 11.1359C78.4995 9.83461 77.5288 8.83195 76.2915 8.12795C75.0755 7.40261 73.6782 7.03995 72.0995 7.03995C70.5422 7.03995 69.1342 7.41328 67.8755 8.15995C66.6382 8.88528 65.6568 9.88795 64.9315 11.1679C64.2275 12.4479 63.8755 13.9199 63.8755 15.5839C63.8755 17.2479 64.2488 18.7306 64.9955 20.0319C65.7422 21.3119 66.7768 22.3253 68.0995 23.0719ZM66.1151 14.5919C66.1979 13.6505 66.4434 12.7972 66.8515 12.0319C67.3635 11.0719 68.0782 10.3253 68.9955 9.79195C69.9128 9.25861 70.9475 8.99195 72.0995 8.99195C73.2728 8.99195 74.3075 9.25861 75.2035 9.79195C76.0995 10.3253 76.8035 11.0719 77.3155 12.0319C77.7484 12.7939 78.0057 13.6472 78.0872 14.5919H66.1151ZM88.084 7.19995V23.9999H90.356V15.4239C90.356 13.4399 90.8573 11.9146 91.86 10.8479C92.8627 9.75995 94.2493 9.21595 96.02 9.21595C96.1053 9.21595 96.1907 9.22661 96.276 9.24795H96.532V7.03995C94.8893 7.03995 93.5133 7.38128 92.404 8.06395C91.4553 8.62952 90.7406 9.42134 90.26 10.4394V7.19995H88.084ZM106.25 23.0719C107.572 23.7973 109.108 24.1599 110.858 24.1599C112.202 24.1599 113.428 23.9253 114.538 23.4559C115.668 22.9866 116.607 22.3039 117.354 21.4079L116.074 19.9359C115.434 20.6826 114.666 21.2373 113.77 21.5999C112.895 21.9626 111.946 22.1439 110.922 22.1439C109.62 22.1439 108.458 21.8773 107.434 21.3439C106.431 20.7893 105.642 20.0319 105.066 19.0719C104.6 18.249 104.33 17.321 104.255 16.2879H118.378V15.9359C118.399 15.8079 118.41 15.6906 118.41 15.5839C118.41 13.8986 118.058 12.4159 117.354 11.1359C116.65 9.83461 115.679 8.83195 114.442 8.12795C113.226 7.40261 111.828 7.03995 110.25 7.03995C108.692 7.03995 107.284 7.41328 106.026 8.15995C104.788 8.88528 103.807 9.88795 103.082 11.1679C102.378 12.4479 102.026 13.9199 102.026 15.5839C102.026 17.2479 102.399 18.7306 103.146 20.0319C103.892 21.3119 104.927 22.3253 106.25 23.0719ZM104.265 14.5919C104.348 13.6505 104.593 12.7972 105.002 12.0319C105.514 11.0719 106.228 10.3253 107.146 9.79195C108.063 9.25861 109.098 8.99195 110.25 8.99195C111.423 8.99195 112.458 9.25861 113.354 9.79195C114.25 10.3253 114.954 11.0719 115.466 12.0319C115.898 12.7939 116.156 13.6472 116.237 14.5919H104.265ZM135.665 29.9839C136.39 30.2399 137.148 30.3679 137.937 30.3679C138.748 30.3679 139.484 30.2293 140.145 29.9519C140.806 29.6959 141.414 29.2479 141.969 28.6079C142.545 27.9679 143.068 27.1039 143.537 26.0159L151.953 7.19995H149.713L143.38 21.478L137.041 7.19995H134.673L142.183 23.9568L141.457 25.5999C140.966 26.6453 140.444 27.3706 139.889 27.7759C139.356 28.2026 138.716 28.4159 137.969 28.4159C137.35 28.4159 136.785 28.2986 136.273 28.0639C135.782 27.8506 135.324 27.5413 134.897 27.1359L133.841 28.8319C134.353 29.3439 134.961 29.7279 135.665 29.9839ZM160.348 23.0719C161.649 23.7973 163.111 24.1599 164.732 24.1599C166.375 24.1599 167.847 23.7973 169.148 23.0719C170.449 22.3253 171.463 21.3119 172.188 20.0319C172.935 18.7306 173.308 17.2479 173.308 15.5839C173.308 13.8986 172.935 12.4159 172.188 11.1359C171.463 9.85595 170.449 8.85328 169.148 8.12795C167.868 7.40261 166.396 7.03995 164.732 7.03995C163.089 7.03995 161.628 7.40261 160.348 8.12795C159.068 8.85328 158.055 9.85595 157.308 11.1359C156.561 12.4159 156.188 13.8986 156.188 15.5839C156.188 17.2479 156.561 18.7306 157.308 20.0319C158.055 21.3119 159.068 22.3253 160.348 23.0719ZM167.964 21.3439C167.025 21.8773 165.948 22.1439 164.732 22.1439C163.559 22.1439 162.503 21.8773 161.564 21.3439C160.625 20.7893 159.879 20.0213 159.324 19.0399C158.769 18.0373 158.492 16.8853 158.492 15.5839C158.492 14.2613 158.769 13.1093 159.324 12.1279C159.879 11.1466 160.625 10.3893 161.564 9.85595C162.503 9.30128 163.569 9.02395 164.764 9.02395C165.959 9.02395 167.025 9.30128 167.964 9.85595C168.903 10.3893 169.639 11.1466 170.172 12.1279C170.727 13.1093 171.004 14.2613 171.004 15.5839C171.004 16.8853 170.727 18.0373 170.172 19.0399C169.639 20.0213 168.903 20.7893 167.964 21.3439ZM184.346 23.3599C185.413 23.8933 186.661 24.1599 188.09 24.1599C189.584 24.1599 190.885 23.8186 191.995 23.1359C192.901 22.5714 193.616 21.8353 194.139 20.9277V23.9999H196.314V7.19995H194.042V15.9999C194.042 17.2799 193.808 18.3786 193.339 19.2959C192.891 20.2133 192.229 20.9173 191.355 21.4079C190.501 21.8773 189.488 22.1119 188.314 22.1119C186.715 22.1119 185.467 21.6639 184.57 20.7679C183.696 19.8506 183.258 18.4959 183.258 16.7039V7.19995H180.986V16.9599C180.986 18.5599 181.275 19.8933 181.85 20.9599C182.448 22.0266 183.28 22.8266 184.346 23.3599ZM222.158 23.1679C223.331 23.8293 224.643 24.1599 226.093 24.1599C227.693 24.1599 229.123 23.7973 230.382 23.0719C231.661 22.3466 232.664 21.3439 233.389 20.0639C234.115 18.7839 234.477 17.2906 234.477 15.5839C234.477 13.8986 234.115 12.4159 233.389 11.1359C232.664 9.83461 231.661 8.83195 230.382 8.12795C229.123 7.40261 227.693 7.03995 226.093 7.03995C224.621 7.03995 223.299 7.37061 222.125 8.03195C221.093 8.61403 220.25 9.43575 219.597 10.4971V7.19995H217.421V30.2079H219.693V20.8321C220.349 21.8147 221.17 22.5934 222.158 23.1679ZM229.133 21.3439C228.195 21.8773 227.128 22.1439 225.933 22.1439C224.739 22.1439 223.661 21.8773 222.701 21.3439C221.763 20.7893 221.016 20.0213 220.462 19.0399C219.928 18.0373 219.661 16.8853 219.661 15.5839C219.661 14.2826 219.928 13.1413 220.462 12.1599C221.016 11.1786 221.763 10.4106 222.701 9.85595C223.661 9.30128 224.739 9.02395 225.933 9.02395C227.128 9.02395 228.195 9.30128 229.133 9.85595C230.072 10.4106 230.819 11.1786 231.373 12.1599C231.928 13.1413 232.205 14.2826 232.205 15.5839C232.205 16.8853 231.928 18.0373 231.373 19.0399C230.819 20.0213 230.072 20.7893 229.133 21.3439ZM252.743 21.3622V23.9999H254.919V13.5679C254.919 11.3706 254.322 9.73861 253.127 8.67195C251.954 7.58395 250.279 7.03995 248.103 7.03995C246.781 7.03995 245.522 7.24261 244.327 7.64795C243.133 8.03195 242.109 8.58661 241.255 9.31195L242.279 11.0079C242.962 10.4106 243.794 9.93061 244.775 9.56795C245.757 9.20528 246.791 9.02395 247.879 9.02395C249.458 9.02395 250.642 9.40795 251.431 10.1759C252.242 10.9439 252.647 12.0426 252.647 13.4719V14.4959H247.303C245.703 14.4959 244.423 14.7199 243.463 15.1679C242.525 15.5946 241.842 16.1706 241.415 16.8959C241.01 17.5999 240.807 18.3893 240.807 19.2639C240.807 20.2239 241.053 21.0773 241.543 21.8239C242.034 22.5493 242.738 23.1253 243.655 23.5519C244.594 23.9573 245.693 24.1599 246.951 24.1599C248.551 24.1599 249.874 23.8293 250.919 23.1679C251.698 22.6853 252.306 22.0834 252.743 21.3622ZM252.647 18.9439V16.1919H247.367C245.746 16.1919 244.615 16.4799 243.975 17.0559C243.357 17.6319 243.047 18.3466 243.047 19.1999C243.047 20.1599 243.421 20.9279 244.167 21.5039C244.914 22.0799 245.959 22.3679 247.303 22.3679C248.583 22.3679 249.682 22.0799 250.599 21.5039C251.538 20.9066 252.221 20.0533 252.647 18.9439ZM261.834 29.9839C262.559 30.2399 263.316 30.3679 264.106 30.3679C264.916 30.3679 265.652 30.2293 266.314 29.9519C266.975 29.6959 267.583 29.2479 268.138 28.6079C268.714 27.9679 269.236 27.1039 269.706 26.0159L278.122 7.19995H275.882L269.549 21.478L263.21 7.19995H260.842L268.351 23.9568L267.626 25.5999C267.135 26.6453 266.612 27.3706 266.058 27.7759C265.524 28.2026 264.884 28.4159 264.138 28.4159C263.519 28.4159 262.954 28.2986 262.442 28.0639C261.951 27.8506 261.492 27.5413 261.066 27.1359L260.01 28.8319C260.522 29.3439 261.13 29.7279 261.834 29.9839ZM296.096 17.8304V23.9999H298.368V17.5103L296.096 17.8304ZM296.096 15.8106L298.368 15.4906V0.255947H296.096V15.8106ZM306.226 16.4037C306.33 17.7388 306.692 18.9483 307.314 20.0319C308.061 21.3119 309.096 22.3253 310.418 23.0719C311.741 23.7973 313.277 24.1599 315.026 24.1599C316.37 24.1599 317.597 23.9253 318.706 23.4559C319.837 22.9866 320.776 22.3039 321.522 21.4079L320.242 19.9359C319.602 20.6826 318.834 21.2373 317.938 21.5999C317.064 21.9626 316.114 22.1439 315.09 22.1439C313.789 22.1439 312.626 21.8773 311.602 21.3439C310.6 20.7893 309.81 20.0319 309.234 19.0719C308.769 18.249 308.499 17.321 308.424 16.2879H322.546V15.9359C322.568 15.8079 322.578 15.6906 322.578 15.5839C322.578 15.0755 322.546 14.5855 322.482 14.1139L320.388 14.4089C320.395 14.4695 320.401 14.5305 320.406 14.5919H319.088L308.412 16.0957L307.922 16.1647L306.226 16.4037ZM308.499 14.0637L306.259 14.3791C306.391 13.2003 306.721 12.1299 307.25 11.1679C307.976 9.88795 308.957 8.88528 310.194 8.15995C311.453 7.41328 312.861 7.03995 314.418 7.03995C315.997 7.03995 317.394 7.40261 318.61 8.12795C319.848 8.83195 320.818 9.83461 321.522 11.1359C321.703 11.4648 321.861 11.8071 321.995 12.1627L319.856 12.464C319.788 12.3169 319.714 12.1728 319.634 12.0319C319.122 11.0719 318.418 10.3253 317.522 9.79195C316.626 9.25861 315.592 8.99195 314.418 8.99195C313.266 8.99195 312.232 9.25861 311.314 9.79195C310.397 10.3253 309.682 11.0719 309.17 12.0319C308.84 12.6515 308.616 13.3287 308.499 14.0637ZM328.84 13.2183C328.936 13.5682 329.073 13.8767 329.251 14.1439C329.656 14.7199 330.179 15.1786 330.819 15.5199C331.459 15.8399 332.163 16.0853 332.931 16.2559C333.72 16.4266 334.509 16.5759 335.299 16.7039C336.088 16.8319 336.803 16.9919 337.443 17.1839C338.083 17.3546 338.595 17.6213 338.979 17.9839C339.384 18.3253 339.587 18.8053 339.587 19.4239C339.587 20.2559 339.235 20.9279 338.531 21.4399C337.827 21.9306 336.675 22.1759 335.075 22.1759C333.901 22.1759 332.781 21.9946 331.715 21.6319C330.648 21.2479 329.773 20.7999 329.091 20.2879L328.067 22.0799C328.771 22.6773 329.741 23.1786 330.979 23.5839C332.216 23.9679 333.528 24.1599 334.915 24.1599C336.387 24.1599 337.635 23.9679 338.659 23.5839C339.704 23.1786 340.493 22.6239 341.027 21.9199C341.581 21.1946 341.859 20.3413 341.859 19.3599C341.859 18.4426 341.656 17.7066 341.251 17.1519C340.867 16.5759 340.344 16.1386 339.683 15.8399C339.043 15.5199 338.328 15.2746 337.539 15.1039C336.771 14.9119 335.992 14.7519 335.203 14.6239C334.435 14.4959 333.72 14.3359 333.059 14.1439C332.419 13.9306 331.896 13.6426 331.491 13.2799C331.368 13.1638 331.264 13.0333 331.181 12.8887L328.84 13.2183ZM331.08 10.8831L328.716 11.2161C328.808 10.5461 329.05 9.93275 329.443 9.37595C329.955 8.65061 330.701 8.08528 331.683 7.67995C332.685 7.25328 333.901 7.03995 335.331 7.03995C336.419 7.03995 337.507 7.18928 338.595 7.48795C339.683 7.76528 340.579 8.13861 341.283 8.60795L340.789 9.51559L339.085 9.75556C338.7 9.58379 338.301 9.44659 337.891 9.34395C337.037 9.10928 336.184 8.99195 335.331 8.99195C333.816 8.99195 332.696 9.25861 331.971 9.79195C331.546 10.1012 331.249 10.4649 331.08 10.8831ZM347.683 10.5643C347.561 10.9666 347.5 11.3918 347.5 11.8399C347.5 12.7999 347.692 13.5679 348.076 14.1439C348.481 14.7199 349.004 15.1786 349.644 15.5199C350.284 15.8399 350.988 16.0853 351.756 16.2559C352.545 16.4266 353.334 16.5759 354.124 16.7039C354.913 16.8319 355.628 16.9919 356.268 17.1839C356.908 17.3546 357.42 17.6213 357.804 17.9839C358.209 18.3253 358.412 18.8053 358.412 19.4239C358.412 20.2559 358.06 20.9279 357.356 21.4399C356.652 21.9306 355.5 22.1759 353.9 22.1759C352.726 22.1759 351.606 21.9946 350.54 21.6319C349.473 21.2479 348.598 20.7999 347.916 20.2879L346.892 22.0799C347.596 22.6773 348.566 23.1786 349.804 23.5839C351.041 23.9679 352.353 24.1599 353.74 24.1599C355.212 24.1599 356.46 23.9679 357.484 23.5839C358.529 23.1786 359.318 22.6239 359.852 21.9199C360.406 21.1946 360.684 20.3413 360.684 19.3599C360.684 18.4426 360.481 17.7066 360.076 17.1519C359.692 16.5759 359.169 16.1386 358.508 15.8399C357.868 15.5199 357.153 15.2746 356.364 15.1039C355.596 14.9119 354.817 14.7519 354.028 14.6239C353.26 14.4959 352.545 14.3359 351.884 14.1439C351.244 13.9306 350.721 13.6426 350.316 13.2799C349.932 12.9173 349.74 12.4159 349.74 11.7759C349.74 11.1611 349.942 10.6321 350.347 10.1891L347.683 10.5643ZM356.589 9.30992C356.631 9.32097 356.673 9.33232 356.716 9.34395C357.569 9.55728 358.369 9.91995 359.116 10.4319L359.986 8.83139L356.589 9.30992ZM356.593 7.28965L349.345 8.31047C349.687 8.0691 350.074 7.85893 350.508 7.67995C351.51 7.25328 352.726 7.03995 354.156 7.03995C354.968 7.03995 355.78 7.12318 356.593 7.28965ZM380.012 9.08795V23.9999H382.284V9.08795H387.404V7.19995H382.22V5.18395C382.22 4.13861 382.476 3.34928 382.988 2.81595C383.5 2.28261 384.236 2.01595 385.196 2.01595C385.686 2.01595 386.145 2.09061 386.572 2.23995C386.998 2.36795 387.372 2.57061 387.692 2.84795L388.46 1.15195C388.054 0.789281 387.553 0.522615 386.956 0.351948C386.358 0.181281 385.74 0.0959473 385.1 0.0959473C383.457 0.0959473 382.198 0.554614 381.324 1.47195C380.449 2.38928 380.012 3.59461 380.012 5.08795V7.19995H377.004V9.08795H380.012ZM395.854 23.0719C397.156 23.7973 398.617 24.1599 400.238 24.1599C401.881 24.1599 403.353 23.7973 404.654 23.0719C405.956 22.3253 406.969 21.3119 407.694 20.0319C408.441 18.7306 408.814 17.2479 408.814 15.5839C408.814 13.8986 408.441 12.4159 407.694 11.1359C406.969 9.85595 405.956 8.85328 404.654 8.12795C403.374 7.40261 401.902 7.03995 400.238 7.03995C398.596 7.03995 397.134 7.40261 395.854 8.12795C394.574 8.85328 393.561 9.85595 392.814 11.1359C392.068 12.4159 391.694 13.8986 391.694 15.5839C391.694 17.2479 392.068 18.7306 392.814 20.0319C393.561 21.3119 394.574 22.3253 395.854 23.0719ZM403.47 21.3439C402.532 21.8773 401.454 22.1439 400.238 22.1439C399.065 22.1439 398.009 21.8773 397.07 21.3439C396.132 20.7893 395.385 20.0213 394.83 19.0399C394.276 18.0373 393.998 16.8853 393.998 15.5839C393.998 14.2613 394.276 13.1093 394.83 12.1279C395.385 11.1466 396.132 10.3893 397.07 9.85595C398.009 9.30128 399.076 9.02395 400.27 9.02395C401.465 9.02395 402.532 9.30128 403.47 9.85595C404.409 10.3893 405.145 11.1466 405.678 12.1279C406.233 13.1093 406.51 14.2613 406.51 15.5839C406.51 16.8853 406.233 18.0373 405.678 19.0399C405.145 20.0213 404.409 20.7893 403.47 21.3439ZM416.653 7.19995V23.9999H418.925V15.4239C418.925 13.4399 419.426 11.9146 420.429 10.8479C421.431 9.75995 422.818 9.21595 424.589 9.21595C424.674 9.21595 424.759 9.22661 424.845 9.24795H425.101V7.03995C423.458 7.03995 422.082 7.38128 420.973 8.06395C420.024 8.62952 419.309 9.42134 418.829 10.4394V7.19995H416.653ZM444.752 1.59995V23.9999H447.024V6.18596L455.824 21.1519H456.944L465.744 6.08341V23.9999H468.016V1.59995H466.064L456.429 18.1942L446.704 1.59995H444.752ZM483.602 23.3599C485.053 23.9146 486.621 24.1919 488.306 24.1919C489.991 24.1919 491.549 23.9146 492.978 23.3599C494.407 22.7839 495.645 21.9839 496.69 20.9599C497.757 19.9359 498.578 18.7306 499.154 17.3439C499.751 15.9573 500.05 14.4426 500.05 12.7999C500.05 11.1573 499.751 9.64261 499.154 8.25595C498.578 6.86928 497.757 5.66395 496.69 4.63995C495.645 3.61595 494.407 2.82661 492.978 2.27195C491.549 1.69595 489.991 1.40795 488.306 1.40795C486.599 1.40795 485.031 1.69595 483.602 2.27195C482.173 2.82661 480.925 3.62661 479.858 4.67195C478.813 5.69595 477.991 6.90128 477.394 8.28795C476.818 9.65328 476.53 11.1573 476.53 12.7999C476.53 14.4426 476.818 15.9573 477.394 17.3439C477.991 18.7093 478.813 19.9146 479.858 20.9599C480.925 21.9839 482.173 22.7839 483.602 23.3599ZM492.018 21.4079C490.887 21.8559 489.65 22.0799 488.306 22.0799C486.962 22.0799 485.714 21.8559 484.562 21.4079C483.41 20.9386 482.407 20.2879 481.554 19.4559C480.722 18.6026 480.061 17.6106 479.57 16.4799C479.101 15.3493 478.866 14.1226 478.866 12.7999C478.866 11.4559 479.101 10.2293 479.57 9.11995C480.061 7.98928 480.722 7.00795 481.554 6.17595C482.407 5.32261 483.41 4.67195 484.562 4.22395C485.714 3.75461 486.962 3.51995 488.306 3.51995C489.65 3.51995 490.887 3.75461 492.018 4.22395C493.17 4.67195 494.162 5.32261 494.994 6.17595C495.847 7.00795 496.509 7.98928 496.978 9.11995C497.447 10.2293 497.682 11.4559 497.682 12.7999C497.682 14.1439 497.447 15.3813 496.978 16.5119C496.509 17.6213 495.847 18.6026 494.994 19.4559C494.162 20.2879 493.17 20.9386 492.018 21.4079ZM516.942 1.59995H508.558V23.9999H510.926V16.8959H516.942C517.574 16.8959 518.176 16.8629 518.749 16.7967L523.854 23.9999H526.446L520.977 16.3256C521.275 16.2293 521.562 16.1207 521.838 15.9999C523.203 15.3813 524.248 14.5066 524.974 13.3759C525.72 12.2239 526.094 10.8586 526.094 9.27995C526.094 7.65861 525.72 6.28261 524.974 5.15195C524.248 3.99995 523.203 3.12528 521.838 2.52795C520.472 1.90928 518.84 1.59995 516.942 1.59995ZM510.926 14.8799H516.878C519.118 14.8799 520.814 14.3893 521.966 13.4079C523.139 12.4266 523.726 11.0506 523.726 9.27995C523.726 7.48795 523.139 6.10128 521.966 5.11995C520.814 4.13861 519.118 3.64795 516.878 3.64795H510.926V14.8799ZM537.251 13.6319V21.9519H550.723V23.9999H534.883V1.59995H550.243V3.64795H537.251V11.6159H548.835V13.6319H537.251ZM558.33 23.6479C558.671 23.9893 559.076 24.1599 559.546 24.1599C560.015 24.1599 560.41 23.9893 560.73 23.6479C561.071 23.3066 561.242 22.8906 561.242 22.3999C561.242 21.8879 561.071 21.4719 560.73 21.1519C560.41 20.8319 560.015 20.6719 559.546 20.6719C559.076 20.6719 558.671 20.8319 558.33 21.1519C558.01 21.4719 557.85 21.8879 557.85 22.3999C557.85 22.8906 558.01 23.3066 558.33 23.6479Z" fill="white"/>
</svg>
