<svg width="50" height="50" viewBox="0 0 50 50" fill="none" xmlns="http://www.w3.org/2000/svg">
<g clip-path="url(#clip0_42_1453)">
<path d="M13.0669 42.823L13.8748 43.227C17.2416 45.2469 21.0121 46.1896 24.7828 46.1896C36.6331 46.1896 46.3289 36.4938 46.3289 24.6434C46.3289 18.9876 44.0395 13.4664 39.9997 9.42644C35.9598 5.38648 30.5731 3.09729 24.7828 3.09729C12.9324 3.09729 3.23642 12.793 3.37117 24.7782C3.37117 28.8179 4.58314 32.7234 6.60302 36.0898L7.14163 36.8979L4.98719 44.843L13.0669 42.823Z" fill="#00E676"/>
<path d="M42.2889 7.27181C37.7104 2.55869 31.3812 0 24.9173 0C11.1818 0 0.139327 11.177 0.273883 24.778C0.273883 29.0873 1.48585 33.262 3.50593 37.0324L0.00457764 49.8255L13.0669 46.4589C16.7028 48.479 20.7426 49.4216 24.7828 49.4216C38.3837 49.4216 49.4262 38.2444 49.4262 24.6436C49.4262 18.045 46.8675 11.8504 42.2891 7.27181H42.2889ZM24.9173 45.2471C21.2814 45.2471 17.6455 44.3046 14.5482 42.4193L13.7403 42.0153L5.92987 44.0351L7.94975 36.3595L7.41114 35.5514C1.48585 25.9903 4.31384 13.3317 14.0096 7.40637C23.7053 1.48127 36.2291 4.30927 42.1544 14.005C48.0795 23.7008 45.2515 36.2245 35.5559 42.1498C32.4584 44.1697 28.688 45.2469 24.9173 45.2469V45.2471ZM36.7677 30.2996L35.2864 29.6263C35.2864 29.6263 33.132 28.6836 31.7853 28.0102C31.6505 28.0102 31.516 27.8755 31.3812 27.8755C30.9772 27.8755 30.7079 28.0102 30.4386 28.145C30.4386 28.145 30.304 28.2795 28.4187 30.4342C28.2839 30.7035 28.0146 30.8382 27.7453 30.8382H27.6106C27.476 30.8382 27.2067 30.7035 27.072 30.5689L26.3986 30.2996C24.9173 29.6263 23.5708 28.8181 22.4934 27.7409C22.2241 27.4716 21.82 27.2023 21.5507 26.933C20.6081 25.9903 19.6654 24.9129 18.9922 23.701L18.8575 23.4317C18.7229 23.2969 18.7229 23.1624 18.5882 22.893C18.5882 22.6237 18.5882 22.3544 18.7229 22.2197C18.7229 22.2197 19.2615 21.5463 19.6654 21.1425C19.9349 20.873 20.0694 20.4691 20.3387 20.1998C20.6081 19.7958 20.7428 19.2571 20.6081 18.8531C20.4735 18.1797 18.8575 14.5438 18.4536 13.7359C18.1841 13.3319 17.915 13.1973 17.5109 13.0625H16.0297C15.7602 13.0625 15.4911 13.1973 15.2216 13.1973L15.0868 13.3319C14.8175 13.4666 14.5482 13.7359 14.2789 13.8705C14.0096 14.14 13.8748 14.4091 13.6055 14.6786C12.6629 15.8905 12.1243 17.3718 12.1243 18.8531C12.1243 19.9303 12.3936 21.0077 12.7976 21.9504L12.9324 22.3544C14.1443 24.9129 15.7602 27.2023 17.915 29.2222L18.4536 29.7608C18.8575 30.1649 19.2615 30.4342 19.5308 30.838C22.3588 33.2622 25.5907 35.0127 29.2266 35.9554C29.6306 36.09 30.1692 36.09 30.5733 36.2247H31.9198C32.5932 36.2247 33.4011 35.9554 33.9399 35.6861C34.3438 35.4168 34.6131 35.4168 34.8824 35.1475L35.1519 34.878C35.4212 34.6087 35.6905 34.4741 35.9598 34.2048C36.2291 33.9355 36.4984 33.6662 36.6331 33.3967C36.9025 32.8581 37.037 32.1847 37.1718 31.5116V30.5689C37.1718 30.5689 37.037 30.4342 36.7677 30.2996Z" fill="white"/>
</g>
<defs>
<clipPath id="clip0_42_1453">
<rect width="49.43" height="50" fill="white"/>
</clipPath>
</defs>
</svg>
